<svg width="286" height="159" viewBox="0 0 286 159" fill="none" xmlns="http://www.w3.org/2000/svg">
<path d="M199.402 50.4019C199.402 52.0219 199.262 53.3219 198.982 54.3019C198.722 55.3019 198.282 56.1119 197.662 56.7319C197.042 57.3519 196.152 57.9119 194.992 58.4119L194.962 58.4419C194.922 58.4419 194.872 58.3919 194.812 58.2919C194.772 58.1919 194.772 58.1319 194.812 58.1119C195.792 57.5519 196.472 56.7119 196.852 55.5919C197.252 54.4919 197.452 53.0319 197.452 51.2119V36.0919C197.452 35.4919 197.382 35.0519 197.242 34.7719C197.122 34.4919 196.882 34.3019 196.522 34.2019C196.162 34.0819 195.602 34.0219 194.842 34.0219C194.802 34.0219 194.782 33.9619 194.782 33.8419C194.782 33.7219 194.802 33.6619 194.842 33.6619L196.402 33.6919C197.242 33.7319 197.902 33.7519 198.382 33.7519C198.902 33.7519 199.542 33.7319 200.302 33.6919L201.622 33.6619C201.662 33.6619 201.682 33.7219 201.682 33.8419C201.682 33.9619 201.662 34.0219 201.622 34.0219C200.962 34.0219 200.482 34.0819 200.182 34.2019C199.882 34.3219 199.672 34.5319 199.552 34.8319C199.452 35.1119 199.402 35.5519 199.402 36.1519V50.4019ZM220.081 36.9619C220.081 35.0019 219.211 34.0219 217.471 34.0219C217.411 34.0219 217.381 33.9619 217.381 33.8419C217.381 33.7219 217.411 33.6619 217.471 33.6619L218.761 33.6919C219.481 33.7319 220.051 33.7519 220.471 33.7519C220.811 33.7519 221.301 33.7319 221.941 33.6919L223.201 33.6619C223.241 33.6619 223.261 33.7219 223.261 33.8419C223.261 33.9619 223.241 34.0219 223.201 34.0219C221.601 34.0219 220.801 35.0019 220.801 36.9619V45.4819C220.801 47.7819 220.161 49.5819 218.881 50.8819C217.601 52.1619 215.881 52.8019 213.721 52.8019C212.241 52.8019 210.941 52.5119 209.821 51.9319C208.721 51.3519 207.861 50.5319 207.241 49.4719C206.641 48.3919 206.341 47.1319 206.341 45.6919V36.0919C206.341 35.4919 206.281 35.0519 206.161 34.7719C206.041 34.4919 205.801 34.3019 205.441 34.2019C205.101 34.0819 204.551 34.0219 203.791 34.0219C203.751 34.0219 203.731 33.9619 203.731 33.8419C203.731 33.7219 203.751 33.6619 203.791 33.6619L205.261 33.6919C206.101 33.7319 206.781 33.7519 207.301 33.7519C207.841 33.7519 208.551 33.7319 209.431 33.6919L210.811 33.6619C210.871 33.6619 210.901 33.7219 210.901 33.8419C210.901 33.9619 210.871 34.0219 210.811 34.0219C210.071 34.0219 209.521 34.0819 209.161 34.2019C208.821 34.3219 208.591 34.5319 208.471 34.8319C208.351 35.1119 208.291 35.5519 208.291 36.1519V44.6419C208.291 47.0019 208.821 48.8019 209.881 50.0419C210.941 51.2819 212.441 51.9019 214.381 51.9019C216.181 51.9019 217.581 51.3419 218.581 50.2219C219.581 49.0819 220.081 47.5119 220.081 45.5119V36.9619ZM229.418 49.8619C229.418 50.4419 229.478 50.8619 229.598 51.1219C229.718 51.3819 229.938 51.5619 230.258 51.6619C230.578 51.7419 231.098 51.7819 231.818 51.7819H235.088C236.228 51.7819 237.138 51.4319 237.818 50.7319C238.498 50.0319 238.948 49.0619 239.168 47.8219C239.168 47.7619 239.218 47.7419 239.318 47.7619C239.438 47.7619 239.498 47.7919 239.498 47.8519C239.318 49.5119 239.228 50.8819 239.228 51.9619C239.228 52.1219 239.198 52.2419 239.138 52.3219C239.078 52.3819 238.958 52.4119 238.778 52.4119H224.918C224.878 52.4119 224.858 52.3519 224.858 52.2319C224.858 52.1119 224.878 52.0519 224.918 52.0519C225.678 52.0519 226.228 52.0019 226.568 51.9019C226.928 51.8019 227.168 51.6119 227.288 51.3319C227.408 51.0319 227.468 50.5819 227.468 49.9819V36.0919C227.468 35.4919 227.408 35.0519 227.288 34.7719C227.168 34.4919 226.928 34.3019 226.568 34.2019C226.228 34.0819 225.678 34.0219 224.918 34.0219C224.878 34.0219 224.858 33.9619 224.858 33.8419C224.858 33.7219 224.878 33.6619 224.918 33.6619L226.388 33.6919C227.228 33.7319 227.908 33.7519 228.428 33.7519C228.988 33.7519 229.688 33.7319 230.528 33.6919L231.968 33.6619C232.028 33.6619 232.058 33.7219 232.058 33.8419C232.058 33.9619 232.028 34.0219 231.968 34.0219C231.228 34.0219 230.678 34.0819 230.318 34.2019C229.958 34.3019 229.718 34.5019 229.598 34.8019C229.478 35.0819 229.418 35.5219 229.418 36.1219V49.8619ZM245.834 49.9819C245.834 50.6019 245.894 51.0519 246.014 51.3319C246.134 51.6119 246.364 51.8019 246.704 51.9019C247.064 52.0019 247.624 52.0519 248.384 52.0519C248.444 52.0519 248.474 52.1119 248.474 52.2319C248.474 52.3519 248.444 52.4119 248.384 52.4119C247.784 52.4119 247.304 52.4019 246.944 52.3819L244.814 52.3519L242.744 52.3819C242.384 52.4019 241.894 52.4119 241.274 52.4119C241.214 52.4119 241.184 52.3519 241.184 52.2319C241.184 52.1119 241.214 52.0519 241.274 52.0519C242.034 52.0519 242.584 52.0019 242.924 51.9019C243.284 51.8019 243.524 51.6119 243.644 51.3319C243.784 51.0319 243.854 50.5819 243.854 49.9819V36.0919C243.854 35.4919 243.784 35.0519 243.644 34.7719C243.524 34.4919 243.284 34.3019 242.924 34.2019C242.584 34.0819 242.034 34.0219 241.274 34.0219C241.214 34.0219 241.184 33.9619 241.184 33.8419C241.184 33.7219 241.214 33.6619 241.274 33.6619L242.744 33.6919C243.584 33.7319 244.274 33.7519 244.814 33.7519C245.414 33.7519 246.134 33.7319 246.974 33.6919L248.384 33.6619C248.444 33.6619 248.474 33.7219 248.474 33.8419C248.474 33.9619 248.444 34.0219 248.384 34.0219C247.644 34.0219 247.094 34.0819 246.734 34.2019C246.374 34.3219 246.134 34.5319 246.014 34.8319C245.894 35.1119 245.834 35.5519 245.834 36.1519V49.9819ZM251.115 52.4119C251.075 52.4119 251.055 52.3519 251.055 52.2319C251.055 52.1119 251.075 52.0519 251.115 52.0519C251.875 52.0519 252.425 52.0019 252.765 51.9019C253.125 51.8019 253.365 51.6119 253.485 51.3319C253.625 51.0319 253.695 50.5819 253.695 49.9819V36.0919C253.695 35.4919 253.625 35.0519 253.485 34.7719C253.365 34.4919 253.125 34.3019 252.765 34.2019C252.425 34.0819 251.875 34.0219 251.115 34.0219C251.075 34.0219 251.055 33.9619 251.055 33.8419C251.055 33.7219 251.075 33.6619 251.115 33.6619H263.175C263.355 33.6619 263.445 33.7519 263.445 33.9319L263.505 37.6219C263.505 37.6819 263.445 37.7219 263.325 37.7419C263.225 37.7419 263.175 37.7119 263.175 37.6519C263.115 36.5919 262.795 35.7719 262.215 35.1919C261.635 34.5919 260.865 34.2919 259.905 34.2919H258.075C257.375 34.2919 256.855 34.3519 256.515 34.4719C256.175 34.5719 255.935 34.7519 255.795 35.0119C255.675 35.2719 255.615 35.6819 255.615 36.2419V49.8619C255.615 50.4019 255.675 50.8119 255.795 51.0919C255.935 51.3519 256.165 51.5319 256.485 51.6319C256.805 51.7319 257.305 51.7819 257.985 51.7819H260.385C261.345 51.7819 262.145 51.4419 262.785 50.7619C263.425 50.0819 263.855 49.1419 264.075 47.9419C264.075 47.9019 264.115 47.8819 264.195 47.8819C264.255 47.8819 264.305 47.9019 264.345 47.9419C264.405 47.9619 264.435 47.9819 264.435 48.0019C264.255 49.2619 264.165 50.5819 264.165 51.9619C264.165 52.1219 264.125 52.2419 264.045 52.3219C263.985 52.3819 263.865 52.4119 263.685 52.4119H251.115ZM262.005 45.4219C262.005 44.5419 261.785 43.9119 261.345 43.5319C260.925 43.1519 260.215 42.9619 259.215 42.9619H254.715V42.3319H259.305C260.265 42.3319 260.945 42.1719 261.345 41.8519C261.765 41.5319 261.975 40.9919 261.975 40.2319C261.975 40.1919 262.035 40.1719 262.155 40.1719C262.275 40.1719 262.335 40.1919 262.335 40.2319L262.305 42.6619C262.305 43.2419 262.315 43.6819 262.335 43.9819L262.365 45.4219C262.365 45.4619 262.305 45.4819 262.185 45.4819C262.065 45.4819 262.005 45.4619 262.005 45.4219ZM194.428 85.8619C194.428 86.5019 194.508 86.9719 194.668 87.2719C194.848 87.5519 195.178 87.7519 195.658 87.8719C196.158 87.9919 196.938 88.0519 197.998 88.0519C198.058 88.0519 198.088 88.1119 198.088 88.2319C198.088 88.3519 198.058 88.4119 197.998 88.4119C197.178 88.4119 196.538 88.4019 196.078 88.3819L193.468 88.3519L191.458 88.3819C191.078 88.4019 190.568 88.4119 189.928 88.4119C189.888 88.4119 189.868 88.3519 189.868 88.2319C189.868 88.1119 189.888 88.0519 189.928 88.0519C190.688 88.0519 191.238 88.0019 191.578 87.9019C191.938 87.8019 192.178 87.6119 192.298 87.3319C192.418 87.0319 192.478 86.5819 192.478 85.9819V72.0919C192.478 71.4919 192.418 71.0519 192.298 70.7719C192.178 70.4919 191.938 70.3019 191.578 70.2019C191.238 70.0819 190.688 70.0219 189.928 70.0219C189.888 70.0219 189.868 69.9619 189.868 69.8419C189.868 69.7219 189.888 69.6619 189.928 69.6619L191.428 69.6919C192.268 69.7319 192.938 69.7519 193.438 69.7519C193.938 69.7519 194.498 69.7219 195.118 69.6619C195.358 69.6619 195.738 69.6519 196.258 69.6319C196.778 69.5919 197.228 69.5719 197.608 69.5719C199.448 69.5719 200.918 69.9819 202.018 70.8019C203.138 71.6219 203.698 72.8719 203.698 74.5519C203.698 75.8719 203.368 76.9819 202.708 77.8819C202.068 78.7819 201.238 79.4519 200.218 79.8919C199.198 80.3319 198.148 80.5519 197.068 80.5519C196.488 80.5519 196.008 80.5019 195.628 80.4019C195.568 80.4019 195.538 80.3519 195.538 80.2519C195.538 80.1919 195.548 80.1319 195.568 80.0719C195.608 80.0119 195.648 79.9919 195.688 80.0119C196.008 80.0919 196.368 80.1319 196.768 80.1319C198.088 80.1319 199.198 79.7019 200.098 78.8419C201.018 77.9819 201.478 76.7419 201.478 75.1219C201.478 73.5419 201.048 72.3019 200.188 71.4019C199.328 70.4819 198.228 70.0219 196.888 70.0219C196.168 70.0219 195.648 70.0619 195.328 70.1419C195.008 70.2219 194.778 70.4119 194.638 70.7119C194.498 70.9919 194.428 71.4719 194.428 72.1519V85.8619ZM222.087 72.1519C222.087 71.5519 222.017 71.1119 221.877 70.8319C221.757 70.5319 221.517 70.3219 221.157 70.2019C220.797 70.0819 220.227 70.0219 219.447 70.0219C219.387 70.0219 219.357 69.9619 219.357 69.8419C219.357 69.7219 219.387 69.6619 219.447 69.6619L220.887 69.6919C221.767 69.7319 222.497 69.7519 223.077 69.7519C223.617 69.7519 224.307 69.7319 225.147 69.6919L226.617 69.6619C226.677 69.6619 226.707 69.7219 226.707 69.8419C226.707 69.9619 226.677 70.0219 226.617 70.0219C225.857 70.0219 225.297 70.0819 224.937 70.2019C224.577 70.3019 224.327 70.4919 224.187 70.7719C224.067 71.0519 224.007 71.4919 224.007 72.0919V85.9819C224.007 86.5819 224.067 87.0319 224.187 87.3319C224.327 87.6119 224.577 87.8019 224.937 87.9019C225.297 88.0019 225.857 88.0519 226.617 88.0519C226.677 88.0519 226.707 88.1119 226.707 88.2319C226.707 88.3519 226.677 88.4119 226.617 88.4119C225.997 88.4119 225.507 88.4019 225.147 88.3819L223.077 88.3519L220.887 88.3819C220.527 88.4019 220.047 88.4119 219.447 88.4119C219.387 88.4119 219.357 88.3519 219.357 88.2319C219.357 88.1119 219.387 88.0519 219.447 88.0519C220.227 88.0519 220.797 88.0019 221.157 87.9019C221.517 87.8019 221.757 87.6119 221.877 87.3319C222.017 87.0319 222.087 86.5819 222.087 85.9819V72.1519ZM209.517 78.3319H222.927V78.9619H209.517V78.3319ZM208.647 72.0919C208.647 71.4919 208.577 71.0519 208.437 70.7719C208.317 70.4919 208.077 70.3019 207.717 70.2019C207.357 70.0819 206.797 70.0219 206.037 70.0219C205.997 70.0219 205.977 69.9619 205.977 69.8419C205.977 69.7219 205.997 69.6619 206.037 69.6619L207.567 69.6919C208.407 69.7319 209.077 69.7519 209.577 69.7519C210.157 69.7519 210.887 69.7319 211.767 69.6919L213.207 69.6619C213.247 69.6619 213.267 69.7219 213.267 69.8419C213.267 69.9619 213.247 70.0219 213.207 70.0219C212.447 70.0219 211.877 70.0819 211.497 70.2019C211.137 70.3219 210.887 70.5319 210.747 70.8319C210.627 71.1119 210.567 71.5519 210.567 72.1519V85.9819C210.567 86.5819 210.627 87.0319 210.747 87.3319C210.887 87.6119 211.137 87.8019 211.497 87.9019C211.857 88.0019 212.427 88.0519 213.207 88.0519C213.247 88.0519 213.267 88.1119 213.267 88.2319C213.267 88.3519 213.247 88.4119 213.207 88.4119C212.587 88.4119 212.097 88.4019 211.737 88.3819L209.577 88.3519L207.507 88.3819C207.147 88.4019 206.647 88.4119 206.007 88.4119C205.967 88.4119 205.947 88.3519 205.947 88.2319C205.947 88.1119 205.967 88.0519 206.007 88.0519C206.767 88.0519 207.327 88.0019 207.687 87.9019C208.067 87.8019 208.317 87.6119 208.437 87.3319C208.577 87.0319 208.647 86.5819 208.647 85.9819V72.0919ZM233.841 79.5619H241.791L242.001 80.1619H233.541L233.841 79.5619ZM248.691 88.0519C248.771 88.0519 248.811 88.1119 248.811 88.2319C248.811 88.3519 248.771 88.4119 248.691 88.4119C248.311 88.4119 247.721 88.3919 246.921 88.3519C246.121 88.3119 245.541 88.2919 245.181 88.2919C244.741 88.2919 244.181 88.3119 243.501 88.3519C242.861 88.3919 242.371 88.4119 242.031 88.4119C241.951 88.4119 241.911 88.3519 241.911 88.2319C241.911 88.1119 241.951 88.0519 242.031 88.0519C242.791 88.0519 243.331 87.9819 243.651 87.8419C243.991 87.7019 244.161 87.4519 244.161 87.0919C244.161 86.7919 244.041 86.3719 243.801 85.8319L237.141 71.7619L237.891 70.8319L232.071 84.6019C231.791 85.2819 231.651 85.8419 231.651 86.2819C231.651 87.4619 232.631 88.0519 234.591 88.0519C234.691 88.0519 234.741 88.1119 234.741 88.2319C234.741 88.3519 234.691 88.4119 234.591 88.4119C234.231 88.4119 233.711 88.3919 233.031 88.3519C232.271 88.3119 231.611 88.2919 231.051 88.2919C230.531 88.2919 229.931 88.3119 229.251 88.3519C228.651 88.3919 228.151 88.4119 227.751 88.4119C227.651 88.4119 227.601 88.3519 227.601 88.2319C227.601 88.1119 227.651 88.0519 227.751 88.0519C228.311 88.0519 228.781 87.9519 229.161 87.7519C229.561 87.5319 229.931 87.1619 230.271 86.6419C230.631 86.1019 231.021 85.3319 231.441 84.3319L237.771 69.3919C237.811 69.3319 237.881 69.3019 237.981 69.3019C238.081 69.3019 238.141 69.3319 238.161 69.3919L245.241 84.3019C245.921 85.7819 246.501 86.7819 246.981 87.3019C247.461 87.8019 248.031 88.0519 248.691 88.0519ZM252.385 70.3519L253.075 70.4119V85.1419C253.075 86.1819 253.255 86.9319 253.615 87.3919C253.995 87.8319 254.595 88.0519 255.415 88.0519C255.475 88.0519 255.505 88.1119 255.505 88.2319C255.505 88.3519 255.475 88.4119 255.415 88.4119C254.915 88.4119 254.535 88.4019 254.275 88.3819L252.775 88.3519L251.245 88.3819C250.965 88.4019 250.555 88.4119 250.015 88.4119C249.975 88.4119 249.955 88.3519 249.955 88.2319C249.955 88.1119 249.975 88.0519 250.015 88.0519C250.875 88.0519 251.485 87.8319 251.845 87.3919C252.205 86.9319 252.385 86.1819 252.385 85.1419V70.3519ZM267.505 88.7719C267.505 88.8119 267.455 88.8419 267.355 88.8619C267.255 88.8819 267.185 88.8719 267.145 88.8319L253.345 72.1219C252.705 71.3419 252.115 70.8019 251.575 70.5019C251.055 70.1819 250.535 70.0219 250.015 70.0219C249.955 70.0219 249.925 69.9619 249.925 69.8419C249.925 69.7219 249.955 69.6619 250.015 69.6619L251.125 69.6919C251.365 69.7119 251.695 69.7219 252.115 69.7219C252.555 69.7219 252.915 69.7119 253.195 69.6919C253.475 69.6719 253.695 69.6619 253.855 69.6619C253.995 69.6619 254.105 69.7019 254.185 69.7819C254.285 69.8419 254.395 69.9819 254.515 70.2019C254.755 70.5619 255.005 70.9019 255.265 71.2219L267.265 85.9519L267.505 88.7719ZM267.505 88.7719L266.815 87.8419V72.9619C266.815 71.9219 266.635 71.1719 266.275 70.7119C265.935 70.2519 265.355 70.0219 264.535 70.0219C264.495 70.0219 264.475 69.9619 264.475 69.8419C264.475 69.7219 264.495 69.6619 264.535 69.6619L265.705 69.6919C266.305 69.7319 266.795 69.7519 267.175 69.7519C267.535 69.7519 268.035 69.7319 268.675 69.6919L269.905 69.6619C269.965 69.6619 269.995 69.7219 269.995 69.8419C269.995 69.9619 269.965 70.0219 269.905 70.0219C269.065 70.0219 268.455 70.2519 268.075 70.7119C267.695 71.1719 267.505 71.9219 267.505 72.9619V88.7719ZM200.814 109.802C201.354 108.902 201.624 108.132 201.624 107.492C201.624 107.012 201.474 106.652 201.174 106.412C200.894 106.152 200.484 106.022 199.944 106.022C199.884 106.022 199.854 105.962 199.854 105.842C199.854 105.722 199.884 105.662 199.944 105.662L201.534 105.692C202.454 105.732 203.274 105.752 203.994 105.752C204.334 105.752 204.744 105.732 205.224 105.692L206.334 105.662C206.374 105.662 206.394 105.722 206.394 105.842C206.394 105.962 206.374 106.022 206.334 106.022C205.714 106.022 204.954 106.412 204.054 107.192C203.154 107.952 202.354 108.912 201.654 110.072L197.754 116.582L197.124 116.072L200.814 109.802ZM190.824 109.112C190.084 107.952 189.464 107.152 188.964 106.712C188.484 106.252 188.074 106.022 187.734 106.022C187.674 106.022 187.644 105.962 187.644 105.842C187.644 105.722 187.674 105.662 187.734 105.662L188.664 105.692C189.104 105.732 189.414 105.752 189.594 105.752C190.294 105.752 191.304 105.732 192.624 105.692L194.604 105.662C194.644 105.662 194.664 105.722 194.664 105.842C194.664 105.962 194.644 106.022 194.604 106.022C194.264 106.022 193.994 106.102 193.794 106.262C193.614 106.422 193.524 106.632 193.524 106.892C193.524 107.212 193.664 107.592 193.944 108.032L198.264 114.842L195.384 116.192L190.824 109.112ZM198.534 114.842V121.982C198.534 122.602 198.584 123.052 198.684 123.332C198.784 123.612 198.974 123.802 199.254 123.902C199.554 124.002 200.024 124.052 200.664 124.052C200.724 124.052 200.754 124.112 200.754 124.232C200.754 124.352 200.724 124.412 200.664 124.412C200.004 124.412 199.484 124.402 199.104 124.382L196.854 124.352L194.634 124.382C194.234 124.402 193.694 124.412 193.014 124.412C192.974 124.412 192.954 124.352 192.954 124.232C192.954 124.112 192.974 124.052 193.014 124.052C193.654 124.052 194.124 124.002 194.424 123.902C194.724 123.802 194.924 123.612 195.024 123.332C195.144 123.032 195.204 122.582 195.204 121.982V115.112L198.534 114.842ZM216.259 124.772C214.399 124.772 212.739 124.342 211.279 123.482C209.839 122.602 208.719 121.422 207.919 119.942C207.139 118.442 206.749 116.812 206.749 115.052C206.749 112.992 207.269 111.232 208.309 109.772C209.349 108.292 210.679 107.182 212.299 106.442C213.939 105.702 215.609 105.332 217.309 105.332C219.209 105.332 220.879 105.782 222.319 106.682C223.759 107.562 224.859 108.732 225.619 110.192C226.399 111.652 226.789 113.202 226.789 114.842C226.789 116.662 226.309 118.332 225.349 119.852C224.389 121.372 223.099 122.572 221.479 123.452C219.879 124.332 218.139 124.772 216.259 124.772ZM217.249 124.022C218.369 124.022 219.369 123.702 220.249 123.062C221.149 122.402 221.849 121.452 222.349 120.212C222.849 118.952 223.099 117.452 223.099 115.712C223.099 113.872 222.819 112.232 222.259 110.792C221.699 109.332 220.889 108.192 219.829 107.372C218.769 106.552 217.529 106.142 216.109 106.142C214.289 106.142 212.889 106.832 211.909 108.212C210.929 109.572 210.439 111.482 210.439 113.942C210.439 115.882 210.729 117.622 211.309 119.162C211.909 120.682 212.719 121.872 213.739 122.732C214.779 123.592 215.949 124.022 217.249 124.022ZM240.878 124.772C238.598 124.772 236.618 124.352 234.938 123.512C233.258 122.652 231.968 121.492 231.068 120.032C230.168 118.572 229.718 116.952 229.718 115.172C229.718 113.272 230.218 111.572 231.218 110.072C232.238 108.572 233.638 107.412 235.418 106.592C237.198 105.752 239.198 105.332 241.418 105.332C242.378 105.332 243.338 105.412 244.298 105.572C245.258 105.712 246.028 105.902 246.608 106.142C246.828 106.222 246.948 106.292 246.968 106.352C247.008 106.392 247.038 106.552 247.058 106.832L247.448 111.002C247.448 111.062 247.388 111.102 247.268 111.122C247.168 111.142 247.108 111.112 247.088 111.032C246.828 110.372 246.408 109.652 245.828 108.872C245.248 108.092 244.488 107.412 243.548 106.832C242.608 106.252 241.518 105.962 240.278 105.962C238.998 105.962 237.828 106.312 236.768 107.012C235.708 107.712 234.868 108.712 234.248 110.012C233.648 111.312 233.348 112.822 233.348 114.542C233.348 116.422 233.698 118.102 234.398 119.582C235.118 121.062 236.108 122.212 237.368 123.032C238.628 123.852 240.048 124.262 241.628 124.262C242.448 124.262 243.078 124.172 243.518 123.992C243.958 123.812 244.278 123.462 244.478 122.942C244.678 122.422 244.778 121.652 244.778 120.632C244.778 119.592 244.718 118.872 244.598 118.472C244.478 118.052 244.218 117.772 243.818 117.632C243.438 117.492 242.758 117.422 241.778 117.422C241.658 117.422 241.598 117.342 241.598 117.182C241.598 117.122 241.608 117.072 241.628 117.032C241.668 116.972 241.708 116.942 241.748 116.942C243.448 117.042 244.828 117.092 245.888 117.092C246.908 117.092 247.968 117.062 249.068 117.002C249.148 117.002 249.188 117.072 249.188 117.212C249.208 117.352 249.168 117.422 249.068 117.422C248.708 117.402 248.448 117.472 248.288 117.632C248.148 117.772 248.058 118.072 248.018 118.532C247.978 118.992 247.958 119.792 247.958 120.932C247.958 121.832 247.988 122.472 248.048 122.852C248.128 123.232 248.168 123.472 248.168 123.572C248.168 123.692 248.148 123.772 248.108 123.812C248.068 123.852 247.978 123.892 247.838 123.932C245.258 124.492 242.938 124.772 240.878 124.772ZM255.771 116.702H264.411L264.621 117.542H255.321L255.771 116.702ZM271.701 124.052C271.801 124.052 271.851 124.112 271.851 124.232C271.851 124.352 271.801 124.412 271.701 124.412C271.301 124.412 270.681 124.392 269.841 124.352C268.961 124.312 268.331 124.292 267.951 124.292C267.451 124.292 266.841 124.312 266.121 124.352C265.441 124.392 264.901 124.412 264.501 124.412C264.421 124.412 264.381 124.352 264.381 124.232C264.381 124.112 264.421 124.052 264.501 124.052C265.021 124.052 265.391 124.002 265.611 123.902C265.851 123.782 265.971 123.582 265.971 123.302C265.971 122.962 265.771 122.392 265.371 121.592L259.281 109.562L260.751 106.982L254.781 120.152C254.521 120.732 254.391 121.272 254.391 121.772C254.391 122.492 254.641 123.052 255.141 123.452C255.661 123.852 256.351 124.052 257.211 124.052C257.311 124.052 257.361 124.112 257.361 124.232C257.361 124.352 257.311 124.412 257.211 124.412C256.851 124.412 256.331 124.392 255.651 124.352C254.891 124.312 254.231 124.292 253.671 124.292C253.131 124.292 252.481 124.312 251.721 124.352C251.041 124.392 250.491 124.412 250.071 124.412C249.991 124.412 249.951 124.352 249.951 124.232C249.951 124.112 249.991 124.052 250.071 124.052C250.631 124.052 251.101 123.942 251.481 123.722C251.861 123.482 252.241 123.072 252.621 122.492C253.001 121.892 253.451 121.012 253.971 119.852L260.481 105.542C260.521 105.482 260.611 105.452 260.751 105.452C260.911 105.452 261.001 105.482 261.021 105.542L268.521 120.302C269.221 121.722 269.801 122.702 270.261 123.242C270.721 123.782 271.201 124.052 271.701 124.052Z" fill="#111111"/>
<path d="M155.115 136.882C152.659 139.346 149.04 142.033 146.151 143.813C145.245 144.374 145.537 143.847 144.905 144.218C143.668 144.938 142.626 145.773 141.362 146.415C140.943 146.625 141.216 145.963 140.783 146.19C138.413 147.431 136.262 148.763 133.796 149.904C129.563 151.851 125.198 153.515 120.581 154.607C112.304 156.538 103.873 157.753 95.2333 158.076C90.8571 158.249 85.5516 157.841 81.0432 157.68C80.516 157.663 80.8028 158.053 80.7005 158.076C79.0892 158.42 79.671 157.717 78.6569 157.529C74.6304 156.777 70.1761 156.069 66.3095 155.381C64.665 155.084 66.1423 156.163 64.5867 155.39C64.4792 155.336 64.9799 155.05 64.5435 154.906C63.5535 154.585 61.6302 154.165 60.8633 153.917C59.3867 153.442 59.1404 153.373 57.7406 152.937C55.8276 152.333 53.6435 151.367 51.6126 150.662C51.6114 150.662 51.6103 150.661 51.6091 150.661C51.1806 150.516 51.5933 151.108 50.8919 150.904C50.2016 150.708 48.4193 149.947 47.8631 149.609C47.3034 149.271 47.6777 149.086 47.6003 148.975C46.9761 148.056 44.5946 147.925 44.329 147.821C39.395 145.961 35.5873 143.282 31.5741 140.359C28.5125 138.14 25.3837 135.609 22.8264 133.169C22.0109 132.391 21.2638 131.643 20.5254 130.886C18.4356 128.738 16.6975 126.543 14.8659 124.08C14.6039 123.724 14.5254 124.422 14.2042 123.984C10.8018 119.318 8.22372 114.156 6.49771 108.757C6.32644 108.216 6.97215 108.75 6.826 108.203C5.87728 104.843 5.23313 99.4807 3.05088 97.8752C2.78011 96.5144 2.50912 94.9753 2.35536 93.5037C2.24763 92.4801 2.18424 91.5529 2.18088 90.6893C2.18373 89.3792 2.84673 90.5202 2.37441 88.9786C2.2662 88.6185 1.96212 89.1609 1.8311 88.6255C1.30354 86.3957 0.885947 83.8528 0.629588 81.3357C0.576506 80.838 0.22684 80.9798 0.161108 80.8367C-0.367964 79.6269 0.562622 77.7872 0.636598 77.4005C1.13852 74.7464 1.11846 72.7446 1.15599 70.357C1.16148 70.0082 1.17273 69.6352 1.19063 69.2679C1.22588 68.5883 0.711116 69.3726 0.730449 68.7107C0.847636 65.2912 1.35918 61.8012 2.19483 58.5878C2.38305 57.8757 2.65051 58.6167 2.76107 58.2817C3.25114 56.8104 2.57854 56.3113 3.08605 54.8979C3.1935 54.6009 3.48825 54.8556 3.53883 54.8091C4.33066 54.0911 3.71305 53.1339 3.7569 52.9029C4.29822 50.0138 5.72296 48.5144 6.66231 45.8706C6.77799 45.5523 6.07639 46.0898 6.4307 45.2021C7.27204 43.1257 8.30268 41.0495 9.6363 39.0937C11.978 35.6683 14.6032 32.3824 17.3504 29.4598C18.0099 28.7597 17.8203 29.4969 17.8904 29.4765C19.004 29.1408 18.7752 28.1105 18.9573 27.8531C20.4112 25.8374 22.5072 24.6677 22.972 22.7659C28.269 17.7857 33.8755 13.0429 40.3123 9.59893C43.1653 8.07847 46.1499 6.87385 49.1962 5.95457C49.3217 5.91584 49.2592 6.39166 49.5084 6.31312C52.5264 5.39546 51.726 5.01732 53.4537 3.568C53.895 3.20212 55.7254 3.62031 55.8783 3.64944C56.4477 3.74347 56.1238 4.49765 56.3031 4.49432C57.7697 4.45809 56.9513 2.54276 58.8313 2.01503C58.8907 2.00222 58.7453 2.43576 58.9124 2.42885C59.4313 2.40893 59.8751 2.135 60.388 2.13831C61.5623 2.15434 62.1706 3.02828 63.716 2.09686C63.9157 1.98077 63.3355 0.892389 65.0661 0.612517C65.7508 0.486739 68.8048 -0.00600278 69.6855 0.00035131C70.5646 -0.0138521 70.0029 0.422514 70.0677 0.432042C72.4235 0.725161 71.565 1.01393 72.7305 1.69035C73.592 2.21209 73.6027 1.37479 73.7621 0.830612C73.8141 0.649064 73.8803 0.501547 73.9965 0.451799C74.4625 0.251728 76.1345 0.666244 76.5418 0.815474C76.9509 0.962695 76.4366 1.19664 76.8001 1.2815C79.1975 1.84664 77.8723 0.428642 78.6776 0.166314C80.5866 -0.445387 82.0101 0.916891 83.7111 1.14864C84.1733 1.21231 83.8131 0.892604 84.2291 0.891999C85.8797 0.899401 86.8266 1.38213 88.7265 1.20905C89.0335 1.17914 90.6453 0.578168 91.5468 1.28547C91.673 1.3868 91.2378 1.65199 91.9228 1.82243C92.9456 2.07476 94.7916 2.455 95.9169 2.57211C96.7496 2.65783 95.9181 1.94302 96.9165 2.31895C97.3592 2.48904 96.4479 2.61289 97.2803 2.90778C98.1081 3.19366 100.265 3.72142 101.079 3.9575C101.892 4.1844 101.565 3.6671 101.638 3.65978C102.082 3.62129 103.71 3.94781 103.846 4.00263C104.788 4.32268 105.707 4.68249 106.6 5.0807C112.267 7.54286 117.068 10.9971 122.198 14.1393C122.668 14.4231 122.593 13.8662 122.667 13.9058C124.34 14.7755 122.478 14.9223 123.373 15.9538C123.559 15.4644 123.825 15.4527 124.261 15.6612C124.558 15.803 124.945 16.0612 125.417 16.3382C125.979 16.6709 125.878 16.1933 125.947 16.1992C127.034 16.3372 127.189 17.2782 127.242 17.4856C127.45 18.2585 128.349 18.2161 128.484 18.7459C128.612 19.2685 127.546 19.0384 128.536 19.825C129.01 19.8105 128.781 18.5796 129.62 19.0934C132.851 21.0013 137.31 26.3534 139.068 28.7281C140.878 31.0724 141.446 31.8511 142.285 33.3842C143.625 36.0742 143.622 35.03 144.584 36.4347C144.627 36.5019 144.672 36.5748 144.719 36.6541C145.714 38.3544 143.98 38.0311 143.792 38.409C143.598 38.7783 144.011 38.9284 143.972 39.302C143.932 39.6734 143.467 39.09 143.692 39.8342C143.909 40.5477 145.219 42.3999 145.619 42.5312C146.483 42.8403 146.842 41.6561 147.315 43.7246C147.342 43.8446 146.842 43.6036 146.962 44.0559C147.904 47.5802 149.029 51.229 149.674 54.8258C149.76 55.3143 149.232 54.9927 149.277 55.2769C149.73 58.2931 150.172 57.0481 151.328 58.5155C150.189 58.3717 149.766 59.4213 150.166 61.6472C150.401 63.0055 150.821 62.69 151.289 63.5115C151.43 63.761 151.252 64.7875 151.494 64.9296C152.285 65.4171 152.986 64.3734 152.948 66.8144C152.944 66.9213 152.513 66.6299 152.529 66.9956C152.605 69.3285 153.389 69.5577 153.596 72.1246C153.762 74.1345 153.246 77.7042 152.973 79.9604C151.773 79.8259 151.864 81.9377 152.577 82.9094C152.366 84.3673 152.166 85.9473 151.79 87.3269C151.661 87.8005 151.375 87.419 151.327 87.4727C150.568 88.2788 151.231 89.0595 151.196 89.3789C150.767 92.8093 149.413 95.3293 149.01 98.6185C148.995 98.7345 149.742 99.172 148.887 99.8157C148.829 99.8557 148.799 98.713 148.294 100.163C147.791 101.614 146.42 104.188 146.069 106.317C145.987 106.827 146.187 108.289 145.332 109.081C145.217 109.187 145.041 108.962 144.847 109.105C144.224 109.568 144.904 110.193 143.966 110.659C143.572 110.856 143.159 111.201 142.793 111.7C142.295 112.369 141.868 113.286 141.606 114.512C141.59 114.579 141.986 115.323 141.663 115.922C141.153 116.876 140.262 118.118 139.65 119.057C139.356 119.508 139.895 119.451 139.85 119.534C138.004 122.688 136.017 124.471 133.181 127.091C132.664 127.571 131.562 129.399 130.213 129.958C128.741 130.551 128.612 128.029 126.296 130.508C125.368 131.478 125.466 134.671 122.609 134.942C118.728 137.891 114.446 139.401 110.173 141.711C109.982 141.814 109.616 142.752 109.124 142.934C108.4 143.2 107.887 143.027 107.363 143.195C105.176 143.879 103.253 144.775 101.081 145.257C100.444 145.397 100.424 145.18 100 145.168C99.8801 145.163 99.7252 145.174 99.5032 145.217C98.5085 145.404 97.9625 145.982 96.5688 145.991C95.543 145.989 94.374 145.209 93.0439 145.274C93.1135 146.206 92.1936 146.317 90.5718 146.742C90.2606 146.823 90.6348 147.11 90.4891 147.166C89.8915 147.398 89.2993 147.186 88.7344 147.421C88.5963 147.477 88.6182 147.796 88.5061 147.86C87.5558 148.42 85.864 147.818 85.5807 147.708C84.4792 147.3 84.0059 147.737 83.174 147.583C82.3482 147.427 83.5621 147.149 82.6045 147.069C80.6231 146.904 78.0946 146.953 76.0996 146.826C75.3085 146.777 75.8229 147.233 75.7092 147.236C74.0302 147.248 72.4433 146.605 71.3983 147.299C70.6187 144.933 70.3636 147.406 68.1014 146.373C67.9236 146.285 67.9977 145.232 68.7067 145.268C69.3944 145.297 70.355 145.838 71.3641 145.757C71.5939 145.745 73.027 144.958 73.1917 144.912C74.6034 144.604 74.6668 146.147 74.7387 146.242C75.533 147.233 77.229 146.259 77.6453 146.194C79.6046 145.918 81.2682 146.111 82.8972 145.816C83.9632 145.621 84.0163 144.6 84.8468 144.585C87.6054 144.517 88.7254 145.836 91.2072 144.323C91.741 143.993 91.0389 142.972 93.1412 143.576C93.2659 143.617 94.8532 144.201 95.6367 143.56C95.7327 143.48 95.6777 143.161 95.8114 143.111C96.7113 142.784 97.3907 142.926 98.3515 142.61C98.6793 142.502 99.0289 142.381 99.359 142.265C100.053 142.027 100.819 141.779 101.572 141.651C102.26 141.535 103.281 141.859 103.653 141.898C104.695 142.023 105.452 141.029 106.173 141.318C106.917 141.599 106.055 142.751 107.686 142.509C107.449 141.7 107.273 140.845 107.06 140.022C110.244 138.848 113.427 137.66 116.428 135.958C116.797 135.746 116.198 135.563 116.586 135.326C118.22 134.323 119.821 133.724 121.411 132.512C122.64 131.572 123.729 130.204 124.908 129.138C126.273 129.309 127.926 127.541 129.244 126.444C129.709 126.058 129.854 126.273 130.226 126.039C131.614 125.139 130.471 125.053 130.693 124.65C131.604 122.92 133.117 124.141 134.583 122.388C134.667 122.296 134.802 120.52 134.861 120.332C135.298 119.093 135.272 120.391 135.81 119.811C136.775 118.75 137.565 118.046 138.176 116.461C138.359 115.988 138.365 114.692 139.216 114.086C139.328 114.006 139.602 114.217 139.664 114.137C140.748 112.641 139.765 112.155 139.788 111.116C139.79 110.961 139.816 110.804 139.861 110.648C140.168 109.612 141.131 108.597 141.403 108.374C142.231 107.697 141.384 109.117 141.419 109.179C141.823 109.944 142.146 108.725 142.522 107.844C143.551 108.07 143.947 106.789 142.907 106.93C142.793 106.949 142.633 107.68 142.522 107.844C141.843 106.709 142.218 105.287 143.661 104.083C144.335 103.52 144.596 104.371 145.171 102.135C145.427 101.124 144.617 101.269 144.725 100.341C144.97 98.2252 146.421 95.8616 146.889 93.7744C147.058 93.0201 146.479 93.6395 146.58 93.1221C146.842 91.7515 147.427 90.6334 147.585 89.2402C147.598 89.1146 147.13 89.3237 147.217 88.903C147.863 85.7139 148.568 82.9596 148.845 79.5807C148.99 77.9471 148.847 75.0322 148.841 73.3305C148.873 70.4088 149.111 66.7152 148.572 64.2134C148.226 62.6003 147.87 63.0261 147.474 62.3764C146.713 61.1398 147.159 58.5729 147.23 58.2287C147.234 58.216 147.633 59.5848 147.677 58.795C148.014 58.2715 147.235 58.2431 147.23 58.2287C147.29 58.0037 146.699 55.1851 146.466 54.6616C146.345 54.3723 146.012 54.6414 145.956 54.489C144.624 50.8894 143.338 47.292 142.143 43.5682C142.126 43.5013 142.571 43.4452 142.527 43.2893C141.906 41.095 140.905 39.9943 139.894 38.3808C139.883 38.3649 139.872 38.349 139.861 38.3329C138.98 37.073 138.383 35.9244 138.447 34.6518C137.66 33.6127 136.753 31.8813 136.178 30.8832C135.607 29.8838 134.852 30.3262 134.777 30.2627C132.338 28.3196 131.429 26.7189 129.079 24.4837C127.969 23.4193 125.534 21.5768 124.153 20.7038C123.255 20.1251 122.741 19.6213 121.998 19.1723C121.826 19.068 121.645 18.966 121.451 18.8666C121.298 18.7883 121.238 19.1998 121.186 19.1838C119.746 18.7921 120.822 18.3856 120.665 18.0873C120.1 17.0066 119.726 16.379 118.059 15.6452C117.673 15.4744 115.949 15.9564 115.284 15.637C114.418 15.2186 114.975 14.9985 114.061 14.5817C113.983 14.5464 113.847 14.8064 113.329 14.4849C110.929 12.996 108.297 11.4661 105.563 10.3035C105.19 10.1434 105.479 10.7792 104.938 10.5567C104.751 10.48 104.56 10.4019 104.365 10.3223C102.17 9.42585 99.6717 8.62455 97.3824 7.87222C96.7735 7.67142 97.2374 7.44491 97.124 7.31841C96.4139 6.5466 95.0287 7.1392 94.8313 7.11924C90.0421 6.63358 86.3747 5.50288 81.3098 5.62431C81.0315 5.62979 78.8995 6.46875 77.9732 5.6698C77.9121 5.61607 76.9855 4.79474 76.1474 5.33859C76.0961 5.37285 76.6752 5.78975 75.6589 5.74158C75.1546 5.71854 74.4986 5.77537 73.7976 5.78855C73.1652 5.80092 72.4643 5.78706 71.7976 5.60319C71.3863 5.48775 70.3135 4.76674 69.1343 5.56743C69.0462 5.61636 67.3689 7.32696 66.5117 6.48105C66.3706 6.34331 66.2955 5.26998 64.8894 6.10748C64.6236 6.27053 65.1923 6.39005 64.4678 6.6947C63.3669 7.1623 61.768 7.25921 60.484 8.10141C60.2573 8.24895 59.4223 9.22687 58.4386 8.95923C58.2836 8.91751 58.4293 8.50453 57.9771 8.60177C55.8229 9.06617 53.7275 10.0463 51.5675 10.6335C50.8023 10.8445 50.9684 10.1643 50.1406 10.3357C49.3141 10.5048 47.7193 11.0345 47.0423 11.6372C46.3735 12.2354 47.5944 12.6624 46.4848 13.2699C45.4249 13.8569 44.3742 14.4302 43.355 15.005C39.6635 17.0875 35.9705 19.2908 32.6073 22.047C31.9705 22.5732 32.6988 22.3736 31.7862 23.1724C28.3699 26.0806 23.307 31.9752 20.3477 34.6598C17.9425 36.8002 20.0949 33.402 18.4087 35.1774C17.595 36.043 17.6742 37.7002 17.5347 37.9451C16.5112 39.7498 15.4415 40.9379 14.4368 42.3261C14.1392 42.7339 13.8543 43.183 13.5983 43.6959C13.3942 44.1106 13.9894 43.9308 13.815 44.2802C13.2266 45.4761 12.4347 46.7067 11.9515 47.9614C11.7374 48.5249 12.0817 48.5454 11.8565 49.0493C11.324 50.2655 10.8091 51.3431 10.1237 52.522C10.0611 52.631 9.91512 51.7241 9.60219 52.6915C9.10116 54.2551 8.28621 56.1844 8.18959 58.1257C8.16382 58.7021 8.88502 58.8688 8.14873 59.9607C7.99773 60.1907 7.16729 59.7076 7.68274 61.2463C7.76032 61.5117 8.42505 63.9966 7.63261 65.0565C7.42046 65.3344 6.60321 66.0357 6.65565 66.7298C6.66577 66.8223 7.09766 66.4958 7.08665 67.0537C7.06223 68.1942 7.00853 69.3553 7.00588 70.5013C7.0012 71.4498 6.99927 72.3511 7.02413 73.269C7.04035 73.8528 7.48188 73.0058 7.49288 73.8619C7.53466 76.2124 7.25397 79.3089 7.16452 81.1774C7.13916 81.8619 6.77967 81.4053 6.7436 81.4549C6.16993 82.2993 7.05297 82.7218 7.13163 82.9835C7.6416 84.6895 7.5688 86.3262 7.99705 88.1641C8.11355 88.6594 8.43514 88.2355 8.48742 88.3291C9.01511 89.3385 8.18221 88.6773 8.22382 89.3484C8.29077 90.3601 8.41866 91.3439 8.59349 92.4071C8.74368 93.3273 8.94309 94.2469 9.15174 95.1127C9.31118 95.7661 9.59591 94.9328 9.73486 95.5181C10.5686 98.9711 11.5594 102.512 12.5351 105.834C12.7189 106.46 12.2483 106.201 12.2215 106.356C12.0314 107.44 13.2655 108.436 13.455 108.691C14.3216 109.875 14.2692 110.501 14.8656 111.615C17.5289 116.631 21.2492 122.365 25.0909 126.212C25.4369 126.564 25.7652 126.897 26.0933 127.226C31.668 132.798 36.0005 136.751 42.4896 140.093C42.9029 140.305 42.705 139.676 43.0637 139.852C46.5657 141.583 50.1753 143.209 53.9561 144.679C55.1008 145.124 56.2619 145.535 57.4422 145.906C57.8483 146.033 57.4109 145.419 58.0653 145.608C59.4082 145.991 61.0881 146.531 62.4142 147.044C63.062 147.293 62.0665 147.411 62.7235 147.655C64.2556 148.22 65.9514 148.666 67.6056 148.947C68.309 149.065 67.3526 148.402 68.2569 148.587C74.4277 149.821 80.5832 150.401 86.9852 151.109C87.4232 151.157 87.8 152.081 88.746 151.909C88.8177 151.655 88.8144 151.356 88.8458 151.084C98.088 150.951 107.299 150.158 116.401 148.068C116.784 147.98 116.013 147.664 116.751 147.49C117.384 147.339 118.011 147.181 118.634 147.019C121.987 146.136 125.271 144.831 128.832 143.598C129.248 143.45 129.414 144.326 130.528 143.629C130.725 143.511 132.418 142.505 132.772 142.094C132.818 142.037 132.316 141.857 132.862 141.545C136.037 139.736 139.328 137.746 142.43 135.779C142.93 135.462 142.674 136.177 143.033 135.952C145.595 134.346 147.903 132.021 150.22 130.352C151.768 129.224 151.779 130.227 153.016 130.009C153.198 129.973 154.034 129.118 154.387 129.35C155.278 129.944 155.705 131.183 156.701 131.767C156.924 131.892 157.894 130.427 157.64 131.584C157.625 131.665 156.897 132.734 156.82 133.095C156.765 133.35 157.351 133.359 157.161 133.808C156.969 134.257 156.371 134.354 155.981 135.023C155.595 135.685 156.165 135.826 155.115 136.882ZM133.382 26.4588C132.913 25.4061 131.751 26.3612 132.813 26.9204C132.865 26.9464 133.406 26.5123 133.382 26.4588ZM113.877 138.609C115.438 138.572 115.845 137.249 114.731 137.258C113.628 137.256 113.406 138.616 113.877 138.609ZM100.338 144.084C102.082 144.197 101.775 142.083 100.207 142.911C100.116 142.958 100.238 144.077 100.338 144.084ZM149.648 133.471C149.675 133.476 150.343 132.908 150.343 132.879C150.371 132.218 149.047 133.346 149.648 133.471ZM85.895 146.594C86.4329 146.849 87.9154 146.399 87.2383 146.095C86.6958 145.853 85.2257 146.281 85.895 146.594ZM83.7119 1.88008C83.6959 1.85635 83.061 1.79836 83.0668 1.92525C83.0867 2.33197 83.9752 2.27183 83.7119 1.88008ZM62.7443 141.969C63.4047 143.455 64.5494 144.561 64.7922 145.198C65.0993 145.78 64.4117 146.149 62.6452 144.53C62.3481 144.214 62.7752 144.454 63.1983 144.602C63.6084 144.739 64.0006 144.805 63.6565 144.451C62.5512 143.254 60.7151 142.408 61.2235 140.251C61.2799 140.066 61.5488 140.609 61.9081 141.052C62.2629 141.53 62.7092 141.887 62.749 141.974C62.7474 141.972 62.7458 141.971 62.7443 141.969ZM134.216 24.7492C134.215 24.7187 133.599 24.0849 133.569 24.085C132.899 24.0917 134.132 25.3594 134.216 24.7492ZM47.1467 7.2475C47.0802 7.22343 45.1729 8.03265 45.1334 8.10116C44.4851 9.2422 48.297 7.62267 47.1467 7.2475ZM152.938 79.9933C153.338 81.0158 153.271 82.1951 152.579 82.905C152.729 81.9362 152.831 80.9746 152.938 79.9933Z" fill="#201F1E"/>
<path d="M124.689 127.53C127.155 126.228 130.698 125.044 133.472 126.109L131.528 128.713C128.919 129.068 128.325 127.902 125.228 132.368C122.371 126.38 120.68 121.824 119.425 117.728C109.532 125.007 92.112 132.798 76.1586 130.303C60.1486 127.8 39.5565 136.487 28.1393 133.938C28.0793 133.978 27.0365 133.306 22.625 130.303C23.5119 130.15 24.6226 129.462 28.1393 125.082C29.9902 123.296 34.7803 127.33 38.7713 125.774C48.5463 118.968 59.5466 118.57 67.6443 118.968C75.7419 119.366 84.9582 114.853 88.5247 112.174C95.5812 106.872 102.265 108.4 105.95 106.625C109.635 104.851 110.11 100.477 108.531 94.8232C107.069 91.3037 108.643 79.494 111.972 73.9124L109.635 68.4308C108.53 65.6685 104.458 65.8211 100.593 65.9659L100.42 65.9723C100.536 66.0897 100.559 66.1654 100.525 66.2196C104.101 75.0105 83.1654 67.9197 98.7836 63.9022C93.5612 60.5976 94.6762 56.3149 97.5503 52.3722C100.432 48.419 105.083 49.0717 107.571 50.6198C110.059 52.1678 112.426 49.7825 113.593 52.0547C114.76 54.3269 115.143 52.3131 115.934 53.7926C115.934 53.7926 115.844 55.0179 116.704 54.8517C117.564 54.6856 118.662 55.2329 118.061 56.8549C117.459 58.4768 115.689 60.0932 115.808 61.521C115.885 62.4392 117.745 65.4484 120.741 69.2964C126.907 79.2204 134.827 77.0776 133.472 88.3508C132.644 95.2323 127.632 104.63 123.853 110.908C123.99 116.527 124.201 122.2 124.689 127.53Z" fill="#FFFDFD"/>
<path d="M124.689 127.53C127.155 126.228 130.698 125.044 133.472 126.109L131.528 128.713C128.919 129.068 128.325 127.902 125.228 132.368M124.689 127.53C124.84 129.179 125.018 130.796 125.228 132.368M124.689 127.53C122.645 105.217 125.46 76.8716 118.194 71.7698C115.669 69.9964 113.565 71.2411 111.972 73.9124M125.228 132.368C119.288 119.918 118.387 113.656 115.973 104.851M115.973 104.851C114.337 98.8843 115.387 93.4854 114.95 90.5927C114.706 88.9739 119.792 97.0275 115.973 104.851ZM115.973 104.851C111.48 114.054 105.267 118.552 96.4136 118.552M98.8256 63.9286C93.5553 60.6204 94.6686 56.3254 97.5503 52.3722C100.432 48.419 105.083 49.0717 107.571 50.6198C110.059 52.1678 112.426 49.7825 113.593 52.0547C114.76 54.3269 115.143 52.3131 115.934 53.7926C115.934 53.7926 115.844 55.0179 116.704 54.8517C117.564 54.6856 118.662 55.2329 118.061 56.8549C117.459 58.4768 115.689 60.0932 115.808 61.521C115.885 62.4392 117.745 65.4484 120.741 69.2964C126.907 79.2204 134.828 77.0776 133.472 88.3508C132.116 99.624 119.53 117.65 119.53 117.65C109.655 124.952 92.1686 132.806 76.1586 130.303C60.1486 127.8 39.5565 136.487 28.1393 133.938C28.0793 133.978 27.0365 133.306 22.625 130.303C23.5119 130.15 24.6226 129.462 28.1393 125.082C29.9902 123.296 34.7803 127.33 38.7713 125.774C48.5463 118.968 59.5466 118.57 67.6443 118.968C75.7419 119.366 84.9582 114.853 88.5247 112.174C95.5812 106.872 102.265 108.4 105.95 106.625C109.635 104.851 110.11 100.477 108.531 94.8232C107.069 91.3037 108.643 79.494 111.972 73.9124M98.8256 63.9286C99.2828 64.2156 100.141 65.6987 100.42 65.9723M98.8256 63.9286C100.869 68.5312 98.981 69.716 97.0342 69.1765C94.8989 68.5847 96.2841 69.2126 100.42 65.9723M100.42 65.9723C97.3626 64.3068 94.5541 66.2649 94.9594 67.5086C95.7709 68.1587 97.7313 67.0851 98.2132 67.5086C98.6951 67.9321 99.1971 67.1736 99.5017 66.9466C99.5062 66.162 100.958 66.5177 100.42 65.9723ZM100.42 65.9723C104.336 65.8263 108.514 65.6272 109.635 68.4308L111.972 73.9124M100.42 65.9723C104.491 75.1415 83.0214 67.9567 98.7836 63.9022" stroke="#201F1E" stroke-width="3"/>
</svg>
