<svg width="147" height="82" viewBox="0 0 147 82" fill="none" xmlns="http://www.w3.org/2000/svg">
<path d="M101.728 25.4798C101.728 26.3438 101.653 27.0371 101.504 27.5598C101.365 28.0931 101.13 28.5251 100.8 28.8558C100.469 29.1864 99.9944 29.4851 99.3757 29.7518L99.3597 29.7678C99.3384 29.7678 99.3117 29.7411 99.2797 29.6878C99.2584 29.6344 99.2584 29.6024 99.2797 29.5918C99.8024 29.2931 100.165 28.8451 100.368 28.2478C100.581 27.6611 100.688 26.8824 100.688 25.9118V17.8478C100.688 17.5278 100.65 17.2931 100.576 17.1438C100.512 16.9944 100.384 16.8931 100.192 16.8398C99.9997 16.7758 99.701 16.7438 99.2957 16.7438C99.2744 16.7438 99.2637 16.7118 99.2637 16.6478C99.2637 16.5838 99.2744 16.5518 99.2957 16.5518L100.128 16.5678C100.576 16.5891 100.928 16.5998 101.184 16.5998C101.461 16.5998 101.802 16.5891 102.208 16.5678L102.912 16.5518C102.933 16.5518 102.944 16.5838 102.944 16.6478C102.944 16.7118 102.933 16.7438 102.912 16.7438C102.56 16.7438 102.304 16.7758 102.144 16.8398C101.984 16.9038 101.872 17.0158 101.808 17.1758C101.754 17.3251 101.728 17.5598 101.728 17.8798V25.4798ZM113.237 18.3118C113.237 17.2664 112.773 16.7438 111.845 16.7438C111.813 16.7438 111.797 16.7118 111.797 16.6478C111.797 16.5838 111.813 16.5518 111.845 16.5518L112.533 16.5678C112.917 16.5891 113.221 16.5998 113.445 16.5998C113.626 16.5998 113.887 16.5891 114.229 16.5678L114.901 16.5518C114.922 16.5518 114.933 16.5838 114.933 16.6478C114.933 16.7118 114.922 16.7438 114.901 16.7438C114.047 16.7438 113.621 17.2664 113.621 18.3118V22.8558C113.621 24.0824 113.279 25.0424 112.597 25.7358C111.914 26.4184 110.997 26.7598 109.845 26.7598C109.055 26.7598 108.362 26.6051 107.765 26.2958C107.178 25.9864 106.719 25.5491 106.389 24.9838C106.069 24.4078 105.909 23.7358 105.909 22.9678V17.8478C105.909 17.5278 105.877 17.2931 105.813 17.1438C105.749 16.9944 105.621 16.8931 105.429 16.8398C105.247 16.7758 104.954 16.7438 104.549 16.7438C104.527 16.7438 104.517 16.7118 104.517 16.6478C104.517 16.5838 104.527 16.5518 104.549 16.5518L105.333 16.5678C105.781 16.5891 106.143 16.5998 106.421 16.5998C106.709 16.5998 107.087 16.5891 107.557 16.5678L108.293 16.5518C108.325 16.5518 108.341 16.5838 108.341 16.6478C108.341 16.7118 108.325 16.7438 108.293 16.7438C107.898 16.7438 107.605 16.7758 107.413 16.8398C107.231 16.9038 107.109 17.0158 107.045 17.1758C106.981 17.3251 106.949 17.5598 106.949 17.8798V22.4078C106.949 23.6664 107.231 24.6264 107.797 25.2878C108.362 25.9491 109.162 26.2798 110.197 26.2798C111.157 26.2798 111.903 25.9811 112.437 25.3838C112.97 24.7758 113.237 23.9384 113.237 22.8718V18.3118ZM118.697 25.1918C118.697 25.5011 118.729 25.7251 118.793 25.8638C118.857 26.0024 118.974 26.0984 119.145 26.1518C119.315 26.1944 119.593 26.2158 119.977 26.2158H121.721C122.329 26.2158 122.814 26.0291 123.177 25.6558C123.539 25.2824 123.779 24.7651 123.897 24.1038C123.897 24.0718 123.923 24.0611 123.977 24.0718C124.041 24.0718 124.073 24.0878 124.073 24.1198C123.977 25.0051 123.929 25.7358 123.929 26.3118C123.929 26.3971 123.913 26.4611 123.881 26.5038C123.849 26.5358 123.785 26.5518 123.689 26.5518H116.297C116.275 26.5518 116.265 26.5198 116.265 26.4558C116.265 26.3918 116.275 26.3598 116.297 26.3598C116.702 26.3598 116.995 26.3331 117.177 26.2798C117.369 26.2264 117.497 26.1251 117.561 25.9758C117.625 25.8158 117.657 25.5758 117.657 25.2558V17.8478C117.657 17.5278 117.625 17.2931 117.561 17.1438C117.497 16.9944 117.369 16.8931 117.177 16.8398C116.995 16.7758 116.702 16.7438 116.297 16.7438C116.275 16.7438 116.265 16.7118 116.265 16.6478C116.265 16.5838 116.275 16.5518 116.297 16.5518L117.081 16.5678C117.529 16.5891 117.891 16.5998 118.169 16.5998C118.467 16.5998 118.841 16.5891 119.289 16.5678L120.057 16.5518C120.089 16.5518 120.105 16.5838 120.105 16.6478C120.105 16.7118 120.089 16.7438 120.057 16.7438C119.662 16.7438 119.369 16.7758 119.177 16.8398C118.985 16.8931 118.857 16.9998 118.793 17.1598C118.729 17.3091 118.697 17.5438 118.697 17.8638V25.1918ZM127.932 25.2558C127.932 25.5864 127.964 25.8264 128.028 25.9758C128.092 26.1251 128.214 26.2264 128.396 26.2798C128.588 26.3331 128.886 26.3598 129.292 26.3598C129.324 26.3598 129.34 26.3918 129.34 26.4558C129.34 26.5198 129.324 26.5518 129.292 26.5518C128.972 26.5518 128.716 26.5464 128.524 26.5358L127.388 26.5198L126.284 26.5358C126.092 26.5464 125.83 26.5518 125.5 26.5518C125.468 26.5518 125.452 26.5198 125.452 26.4558C125.452 26.3918 125.468 26.3598 125.5 26.3598C125.905 26.3598 126.198 26.3331 126.38 26.2798C126.572 26.2264 126.7 26.1251 126.764 25.9758C126.838 25.8158 126.876 25.5758 126.876 25.2558V17.8478C126.876 17.5278 126.838 17.2931 126.764 17.1438C126.7 16.9944 126.572 16.8931 126.38 16.8398C126.198 16.7758 125.905 16.7438 125.5 16.7438C125.468 16.7438 125.452 16.7118 125.452 16.6478C125.452 16.5838 125.468 16.5518 125.5 16.5518L126.284 16.5678C126.732 16.5891 127.1 16.5998 127.388 16.5998C127.708 16.5998 128.092 16.5891 128.54 16.5678L129.292 16.5518C129.324 16.5518 129.34 16.5838 129.34 16.6478C129.34 16.7118 129.324 16.7438 129.292 16.7438C128.897 16.7438 128.604 16.7758 128.412 16.8398C128.22 16.9038 128.092 17.0158 128.028 17.1758C127.964 17.3251 127.932 17.5598 127.932 17.8798V25.2558ZM131.228 26.5518C131.207 26.5518 131.196 26.5198 131.196 26.4558C131.196 26.3918 131.207 26.3598 131.228 26.3598C131.634 26.3598 131.927 26.3331 132.108 26.2798C132.3 26.2264 132.428 26.1251 132.492 25.9758C132.567 25.8158 132.604 25.5758 132.604 25.2558V17.8478C132.604 17.5278 132.567 17.2931 132.492 17.1438C132.428 16.9944 132.3 16.8931 132.108 16.8398C131.927 16.7758 131.634 16.7438 131.228 16.7438C131.207 16.7438 131.196 16.7118 131.196 16.6478C131.196 16.5838 131.207 16.5518 131.228 16.5518H137.66C137.756 16.5518 137.804 16.5998 137.804 16.6958L137.836 18.6638C137.836 18.6958 137.804 18.7171 137.74 18.7278C137.687 18.7278 137.66 18.7118 137.66 18.6798C137.628 18.1144 137.458 17.6771 137.148 17.3678C136.839 17.0478 136.428 16.8878 135.916 16.8878H134.94C134.567 16.8878 134.29 16.9198 134.108 16.9838C133.927 17.0371 133.799 17.1331 133.724 17.2718C133.66 17.4104 133.628 17.6291 133.628 17.9278V25.1918C133.628 25.4798 133.66 25.6984 133.724 25.8478C133.799 25.9864 133.922 26.0824 134.092 26.1358C134.263 26.1891 134.53 26.2158 134.892 26.2158H136.172C136.684 26.2158 137.111 26.0344 137.452 25.6718C137.794 25.3091 138.023 24.8078 138.14 24.1678C138.14 24.1464 138.162 24.1358 138.204 24.1358C138.236 24.1358 138.263 24.1464 138.284 24.1678C138.316 24.1784 138.332 24.1891 138.332 24.1998C138.236 24.8718 138.188 25.5758 138.188 26.3118C138.188 26.3971 138.167 26.4611 138.124 26.5038C138.092 26.5358 138.028 26.5518 137.932 26.5518H131.228ZM137.036 22.8238C137.036 22.3544 136.919 22.0184 136.684 21.8158C136.46 21.6131 136.082 21.5118 135.548 21.5118H133.148V21.1758H135.596C136.108 21.1758 136.471 21.0904 136.684 20.9198C136.908 20.7491 137.02 20.4611 137.02 20.0558C137.02 20.0344 137.052 20.0238 137.116 20.0238C137.18 20.0238 137.212 20.0344 137.212 20.0558L137.196 21.3518C137.196 21.6611 137.202 21.8958 137.212 22.0558L137.228 22.8238C137.228 22.8451 137.196 22.8558 137.132 22.8558C137.068 22.8558 137.036 22.8451 137.036 22.8238ZM99.5551 44.1918C99.5551 44.5331 99.5978 44.7838 99.6831 44.9438C99.7791 45.0931 99.9551 45.1998 100.211 45.2638C100.478 45.3278 100.894 45.3598 101.459 45.3598C101.491 45.3598 101.507 45.3918 101.507 45.4558C101.507 45.5198 101.491 45.5518 101.459 45.5518C101.022 45.5518 100.68 45.5464 100.435 45.5358L99.0431 45.5198L97.9711 45.5358C97.7685 45.5464 97.4965 45.5518 97.1551 45.5518C97.1338 45.5518 97.1231 45.5198 97.1231 45.4558C97.1231 45.3918 97.1338 45.3598 97.1551 45.3598C97.5605 45.3598 97.8538 45.3331 98.0351 45.2798C98.2271 45.2264 98.3551 45.1251 98.4191 44.9758C98.4831 44.8158 98.5151 44.5758 98.5151 44.2558V36.8478C98.5151 36.5278 98.4831 36.2931 98.4191 36.1438C98.3551 35.9944 98.2271 35.8931 98.0351 35.8398C97.8538 35.7758 97.5605 35.7438 97.1551 35.7438C97.1338 35.7438 97.1231 35.7118 97.1231 35.6478C97.1231 35.5838 97.1338 35.5518 97.1551 35.5518L97.9551 35.5678C98.4031 35.5891 98.7605 35.5998 99.0271 35.5998C99.2938 35.5998 99.5925 35.5838 99.9231 35.5518C100.051 35.5518 100.254 35.5464 100.531 35.5358C100.808 35.5144 101.048 35.5038 101.251 35.5038C102.232 35.5038 103.016 35.7224 103.603 36.1598C104.2 36.5971 104.499 37.2638 104.499 38.1598C104.499 38.8638 104.323 39.4558 103.971 39.9358C103.63 40.4158 103.187 40.7731 102.643 41.0078C102.099 41.2424 101.539 41.3598 100.963 41.3598C100.654 41.3598 100.398 41.3331 100.195 41.2798C100.163 41.2798 100.147 41.2531 100.147 41.1998C100.147 41.1678 100.152 41.1358 100.163 41.1038C100.184 41.0718 100.206 41.0611 100.227 41.0718C100.398 41.1144 100.59 41.1358 100.803 41.1358C101.507 41.1358 102.099 40.9064 102.579 40.4478C103.07 39.9891 103.315 39.3278 103.315 38.4638C103.315 37.6211 103.086 36.9598 102.627 36.4798C102.168 35.9891 101.582 35.7438 100.867 35.7438C100.483 35.7438 100.206 35.7651 100.035 35.8078C99.8645 35.8504 99.7418 35.9518 99.6671 36.1118C99.5925 36.2611 99.5551 36.5171 99.5551 36.8798V44.1918ZM114.787 36.8798C114.787 36.5598 114.749 36.3251 114.675 36.1758C114.611 36.0158 114.483 35.9038 114.291 35.8398C114.099 35.7758 113.795 35.7438 113.379 35.7438C113.347 35.7438 113.331 35.7118 113.331 35.6478C113.331 35.5838 113.347 35.5518 113.379 35.5518L114.147 35.5678C114.616 35.5891 115.005 35.5998 115.315 35.5998C115.603 35.5998 115.971 35.5891 116.419 35.5678L117.203 35.5518C117.235 35.5518 117.251 35.5838 117.251 35.6478C117.251 35.7118 117.235 35.7438 117.203 35.7438C116.797 35.7438 116.499 35.7758 116.307 35.8398C116.115 35.8931 115.981 35.9944 115.907 36.1438C115.843 36.2931 115.811 36.5278 115.811 36.8478V44.2558C115.811 44.5758 115.843 44.8158 115.907 44.9758C115.981 45.1251 116.115 45.2264 116.307 45.2798C116.499 45.3331 116.797 45.3598 117.203 45.3598C117.235 45.3598 117.251 45.3918 117.251 45.4558C117.251 45.5198 117.235 45.5518 117.203 45.5518C116.872 45.5518 116.611 45.5464 116.419 45.5358L115.315 45.5198L114.147 45.5358C113.955 45.5464 113.699 45.5518 113.379 45.5518C113.347 45.5518 113.331 45.5198 113.331 45.4558C113.331 45.3918 113.347 45.3598 113.379 45.3598C113.795 45.3598 114.099 45.3331 114.291 45.2798C114.483 45.2264 114.611 45.1251 114.675 44.9758C114.749 44.8158 114.787 44.5758 114.787 44.2558V36.8798ZM108.083 40.1758H115.235V40.5118H108.083V40.1758ZM107.619 36.8478C107.619 36.5278 107.581 36.2931 107.507 36.1438C107.443 35.9944 107.315 35.8931 107.123 35.8398C106.931 35.7758 106.632 35.7438 106.227 35.7438C106.205 35.7438 106.195 35.7118 106.195 35.6478C106.195 35.5838 106.205 35.5518 106.227 35.5518L107.043 35.5678C107.491 35.5891 107.848 35.5998 108.115 35.5998C108.424 35.5998 108.813 35.5891 109.283 35.5678L110.051 35.5518C110.072 35.5518 110.083 35.5838 110.083 35.6478C110.083 35.7118 110.072 35.7438 110.051 35.7438C109.645 35.7438 109.341 35.7758 109.139 35.8398C108.947 35.9038 108.813 36.0158 108.739 36.1758C108.675 36.3251 108.643 36.5598 108.643 36.8798V44.2558C108.643 44.5758 108.675 44.8158 108.739 44.9758C108.813 45.1251 108.947 45.2264 109.139 45.2798C109.331 45.3331 109.635 45.3598 110.051 45.3598C110.072 45.3598 110.083 45.3918 110.083 45.4558C110.083 45.5198 110.072 45.5518 110.051 45.5518C109.72 45.5518 109.459 45.5464 109.267 45.5358L108.115 45.5198L107.011 45.5358C106.819 45.5464 106.552 45.5518 106.211 45.5518C106.189 45.5518 106.179 45.5198 106.179 45.4558C106.179 45.3918 106.189 45.3598 106.211 45.3598C106.616 45.3598 106.915 45.3331 107.107 45.2798C107.309 45.2264 107.443 45.1251 107.507 44.9758C107.581 44.8158 107.619 44.5758 107.619 44.2558V36.8478ZM121.535 40.8318H125.775L125.887 41.1518H121.375L121.535 40.8318ZM129.455 45.3598C129.498 45.3598 129.519 45.3918 129.519 45.4558C129.519 45.5198 129.498 45.5518 129.455 45.5518C129.253 45.5518 128.938 45.5411 128.511 45.5198C128.085 45.4984 127.775 45.4878 127.583 45.4878C127.349 45.4878 127.05 45.4984 126.687 45.5198C126.346 45.5411 126.085 45.5518 125.903 45.5518C125.861 45.5518 125.839 45.5198 125.839 45.4558C125.839 45.3918 125.861 45.3598 125.903 45.3598C126.309 45.3598 126.597 45.3224 126.767 45.2478C126.949 45.1731 127.039 45.0398 127.039 44.8478C127.039 44.6878 126.975 44.4638 126.847 44.1758L123.295 36.6718L123.695 36.1758L120.591 43.5198C120.442 43.8824 120.367 44.1811 120.367 44.4158C120.367 45.0451 120.89 45.3598 121.935 45.3598C121.989 45.3598 122.015 45.3918 122.015 45.4558C122.015 45.5198 121.989 45.5518 121.935 45.5518C121.743 45.5518 121.466 45.5411 121.103 45.5198C120.698 45.4984 120.346 45.4878 120.047 45.4878C119.77 45.4878 119.45 45.4984 119.087 45.5198C118.767 45.5411 118.501 45.5518 118.287 45.5518C118.234 45.5518 118.207 45.5198 118.207 45.4558C118.207 45.3918 118.234 45.3598 118.287 45.3598C118.586 45.3598 118.837 45.3064 119.039 45.1998C119.253 45.0824 119.45 44.8851 119.631 44.6078C119.823 44.3198 120.031 43.9091 120.255 43.3758L123.631 35.4078C123.653 35.3758 123.69 35.3598 123.743 35.3598C123.797 35.3598 123.829 35.3758 123.839 35.4078L127.615 43.3598C127.978 44.1491 128.287 44.6824 128.543 44.9598C128.799 45.2264 129.103 45.3598 129.455 45.3598ZM131.906 35.9198L132.274 35.9518V43.8078C132.274 44.3624 132.37 44.7624 132.562 45.0078C132.764 45.2424 133.084 45.3598 133.522 45.3598C133.554 45.3598 133.57 45.3918 133.57 45.4558C133.57 45.5198 133.554 45.5518 133.522 45.5518C133.255 45.5518 133.052 45.5464 132.914 45.5358L132.114 45.5198L131.298 45.5358C131.148 45.5464 130.93 45.5518 130.642 45.5518C130.62 45.5518 130.61 45.5198 130.61 45.4558C130.61 45.3918 130.62 45.3598 130.642 45.3598C131.1 45.3598 131.426 45.2424 131.618 45.0078C131.81 44.7624 131.906 44.3624 131.906 43.8078V35.9198ZM139.97 45.7438C139.97 45.7651 139.943 45.7811 139.89 45.7918C139.836 45.8024 139.799 45.7971 139.778 45.7758L132.418 36.8638C132.076 36.4478 131.762 36.1598 131.474 35.9998C131.196 35.8291 130.919 35.7438 130.642 35.7438C130.61 35.7438 130.594 35.7118 130.594 35.6478C130.594 35.5838 130.61 35.5518 130.642 35.5518L131.234 35.5678C131.362 35.5784 131.538 35.5838 131.762 35.5838C131.996 35.5838 132.188 35.5784 132.338 35.5678C132.487 35.5571 132.604 35.5518 132.69 35.5518C132.764 35.5518 132.823 35.5731 132.866 35.6158C132.919 35.6478 132.978 35.7224 133.042 35.8398C133.17 36.0318 133.303 36.2131 133.442 36.3838L139.842 44.2398L139.97 45.7438ZM139.97 45.7438L139.602 45.2478V37.3118C139.602 36.7571 139.506 36.3571 139.314 36.1118C139.132 35.8664 138.823 35.7438 138.386 35.7438C138.364 35.7438 138.354 35.7118 138.354 35.6478C138.354 35.5838 138.364 35.5518 138.386 35.5518L139.01 35.5678C139.33 35.5891 139.591 35.5998 139.794 35.5998C139.986 35.5998 140.252 35.5891 140.594 35.5678L141.25 35.5518C141.282 35.5518 141.298 35.5838 141.298 35.6478C141.298 35.7118 141.282 35.7438 141.25 35.7438C140.802 35.7438 140.476 35.8664 140.274 36.1118C140.071 36.3571 139.97 36.7571 139.97 37.3118V45.7438ZM102.961 56.7598C103.249 56.2798 103.393 55.8691 103.393 55.5278C103.393 55.2718 103.313 55.0798 103.153 54.9518C103.004 54.8131 102.785 54.7438 102.497 54.7438C102.465 54.7438 102.449 54.7118 102.449 54.6478C102.449 54.5838 102.465 54.5518 102.497 54.5518L103.345 54.5678C103.836 54.5891 104.273 54.5998 104.657 54.5998C104.838 54.5998 105.057 54.5891 105.313 54.5678L105.905 54.5518C105.926 54.5518 105.937 54.5838 105.937 54.6478C105.937 54.7118 105.926 54.7438 105.905 54.7438C105.574 54.7438 105.169 54.9518 104.689 55.3678C104.209 55.7731 103.782 56.2851 103.409 56.9038L101.329 60.3758L100.993 60.1038L102.961 56.7598ZM97.633 56.3918C97.2383 55.7731 96.9077 55.3464 96.641 55.1118C96.385 54.8664 96.1663 54.7438 95.985 54.7438C95.953 54.7438 95.937 54.7118 95.937 54.6478C95.937 54.5838 95.953 54.5518 95.985 54.5518L96.481 54.5678C96.7157 54.5891 96.881 54.5998 96.977 54.5998C97.3503 54.5998 97.889 54.5891 98.593 54.5678L99.649 54.5518C99.6703 54.5518 99.681 54.5838 99.681 54.6478C99.681 54.7118 99.6703 54.7438 99.649 54.7438C99.4677 54.7438 99.3237 54.7864 99.217 54.8718C99.121 54.9571 99.073 55.0691 99.073 55.2078C99.073 55.3784 99.1477 55.5811 99.297 55.8158L101.601 59.4478L100.065 60.1678L97.633 56.3918ZM101.745 59.4478V63.2558C101.745 63.5864 101.772 63.8264 101.825 63.9758C101.878 64.1251 101.98 64.2264 102.129 64.2798C102.289 64.3331 102.54 64.3598 102.881 64.3598C102.913 64.3598 102.929 64.3918 102.929 64.4558C102.929 64.5198 102.913 64.5518 102.881 64.5518C102.529 64.5518 102.252 64.5464 102.049 64.5358L100.849 64.5198L99.665 64.5358C99.4517 64.5464 99.1637 64.5518 98.801 64.5518C98.7797 64.5518 98.769 64.5198 98.769 64.4558C98.769 64.3918 98.7797 64.3598 98.801 64.3598C99.1423 64.3598 99.393 64.3331 99.553 64.2798C99.713 64.2264 99.8197 64.1251 99.873 63.9758C99.937 63.8158 99.969 63.5758 99.969 63.2558V59.5918L101.745 59.4478ZM111.679 64.7438C110.687 64.7438 109.801 64.5144 109.023 64.0558C108.255 63.5864 107.657 62.9571 107.231 62.1678C106.815 61.3678 106.607 60.4984 106.607 59.5598C106.607 58.4611 106.884 57.5224 107.439 56.7438C107.993 55.9544 108.703 55.3624 109.567 54.9678C110.441 54.5731 111.332 54.3758 112.239 54.3758C113.252 54.3758 114.143 54.6158 114.911 55.0958C115.679 55.5651 116.265 56.1891 116.671 56.9678C117.087 57.7464 117.295 58.5731 117.295 59.4478C117.295 60.4184 117.039 61.3091 116.527 62.1198C116.015 62.9304 115.327 63.5704 114.463 64.0398C113.609 64.5091 112.681 64.7438 111.679 64.7438ZM112.207 64.3438C112.804 64.3438 113.337 64.1731 113.807 63.8318C114.287 63.4798 114.66 62.9731 114.927 62.3118C115.193 61.6398 115.327 60.8398 115.327 59.9118C115.327 58.9304 115.177 58.0558 114.879 57.2878C114.58 56.5091 114.148 55.9011 113.583 55.4638C113.017 55.0264 112.356 54.8078 111.599 54.8078C110.628 54.8078 109.881 55.1758 109.359 55.9118C108.836 56.6371 108.575 57.6558 108.575 58.9678C108.575 60.0024 108.729 60.9304 109.039 61.7518C109.359 62.5624 109.791 63.1971 110.335 63.6558C110.889 64.1144 111.513 64.3438 112.207 64.3438ZM125.289 64.7438C124.073 64.7438 123.016 64.5198 122.12 64.0718C121.224 63.6131 120.536 62.9944 120.056 62.2158C119.576 61.4371 119.336 60.5731 119.336 59.6238C119.336 58.6104 119.603 57.7038 120.136 56.9038C120.68 56.1038 121.427 55.4851 122.376 55.0478C123.326 54.5998 124.392 54.3758 125.576 54.3758C126.089 54.3758 126.601 54.4184 127.113 54.5038C127.624 54.5784 128.035 54.6798 128.345 54.8078C128.462 54.8504 128.526 54.8878 128.536 54.9198C128.558 54.9411 128.574 55.0264 128.585 55.1758L128.793 57.3998C128.793 57.4318 128.761 57.4531 128.696 57.4638C128.643 57.4744 128.611 57.4584 128.601 57.4158C128.462 57.0638 128.238 56.6798 127.929 56.2638C127.619 55.8478 127.214 55.4851 126.713 55.1758C126.211 54.8664 125.63 54.7118 124.969 54.7118C124.286 54.7118 123.662 54.8984 123.096 55.2718C122.531 55.6451 122.083 56.1784 121.752 56.8718C121.432 57.5651 121.272 58.3704 121.272 59.2878C121.272 60.2904 121.459 61.1864 121.832 61.9758C122.216 62.7651 122.745 63.3784 123.417 63.8158C124.089 64.2531 124.846 64.4718 125.688 64.4718C126.126 64.4718 126.462 64.4238 126.696 64.3278C126.931 64.2318 127.102 64.0451 127.208 63.7678C127.315 63.4904 127.368 63.0798 127.368 62.5358C127.368 61.9811 127.336 61.5971 127.273 61.3838C127.209 61.1598 127.07 61.0104 126.857 60.9358C126.654 60.8611 126.291 60.8238 125.769 60.8238C125.705 60.8238 125.673 60.7811 125.673 60.6958C125.673 60.6638 125.678 60.6371 125.688 60.6158C125.71 60.5838 125.731 60.5678 125.753 60.5678C126.659 60.6211 127.395 60.6478 127.96 60.6478C128.505 60.6478 129.07 60.6318 129.656 60.5998C129.699 60.5998 129.72 60.6371 129.72 60.7118C129.731 60.7864 129.71 60.8238 129.656 60.8238C129.465 60.8131 129.326 60.8504 129.241 60.9358C129.166 61.0104 129.118 61.1704 129.097 61.4158C129.075 61.6611 129.064 62.0878 129.064 62.6958C129.064 63.1758 129.08 63.5171 129.113 63.7198C129.155 63.9224 129.177 64.0504 129.177 64.1038C129.177 64.1678 129.166 64.2104 129.145 64.2318C129.123 64.2531 129.075 64.2744 129.001 64.2958C127.625 64.5944 126.387 64.7438 125.289 64.7438ZM133.712 60.4398H138.32L138.432 60.8878H133.472L133.712 60.4398ZM142.208 64.3598C142.261 64.3598 142.288 64.3918 142.288 64.4558C142.288 64.5198 142.261 64.5518 142.208 64.5518C141.994 64.5518 141.664 64.5411 141.216 64.5198C140.746 64.4984 140.41 64.4878 140.208 64.4878C139.941 64.4878 139.616 64.4984 139.232 64.5198C138.869 64.5411 138.581 64.5518 138.368 64.5518C138.325 64.5518 138.304 64.5198 138.304 64.4558C138.304 64.3918 138.325 64.3598 138.368 64.3598C138.645 64.3598 138.842 64.3331 138.96 64.2798C139.088 64.2158 139.152 64.1091 139.152 63.9598C139.152 63.7784 139.045 63.4744 138.832 63.0478L135.584 56.6318L136.368 55.2558L133.184 62.2798C133.045 62.5891 132.976 62.8771 132.976 63.1438C132.976 63.5278 133.109 63.8264 133.376 64.0398C133.653 64.2531 134.021 64.3598 134.48 64.3598C134.533 64.3598 134.56 64.3918 134.56 64.4558C134.56 64.5198 134.533 64.5518 134.48 64.5518C134.288 64.5518 134.01 64.5411 133.648 64.5198C133.242 64.4984 132.89 64.4878 132.592 64.4878C132.304 64.4878 131.957 64.4984 131.552 64.5198C131.189 64.5411 130.896 64.5518 130.672 64.5518C130.629 64.5518 130.608 64.5198 130.608 64.4558C130.608 64.3918 130.629 64.3598 130.672 64.3598C130.97 64.3598 131.221 64.3011 131.424 64.1838C131.626 64.0558 131.829 63.8371 132.032 63.5278C132.234 63.2078 132.474 62.7384 132.752 62.1198L136.224 54.4878C136.245 54.4558 136.293 54.4398 136.368 54.4398C136.453 54.4398 136.501 54.4558 136.512 54.4878L140.512 62.3598C140.885 63.1171 141.194 63.6398 141.44 63.9278C141.685 64.2158 141.941 64.3598 142.208 64.3598Z" fill="#111111"/>
<path d="M79.3984 70.4861C78.1412 71.7352 76.3057 73.1263 74.8416 74.0592C74.382 74.3533 74.5478 74.1076 74.228 74.3033C73.6015 74.6838 73.0606 75.1009 72.4214 75.4432C72.2094 75.5557 72.3731 75.2558 72.1534 75.3763C70.9499 76.0342 69.8417 76.7102 68.5834 77.3067C66.4293 78.3223 64.205 79.1891 61.8605 79.7584C57.5984 80.7806 53.2504 81.4232 48.7939 81.6014C46.5408 81.697 43.8061 81.5278 41.4843 81.4216C41.213 81.4098 41.3635 81.5685 41.3111 81.5769C40.4857 81.6992 40.779 81.4233 40.2557 81.3368C38.1784 80.9901 35.8808 80.6229 33.8938 80.2463C33.0488 80.0842 33.8263 80.5598 33.0164 80.2053C32.9604 80.1808 33.2086 80.0783 32.9829 80.0081C32.4708 79.8513 31.4827 79.6236 31.0872 79.4981C30.3255 79.2575 30.1988 79.2209 29.4784 78.9942C28.5261 78.6904 27.4361 78.23 26.4237 77.8584C26.3896 77.8459 26.3556 77.8336 26.3217 77.8214C26.0995 77.7419 26.3297 78.0061 25.9714 77.8929C25.6187 77.783 24.6961 77.39 24.4089 77.2258C24.1118 77.0588 24.2945 76.9991 24.2508 76.9491C23.9029 76.539 22.7148 76.3768 22.5775 76.3198C20.0573 75.3129 18.0867 73.9724 16.0325 72.4555C14.467 71.3046 12.8767 69.98 11.5606 68.7159C11.175 68.346 10.8158 67.9875 10.4615 67.6266C9.35365 66.4942 8.43724 65.3407 7.48219 64.0322C7.34935 63.8484 7.34997 64.175 7.18737 63.949C5.46549 61.5418 4.15338 58.8909 3.24455 56.1234C3.15429 55.8459 3.4409 56.1392 3.36071 55.8591C2.84414 54.1423 2.42813 51.3906 1.50911 50.514C1.37248 49.839 1.23563 49.0788 1.14677 48.3476C1.07841 47.7897 1.0314 47.2889 1.01108 46.8177C0.985169 46.139 1.27681 46.7467 1.05472 45.9404C1.00437 45.7557 0.891784 46.0247 0.828977 45.7507C0.572791 44.5914 0.347568 43.277 0.248286 42.0016C0.227048 41.751 0.0872577 41.8188 0.061049 41.7468C-0.149502 41.1314 0.230883 40.1921 0.26229 39.9815C0.471869 38.6273 0.473723 37.5913 0.494598 36.3727C0.497856 36.1812 0.504316 35.9742 0.514166 35.7729C0.532337 35.423 0.321478 35.8291 0.333379 35.4887C0.40267 33.7353 0.66048 31.9399 1.06571 30.2816C1.15691 29.9141 1.24924 30.2865 1.30114 30.1129C1.532 29.3498 1.27134 29.1118 1.51325 28.3803C1.56461 28.2265 1.67783 28.3479 1.6996 28.323C2.04042 27.9356 1.8162 27.4668 1.84058 27.349C2.145 25.8712 2.78055 25.067 3.27496 23.7093C3.33573 23.5463 3.0221 23.8421 3.20483 23.3868C3.63959 22.3197 4.16745 21.2538 4.84445 20.2519C6.04348 18.4813 7.37853 16.7755 8.76945 15.2473C9.1038 14.8809 8.97788 15.2371 9.01039 15.2235C9.52867 15.0002 9.48443 14.5325 9.58063 14.4019C10.3471 13.3774 11.3678 12.7119 11.688 11.8123C14.3942 9.21181 17.2931 6.77233 20.597 4.97359C22.0538 4.18342 23.5801 3.54564 25.1351 3.03905C25.1994 3.01777 25.1494 3.21832 25.2773 3.17537C26.8262 2.67205 26.4403 2.54826 27.3597 1.88626C27.5938 1.71922 28.5036 1.82748 28.5806 1.83442C28.8657 1.85361 28.6772 2.1742 28.7681 2.16671C29.5138 2.10221 29.1589 1.34348 30.1269 1.0703C30.1574 1.06326 30.071 1.24465 30.1561 1.23675C30.4201 1.21284 30.6535 1.08806 30.9142 1.07478C31.511 1.04844 31.8001 1.38556 32.6135 0.969751C32.7184 0.918336 32.4472 0.489517 33.3365 0.338548C33.6887 0.270792 35.2602 0.0188963 35.7116 0.01381C36.1621 -0.00196815 35.8695 0.179508 35.9025 0.182569C37.1106 0.276855 36.6672 0.401701 37.2656 0.665685C37.6672 0.850516 37.7119 0.599495 37.7788 0.38762C37.8104 0.28566 37.8451 0.193836 37.9232 0.167909C38.1646 0.0873368 39.0284 0.253822 39.2397 0.314357C39.4515 0.373834 39.1858 0.466663 39.3737 0.50115C40.6158 0.732088 39.927 0.162253 40.3427 0.0593753C41.3263 -0.179328 42.0669 0.373528 42.9482 0.479381C43.1875 0.508531 42.9993 0.377619 43.214 0.380744C44.0661 0.397774 44.5599 0.6007 45.5375 0.555923C45.6959 0.54778 46.5169 0.328966 46.9902 0.628903C47.0567 0.671835 46.8369 0.770997 47.1918 0.851369C47.7221 0.970191 48.6776 1.16079 49.2566 1.2353C49.6847 1.28987 49.2436 0.980387 49.7626 1.15704C49.9926 1.23706 49.5296 1.26418 49.9618 1.40484C50.3923 1.54091 51.5058 1.81893 51.9257 1.94386C52.3447 2.06385 52.163 1.84117 52.1999 1.84058C52.425 1.83921 53.2543 2.03186 53.3248 2.06065C53.7862 2.22059 54.2389 2.3986 54.6781 2.59336C57.6293 3.8669 60.1402 5.6253 62.7988 7.29071C63.0418 7.4408 62.9756 7.19391 63.0136 7.21534C63.864 7.68368 62.9761 7.64751 63.4612 8.14418C63.5174 7.96418 63.6254 7.95187 63.8042 8.03179C63.9641 8.10272 64.1842 8.25373 64.4649 8.4272C64.7485 8.60322 64.6771 8.38956 64.71 8.39575C65.2372 8.51913 65.357 8.94166 65.3934 9.0363C65.5347 9.39117 65.957 9.4255 66.048 9.66824C66.1375 9.90922 65.6213 9.74181 66.1326 10.1533C66.3534 10.174 66.1809 9.61289 66.6015 9.89072C68.2253 10.9269 70.5603 13.6442 71.4677 14.8717C72.4002 16.0815 72.6853 16.4894 73.1216 17.2741C73.8014 18.6108 73.7658 18.1771 74.1852 18.8151C74.2168 18.8666 74.2506 18.9251 74.2871 18.9923C74.7682 19.8828 74.0337 19.6495 73.97 19.8306C73.904 20.0073 74.0817 20.0998 74.0799 20.2853C74.0775 20.4699 73.8618 20.1581 73.9841 20.5407C74.1039 20.9113 74.7166 21.8936 74.8864 21.9755C75.2554 22.1655 75.3607 21.5809 75.632 22.6434C75.6472 22.7048 75.4323 22.5646 75.498 22.7966C76.0135 24.6102 76.5911 26.4939 76.9513 28.3489C76.9995 28.6005 76.7759 28.4212 76.8017 28.5676C77.0651 30.1249 77.2115 29.4975 77.7153 30.2791C77.25 30.1778 77.1054 30.7024 77.312 31.8592C77.433 32.5634 77.5962 32.4095 77.7987 32.8408C77.8605 32.9736 77.8049 33.4977 77.904 33.5753C78.2288 33.8392 78.498 33.3123 78.5135 34.5672C78.5133 34.6222 78.337 34.4666 78.3477 34.655C78.4035 35.8574 78.7207 35.9839 78.816 37.306C78.8922 38.3408 78.6797 40.1799 78.5479 41.3451C78.069 41.286 78.0841 42.3787 78.3564 42.8675C78.2517 43.6204 78.1443 44.4348 77.9644 45.1496C77.9025 45.3951 77.795 45.2059 77.7742 45.2344C77.4507 45.6653 77.7013 46.0499 77.6795 46.2138C77.4259 47.9773 76.7984 49.3005 76.526 50.981C76.5163 51.0403 76.8091 51.2357 76.4362 51.591C76.411 51.6133 76.4367 51.0363 76.1808 51.7877C75.9255 52.5393 75.2693 53.8905 75.0467 54.9773C74.9942 55.2377 75.0235 55.9679 74.6412 56.3996C74.5896 56.4573 74.5252 56.3507 74.4396 56.43C74.1652 56.6871 74.4229 56.9768 74.0185 57.2475C73.839 57.3682 73.6447 57.5726 73.4675 57.8616C73.2483 58.2156 73.0448 58.6853 72.8878 59.2833C72.8782 59.317 73.013 59.6686 72.8491 59.9789C72.5899 60.4751 72.1466 61.1288 71.832 61.6157C71.6812 61.85 71.9185 61.7921 71.8947 61.8344C70.9283 63.4531 69.9423 64.4059 68.4952 65.7831C68.2304 66.0362 67.6206 66.9351 66.96 67.2666C66.237 67.6217 66.323 66.4993 65.0843 67.7512C64.5857 68.2423 64.4652 69.6455 63.0772 69.923C61.0529 71.4263 58.8744 72.2903 56.64 73.4445C56.5395 73.4963 56.3205 73.9026 56.0667 73.9986C55.6927 74.1397 55.4427 74.088 55.1721 74.1784C54.045 74.5478 53.0408 74.982 51.9203 75.2399C51.5709 75.319 51.5865 75.2162 51.3267 75.2354C51.2718 75.239 51.2035 75.2482 51.1132 75.266C50.5956 75.3671 50.3075 75.6125 49.5891 75.6447C49.0639 75.664 48.4737 75.3719 47.7841 75.4198C47.8064 75.7933 47.3299 75.8534 46.4869 76.0456C46.3254 76.0824 46.515 76.1927 46.4391 76.2168C46.1288 76.3179 45.8244 76.2399 45.5308 76.3404C45.459 76.3646 45.4671 76.4921 45.4087 76.519C44.9129 76.7543 44.0455 76.5275 43.8994 76.4853C43.3327 76.3302 43.0854 76.5079 42.6559 76.4506C42.2293 76.3917 42.8588 76.2752 42.3633 76.2475C41.3376 76.1903 40.0263 76.21 38.9918 76.1458C38.5814 76.121 38.8512 76.307 38.7923 76.3074C37.925 76.3011 37.095 76.0205 36.5692 76.2805C36.1249 75.3105 36.0375 76.3111 34.8624 75.8264C34.7701 75.7847 34.7729 75.3562 35.1389 75.394C35.4944 75.4278 36.0034 75.672 36.5239 75.6588C36.6418 75.6588 37.3746 75.3661 37.4609 75.3493C38.1954 75.2452 38.2433 75.8619 38.2814 75.9011C38.702 76.3064 39.5733 75.9256 39.7908 75.9006C40.8084 75.7965 41.6731 75.87 42.5199 75.7446C43.0743 75.6614 43.1075 75.2519 43.5402 75.2404C44.9771 75.1912 45.5416 75.7073 46.8468 75.0657C47.1277 74.9251 46.7774 74.5267 47.8599 74.7355C47.9242 74.7499 48.7352 74.9577 49.1535 74.6831C49.2045 74.6489 49.1818 74.5215 49.2518 74.4989C49.7262 74.3482 50.0754 74.3906 50.578 74.2393C50.7423 74.1905 50.9088 74.1374 51.071 74.0853C51.4484 73.9655 51.8654 73.8353 52.2725 73.7552C52.6325 73.6848 53.1449 73.7822 53.3342 73.7844C53.8617 73.7988 54.2822 73.3588 54.6385 73.4491C55.0052 73.5357 54.5276 74.0471 55.3603 73.8814C55.2714 73.5556 55.2137 73.2084 55.1381 72.8753C56.8013 72.2517 58.446 71.5953 60.0106 70.7046C60.2033 70.5939 59.9169 70.5477 60.1203 70.4248C60.9771 69.9043 61.7918 69.5537 62.6285 68.9299C63.2752 68.4461 63.8766 67.7756 64.502 67.2253C65.1436 67.2176 66.0289 66.3205 66.7091 65.7337C66.9496 65.5275 67.004 65.6165 67.1908 65.4855C67.8884 64.9836 67.3632 65.0163 67.4904 64.8164C68.0155 63.9548 68.6392 64.4254 69.4029 63.5112C69.4466 63.4629 69.6101 62.6132 69.6477 62.5182C69.9165 61.8958 69.8287 62.5199 70.102 62.2081C70.5923 61.6366 70.9783 61.2503 71.3275 60.434C71.4315 60.1914 71.5037 59.5439 71.8948 59.1926C71.9466 59.1461 72.0526 59.2379 72.0827 59.1943C72.6113 58.386 72.216 58.1867 72.2707 57.649C72.2765 57.5832 72.2893 57.5159 72.3074 57.448C72.4586 56.9005 72.9179 56.3204 73.0425 56.1936C73.4094 55.821 73.0074 56.5684 73.0192 56.5993C73.1584 56.9696 73.3368 56.3421 73.5245 55.8837C73.9417 55.9583 74.1522 55.2967 73.7173 55.4078C73.6692 55.4216 73.576 55.7969 73.5245 55.8837C73.2852 55.3368 73.4926 54.6056 74.1326 53.9418C74.4311 53.6317 74.5089 54.0518 74.8257 52.8999C74.9671 52.3789 74.6283 52.4821 74.7052 52.0075C74.8806 50.9251 75.556 49.6697 75.8095 48.5868C75.9012 48.1951 75.646 48.5308 75.7027 48.2624C75.8507 47.5507 76.1198 46.9582 76.2187 46.2352C76.2273 46.17 76.032 46.2906 76.0782 46.0707C76.419 44.4035 76.7539 42.9554 76.8972 41.1871C76.9722 40.3323 76.9252 38.8061 76.9172 37.9145C76.9246 36.3832 76.9782 34.4599 76.717 33.1541C76.5488 32.3091 76.4123 32.5239 76.2398 32.178C75.9084 31.5169 76.0268 30.1993 76.0466 30.0255C76.0482 30.018 76.2439 30.7385 76.242 30.3291C76.3658 30.0684 76.049 30.0331 76.0466 30.0255C76.0666 29.9115 75.7508 28.4432 75.6397 28.1691C75.5817 28.0171 75.4539 28.1446 75.4264 28.0647C74.7775 26.1751 74.1228 24.2925 73.4849 22.3595C73.4755 22.3251 73.658 22.3147 73.6337 22.2342C73.2889 21.0881 72.8192 20.4873 72.3248 19.6163C72.3196 19.6072 72.3144 19.598 72.3092 19.5889C71.8842 18.8881 71.5603 18.2808 71.5186 17.6677C71.1142 17.1054 70.6108 16.2199 70.2935 15.7106C69.9788 15.2019 69.6615 15.3627 69.6241 15.3278C68.4 14.2569 67.8829 13.4561 66.6538 12.2881C66.0722 11.7313 64.8126 10.7486 64.0962 10.2759C63.6053 9.94631 63.3232 9.68165 62.8993 9.42737C62.831 9.38636 62.7602 9.34561 62.6856 9.30503C62.6075 9.26239 62.6002 9.4382 62.5743 9.42834C61.8581 9.1788 62.3587 9.06265 62.2663 8.92369C61.9369 8.42266 61.7225 8.12813 60.8776 7.71675C60.6827 7.62157 59.8704 7.73395 59.5288 7.55751C59.0838 7.327 59.3445 7.2629 58.8751 7.03096C58.8349 7.01132 58.782 7.116 58.5103 6.94781C57.2522 6.16782 55.8625 5.37648 54.4389 4.76134C54.245 4.6769 54.4184 4.95759 54.1354 4.83834C54.0189 4.78948 53.9005 4.74009 53.7788 4.68948C52.6283 4.20999 51.3292 3.79276 50.139 3.42374C49.8177 3.32395 50.0524 3.24566 49.9902 3.19088C49.6024 2.85618 48.8986 3.06135 48.795 3.04853C46.2909 2.73693 44.3658 2.23832 41.7288 2.25488C41.5842 2.25499 40.475 2.58053 39.9902 2.25907C39.958 2.23737 39.4744 1.90644 39.0389 2.12316C39.0122 2.13684 39.3141 2.3041 38.7849 2.28392C38.5165 2.27414 38.1663 2.29792 37.7926 2.3031C37.4597 2.30769 37.0942 2.30449 36.7496 2.23808C36.5322 2.1954 35.9767 1.91654 35.3469 2.25792C35.3016 2.27776 34.3869 2.99875 33.9577 2.67784C33.887 2.62583 33.8715 2.19188 33.1224 2.56553C32.9805 2.63838 33.2728 2.67212 32.8892 2.81439C32.3054 3.0328 31.4765 3.11849 30.7892 3.50451C30.6682 3.57194 30.2057 4.00004 29.7092 3.92526C29.631 3.91362 29.7196 3.73889 29.4845 3.79483C28.3648 4.0619 27.2602 4.54934 26.1413 4.88718C25.7452 5.00821 25.8572 4.71735 25.4323 4.82506C25.0078 4.93161 24.1833 5.22646 23.817 5.51334C23.454 5.79837 24.0471 5.91826 23.461 6.23083C22.9052 6.53071 22.3544 6.82912 21.8195 7.13264C19.8741 8.23689 17.9586 9.4377 16.2032 10.8962C15.8714 11.1742 16.2266 11.0377 15.7489 11.4576C13.9613 12.9859 11.2911 16.0589 9.81559 17.519C8.61656 18.6821 9.77413 16.9372 8.91953 17.8823C8.50763 18.3421 8.44928 19.1291 8.37341 19.2549C7.81893 20.1778 7.28329 20.8127 6.76839 21.5395C6.60939 21.7631 6.45623 22.0067 6.31469 22.2813C6.20259 22.5016 6.47073 22.3756 6.37518 22.5621C6.05216 23.2005 5.65546 23.8672 5.39687 24.5303C5.28215 24.8281 5.42519 24.823 5.30941 25.0914C5.03552 25.7388 4.78123 26.3142 4.45848 26.9463C4.42902 27.0045 4.40023 26.5434 4.23848 27.0521C3.97927 27.8749 3.5901 28.8942 3.50272 29.9023C3.47814 30.2016 3.76535 30.2707 3.44255 30.8558C3.37656 30.9791 3.05064 30.7461 3.22672 31.5347C3.25201 31.6694 3.47213 32.9559 3.13933 33.5241C3.04987 33.6733 2.71196 34.0509 2.72514 34.4126C2.72814 34.4611 2.90509 34.2847 2.89427 34.5778C2.87129 35.1884 2.83947 35.8122 2.83491 36.4301C2.83061 36.9063 2.82741 37.3613 2.83416 37.8188C2.83859 38.1224 3.01827 37.6801 3.0196 38.1254C3.02927 39.3433 2.8982 40.9222 2.86255 41.9514C2.85403 42.328 2.70907 42.0736 2.69473 42.1013C2.46777 42.5569 2.82834 42.7928 2.86364 42.9368C3.09382 43.8544 3.09972 44.6863 3.30859 45.642C3.36571 45.9003 3.48693 45.6883 3.50991 45.7376C3.74158 46.2592 3.39345 45.909 3.4238 46.2558C3.47263 46.799 3.54933 47.3363 3.64607 47.9108C3.72277 48.368 3.81837 48.8242 3.91804 49.2561C3.99817 49.5991 4.0937 49.1745 4.16414 49.482C4.58666 51.2991 5.10547 53.1606 5.63975 54.8979C5.74062 55.2254 5.53489 55.0724 5.52983 55.1505C5.4923 55.6933 6.04865 56.2534 6.1395 56.3922C6.5536 57.0333 6.56014 57.3471 6.86394 57.9373C8.2377 60.6346 10.2376 63.7163 12.2936 65.7621C12.4433 65.9141 12.5888 66.0608 12.7299 66.2023C15.6368 69.1051 17.933 71.1776 21.3193 72.9577C21.5342 73.0702 21.406 72.7911 21.5923 72.8854C23.4513 73.8294 25.3676 74.6876 27.3664 75.4704C27.9335 75.692 28.5078 75.8988 29.0908 76.0883C29.3028 76.1572 29.0571 75.8863 29.3985 75.9902C30.0992 76.2018 30.9802 76.4859 31.6788 76.7403C32.02 76.8641 31.5111 76.8789 31.8565 77.0003C32.6618 77.2823 33.5483 77.5143 34.411 77.6727C34.7779 77.7391 34.2669 77.445 34.7398 77.544C37.9661 78.2047 41.1892 78.5247 44.5339 78.8272C44.7629 78.8474 44.9604 79.2183 45.4532 79.1504C45.4906 79.0488 45.489 78.9291 45.5054 78.8205C50.3327 78.7737 55.1361 78.3205 59.8795 77.2204C60.0789 77.1737 59.6901 77.067 60.0751 76.9753C60.4117 76.8947 60.7455 76.8105 61.0771 76.7237C62.8493 76.2567 64.5747 75.5716 66.4128 74.8768C66.6281 74.7934 66.6702 75.157 67.2588 74.8057C67.3631 74.7462 68.2532 74.2308 68.4489 74.0352C68.4749 74.0081 68.2354 73.9579 68.5214 73.7954C70.1855 72.8502 71.8991 71.7945 73.5011 70.7364C73.7594 70.5657 73.5954 70.8981 73.7804 70.7772C75.0995 69.9125 76.3282 68.7232 77.5071 67.8099C78.2938 67.1936 78.2375 67.6544 78.8192 67.4774C78.9055 67.4498 79.3379 67.0016 79.4849 67.0875C79.8551 67.3098 79.9791 67.8573 80.3982 68.0679C80.4927 68.1133 81.0083 67.382 80.8316 67.9305C80.8205 67.9689 80.4346 68.5016 80.3796 68.671C80.3412 68.7904 80.6061 68.7616 80.4962 68.9773C80.3852 69.193 80.1084 69.271 79.8946 69.5968C79.6825 69.9189 79.9361 69.9509 79.3984 70.4861ZM68.7642 13.4659C68.4879 12.9513 68.0078 13.3174 68.5296 13.6432C68.5553 13.6585 68.7785 13.4921 68.7642 13.4659ZM58.6208 71.9663C59.3968 71.8732 59.6589 71.2881 59.1082 71.3494C58.5607 71.4058 58.3871 71.9925 58.6208 71.9663ZM51.5692 74.7844C52.4603 74.7799 52.3635 73.9267 51.532 74.3114C51.4837 74.3329 51.5179 74.784 51.5692 74.7844ZM77.056 69.2656C77.0681 69.2665 77.4129 68.9685 77.4147 68.9553C77.4667 68.6536 76.782 69.2463 77.056 69.2656ZM44.07 76.0368C44.3463 76.1349 45.1175 75.9398 44.7698 75.8245C44.4911 75.7332 43.7254 75.9167 44.07 76.0368ZM42.9537 0.772304C42.9453 0.762621 42.6163 0.734641 42.6201 0.78553C42.633 0.948424 43.0929 0.931227 42.9537 0.772304ZM32.0311 73.5939C32.3905 74.39 33.0198 74.9187 33.1641 75.2038C33.344 75.4617 33.0066 75.6058 32.1203 74.799C31.9715 74.6419 32.1735 74.772 32.3771 74.8605C32.5735 74.9432 32.7637 74.9939 32.5829 74.819C31.9883 74.2134 31.1752 73.7428 31.3735 72.6753C31.3965 72.5822 31.5016 72.8551 31.6554 73.0911C31.8065 73.3435 32.0116 73.55 32.0333 73.5963C32.0326 73.5955 32.0319 73.5947 32.0311 73.5939ZM69.049 12.7305C69.0471 12.7164 68.7282 12.3882 68.7144 12.3865C68.4064 12.3481 69.0457 13.0054 69.049 12.7305ZM24.0597 3.66534C24.027 3.6576 23.0451 4.0821 23.0226 4.11359C22.6497 4.62237 24.6174 3.77007 24.0597 3.66534ZM78.5336 41.3624C78.685 41.8853 78.6448 42.4903 78.3569 42.8652C78.4304 42.365 78.4821 41.8688 78.5336 41.3624Z" fill="#201F1E"/>
<path d="M64.4582 64.9891C65.7242 64.3152 67.5438 63.7025 68.9682 64.2539L67.9702 65.6018C66.63 65.7856 66.3254 65.1818 64.7351 67.4937M64.4582 64.9891C64.5358 65.8431 64.6271 66.68 64.7351 67.4937M64.4582 64.9891C63.4087 53.4391 64.854 38.7662 61.123 36.1253C59.826 35.2072 58.7458 35.8516 57.9277 37.2344M64.7351 67.4937C61.6846 61.0491 61.2221 57.8077 59.9822 53.2494M59.9822 53.2494C59.1421 50.161 59.6814 47.3663 59.4572 45.8689C59.3317 45.0309 61.9434 49.1998 59.9822 53.2494ZM59.9822 53.2494C57.675 58.0134 54.4845 60.3417 49.9383 60.3417M51.1769 32.0663C48.4705 30.3538 49.0422 28.1305 50.522 26.0841C52.0018 24.0378 54.3901 24.3756 55.6679 25.177C56.9456 25.9783 58.1609 24.7436 58.7601 25.9198C59.3593 27.096 59.5562 26.0535 59.9622 26.8194C59.9622 26.8194 59.9161 27.4537 60.3578 27.3677C60.7996 27.2817 61.3634 27.565 61.0545 28.4046C60.7456 29.2442 59.8367 30.0809 59.8978 30.82C59.9371 31.2953 60.8921 32.853 62.4308 34.8449C65.597 39.982 69.6644 38.8728 68.9682 44.7084C68.272 50.5439 61.8091 59.8752 61.8091 59.8752C56.7381 63.6548 47.7584 67.7207 39.5371 66.425C31.3157 65.1293 20.7414 69.626 14.8786 68.3066C14.8477 68.3269 14.3122 67.9792 12.0469 66.425C12.5023 66.3454 13.0727 65.9894 14.8786 63.7223C15.829 62.7976 18.2888 64.8857 20.3382 64.0803C25.3578 60.5574 31.0066 60.3514 35.1649 60.5574C39.3231 60.7634 44.0558 58.4273 45.8872 57.0402C49.5109 54.2958 52.9431 55.0867 54.8355 54.1681C56.7278 53.2494 56.9715 50.9856 56.1608 48.0588C55.4101 46.2369 56.2184 40.1237 57.9277 37.2344M51.1769 32.0663C51.4117 32.2149 51.8525 32.9826 51.9956 33.1242M51.1769 32.0663C52.2262 34.4488 51.2567 35.0621 50.257 34.7828C49.1605 34.4765 49.8718 34.8015 51.9956 33.1242M51.9956 33.1242C50.4257 32.262 48.9834 33.2757 49.1916 33.9194C49.6083 34.256 50.615 33.7002 50.8624 33.9194C51.1099 34.1387 51.3677 33.746 51.5241 33.6286C51.5264 33.2224 52.272 33.4065 51.9956 33.1242ZM51.9956 33.1242C54.0063 33.0486 56.152 32.9456 56.7278 34.3968L57.9277 37.2344M51.9956 33.1242C54.086 37.8706 43.0612 34.1514 51.1554 32.0526" stroke="#201F1E" stroke-width="2"/>
</svg>
