<svg width="158" height="159" viewBox="0 0 158 159" fill="none" xmlns="http://www.w3.org/2000/svg">
<path d="M155.115 136.882C152.659 139.346 149.04 142.033 146.151 143.813C145.245 144.374 145.537 143.847 144.905 144.218C143.668 144.938 142.626 145.773 141.362 146.415C140.943 146.625 141.216 145.963 140.783 146.19C138.413 147.431 136.262 148.763 133.796 149.904C129.563 151.851 125.198 153.515 120.581 154.607C112.304 156.538 103.873 157.753 95.2333 158.076C90.8571 158.249 85.5516 157.841 81.0432 157.68C80.516 157.663 80.8028 158.053 80.7005 158.076C79.0892 158.42 79.671 157.717 78.6569 157.529C74.6304 156.777 70.1761 156.069 66.3095 155.381C64.665 155.084 66.1423 156.163 64.5867 155.39C64.4792 155.336 64.9799 155.05 64.5435 154.906C63.5535 154.585 61.6302 154.165 60.8633 153.917C59.3867 153.442 59.1404 153.373 57.7406 152.937C55.8276 152.333 53.6435 151.367 51.6126 150.662C51.6114 150.662 51.6103 150.661 51.6091 150.661C51.1806 150.516 51.5933 151.108 50.8919 150.904C50.2016 150.708 48.4193 149.947 47.8631 149.609C47.3034 149.271 47.6777 149.086 47.6003 148.975C46.9761 148.056 44.5946 147.925 44.329 147.821C39.395 145.961 35.5873 143.282 31.5741 140.359C28.5125 138.14 25.3837 135.609 22.8264 133.169C22.0109 132.391 21.2638 131.643 20.5254 130.886C18.4356 128.738 16.6975 126.543 14.8659 124.08C14.6039 123.724 14.5254 124.422 14.2042 123.984C10.8018 119.318 8.22372 114.156 6.49771 108.757C6.32644 108.216 6.97215 108.75 6.826 108.203C5.87728 104.843 5.23313 99.4807 3.05088 97.8752C2.78011 96.5144 2.50912 94.9753 2.35536 93.5037C2.24763 92.4801 2.18424 91.5529 2.18088 90.6893C2.18373 89.3792 2.84673 90.5202 2.37441 88.9786C2.2662 88.6185 1.96212 89.1609 1.8311 88.6255C1.30354 86.3957 0.885947 83.8528 0.629588 81.3357C0.576506 80.838 0.22684 80.9798 0.161108 80.8367C-0.367964 79.6269 0.562622 77.7872 0.636598 77.4005C1.13852 74.7464 1.11846 72.7446 1.15599 70.357C1.16148 70.0082 1.17273 69.6352 1.19063 69.2679C1.22588 68.5883 0.711116 69.3726 0.730449 68.7107C0.847636 65.2912 1.35918 61.8012 2.19483 58.5878C2.38305 57.8757 2.65051 58.6167 2.76107 58.2817C3.25114 56.8104 2.57854 56.3113 3.08605 54.8979C3.1935 54.6009 3.48825 54.8556 3.53883 54.8091C4.33066 54.0911 3.71305 53.1339 3.7569 52.9029C4.29822 50.0138 5.72296 48.5144 6.66231 45.8706C6.77799 45.5523 6.07639 46.0898 6.4307 45.2021C7.27204 43.1257 8.30268 41.0495 9.6363 39.0937C11.978 35.6683 14.6032 32.3824 17.3504 29.4598C18.0099 28.7597 17.8203 29.4969 17.8904 29.4765C19.004 29.1408 18.7752 28.1105 18.9573 27.8531C20.4112 25.8374 22.5072 24.6677 22.972 22.7659C28.269 17.7857 33.8755 13.0429 40.3123 9.59893C43.1653 8.07847 46.1499 6.87385 49.1962 5.95457C49.3217 5.91584 49.2592 6.39166 49.5084 6.31312C52.5264 5.39546 51.726 5.01732 53.4537 3.568C53.895 3.20212 55.7254 3.62031 55.8783 3.64944C56.4477 3.74347 56.1238 4.49765 56.3031 4.49432C57.7697 4.45809 56.9513 2.54276 58.8313 2.01503C58.8907 2.00222 58.7453 2.43576 58.9124 2.42885C59.4313 2.40893 59.8751 2.135 60.388 2.13831C61.5623 2.15434 62.1706 3.02828 63.716 2.09686C63.9157 1.98077 63.3355 0.892389 65.0661 0.612517C65.7508 0.486739 68.8048 -0.00600278 69.6855 0.00035131C70.5646 -0.0138521 70.0029 0.422514 70.0677 0.432042C72.4235 0.725161 71.565 1.01393 72.7305 1.69035C73.592 2.21209 73.6027 1.37479 73.7621 0.830612C73.8141 0.649064 73.8803 0.501547 73.9965 0.451799C74.4625 0.251728 76.1345 0.666244 76.5418 0.815474C76.9509 0.962695 76.4366 1.19664 76.8001 1.2815C79.1975 1.84664 77.8723 0.428642 78.6776 0.166314C80.5866 -0.445387 82.0101 0.916891 83.7111 1.14864C84.1733 1.21231 83.8131 0.892604 84.2291 0.891999C85.8797 0.899401 86.8266 1.38213 88.7265 1.20905C89.0335 1.17914 90.6453 0.578168 91.5468 1.28547C91.673 1.3868 91.2378 1.65199 91.9228 1.82243C92.9456 2.07476 94.7916 2.455 95.9169 2.57211C96.7496 2.65783 95.9181 1.94302 96.9165 2.31895C97.3592 2.48904 96.4479 2.61289 97.2803 2.90778C98.1081 3.19366 100.265 3.72142 101.079 3.9575C101.892 4.1844 101.565 3.6671 101.638 3.65978C102.082 3.62129 103.71 3.94781 103.846 4.00263C104.788 4.32268 105.707 4.68249 106.6 5.0807C112.267 7.54286 117.068 10.9971 122.198 14.1393C122.668 14.4231 122.593 13.8662 122.667 13.9058C124.34 14.7755 122.478 14.9223 123.373 15.9538C123.559 15.4644 123.825 15.4527 124.261 15.6612C124.558 15.803 124.945 16.0612 125.417 16.3382C125.979 16.6709 125.878 16.1933 125.947 16.1992C127.034 16.3372 127.189 17.2782 127.242 17.4856C127.45 18.2585 128.349 18.2161 128.484 18.7459C128.612 19.2685 127.546 19.0384 128.536 19.825C129.01 19.8105 128.781 18.5796 129.62 19.0934C132.851 21.0013 137.31 26.3534 139.068 28.7281C140.878 31.0724 141.446 31.8511 142.285 33.3842C143.625 36.0742 143.622 35.03 144.584 36.4347C144.627 36.5019 144.672 36.5748 144.719 36.6541C145.714 38.3544 143.98 38.0311 143.792 38.409C143.598 38.7783 144.011 38.9284 143.972 39.302C143.932 39.6734 143.467 39.09 143.692 39.8342C143.909 40.5477 145.219 42.3999 145.619 42.5312C146.483 42.8403 146.842 41.6561 147.315 43.7246C147.342 43.8446 146.842 43.6036 146.962 44.0559C147.904 47.5802 149.029 51.229 149.674 54.8258C149.76 55.3143 149.232 54.9927 149.277 55.2769C149.73 58.2931 150.172 57.0481 151.328 58.5155C150.189 58.3717 149.766 59.4213 150.166 61.6472C150.401 63.0055 150.821 62.69 151.289 63.5115C151.43 63.761 151.252 64.7875 151.494 64.9296C152.285 65.4171 152.986 64.3734 152.948 66.8144C152.944 66.9213 152.513 66.6299 152.529 66.9956C152.605 69.3285 153.389 69.5577 153.596 72.1246C153.762 74.1345 153.246 77.7042 152.973 79.9604C151.773 79.8259 151.864 81.9377 152.577 82.9094C152.366 84.3673 152.166 85.9473 151.79 87.3269C151.661 87.8005 151.375 87.419 151.327 87.4727C150.568 88.2788 151.231 89.0595 151.196 89.3789C150.767 92.8093 149.413 95.3293 149.01 98.6185C148.995 98.7345 149.742 99.172 148.887 99.8157C148.829 99.8557 148.799 98.713 148.294 100.163C147.791 101.614 146.42 104.188 146.069 106.317C145.987 106.827 146.187 108.289 145.332 109.081C145.217 109.187 145.041 108.962 144.847 109.105C144.224 109.568 144.904 110.193 143.966 110.659C143.572 110.856 143.159 111.201 142.793 111.7C142.295 112.369 141.868 113.286 141.606 114.512C141.59 114.579 141.986 115.323 141.663 115.922C141.153 116.876 140.262 118.118 139.65 119.057C139.356 119.508 139.895 119.451 139.85 119.534C138.004 122.688 136.017 124.471 133.181 127.091C132.664 127.571 131.562 129.399 130.213 129.958C128.741 130.551 128.612 128.029 126.296 130.508C125.368 131.478 125.466 134.671 122.609 134.942C118.728 137.891 114.446 139.401 110.173 141.711C109.982 141.814 109.616 142.752 109.124 142.934C108.4 143.2 107.887 143.027 107.363 143.195C105.176 143.879 103.253 144.775 101.081 145.257C100.444 145.397 100.424 145.18 100 145.168C99.8801 145.163 99.7252 145.174 99.5032 145.217C98.5085 145.404 97.9625 145.982 96.5688 145.991C95.543 145.989 94.374 145.209 93.0439 145.274C93.1135 146.206 92.1936 146.317 90.5718 146.742C90.2606 146.823 90.6348 147.11 90.4891 147.166C89.8915 147.398 89.2993 147.186 88.7344 147.421C88.5963 147.477 88.6182 147.796 88.5061 147.86C87.5558 148.42 85.864 147.818 85.5807 147.708C84.4792 147.3 84.0059 147.737 83.174 147.583C82.3482 147.427 83.5621 147.149 82.6045 147.069C80.6231 146.904 78.0946 146.953 76.0996 146.826C75.3085 146.777 75.8229 147.233 75.7092 147.236C74.0302 147.248 72.4433 146.605 71.3983 147.299C70.6187 144.933 70.3636 147.406 68.1014 146.373C67.9236 146.285 67.9977 145.232 68.7067 145.268C69.3944 145.297 70.355 145.838 71.3641 145.757C71.5939 145.745 73.027 144.958 73.1917 144.912C74.6034 144.604 74.6668 146.147 74.7387 146.242C75.533 147.233 77.229 146.259 77.6453 146.194C79.6046 145.918 81.2682 146.111 82.8972 145.816C83.9632 145.621 84.0163 144.6 84.8468 144.585C87.6054 144.517 88.7254 145.836 91.2072 144.323C91.741 143.993 91.0389 142.972 93.1412 143.576C93.2659 143.617 94.8532 144.201 95.6367 143.56C95.7327 143.48 95.6777 143.161 95.8114 143.111C96.7113 142.784 97.3907 142.926 98.3515 142.61C98.6793 142.502 99.0289 142.381 99.359 142.265C100.053 142.027 100.819 141.779 101.572 141.651C102.26 141.535 103.281 141.859 103.653 141.898C104.695 142.023 105.452 141.029 106.173 141.318C106.917 141.599 106.055 142.751 107.686 142.509C107.449 141.7 107.273 140.845 107.06 140.022C110.244 138.848 113.427 137.66 116.428 135.958C116.797 135.746 116.198 135.563 116.586 135.326C118.22 134.323 119.821 133.724 121.411 132.512C122.64 131.572 123.729 130.204 124.908 129.138C126.273 129.309 127.926 127.541 129.244 126.444C129.709 126.058 129.854 126.273 130.226 126.039C131.614 125.139 130.471 125.053 130.693 124.65C131.604 122.92 133.117 124.141 134.583 122.388C134.667 122.296 134.802 120.52 134.861 120.332C135.298 119.093 135.272 120.391 135.81 119.811C136.775 118.75 137.565 118.046 138.176 116.461C138.359 115.988 138.365 114.692 139.216 114.086C139.328 114.006 139.602 114.217 139.664 114.137C140.748 112.641 139.765 112.155 139.788 111.116C139.79 110.961 139.816 110.804 139.861 110.648C140.168 109.612 141.131 108.597 141.403 108.374C142.231 107.697 141.384 109.117 141.419 109.179C141.823 109.944 142.146 108.725 142.522 107.844C143.551 108.07 143.947 106.789 142.907 106.93C142.793 106.949 142.633 107.68 142.522 107.844C141.843 106.709 142.218 105.287 143.661 104.083C144.335 103.52 144.596 104.371 145.171 102.135C145.427 101.124 144.617 101.269 144.725 100.341C144.97 98.2252 146.421 95.8616 146.889 93.7744C147.058 93.0201 146.479 93.6395 146.58 93.1221C146.842 91.7515 147.427 90.6334 147.585 89.2402C147.598 89.1146 147.13 89.3237 147.217 88.903C147.863 85.7139 148.568 82.9596 148.845 79.5807C148.99 77.9471 148.847 75.0322 148.841 73.3305C148.873 70.4088 149.111 66.7152 148.572 64.2134C148.226 62.6003 147.87 63.0261 147.474 62.3764C146.713 61.1398 147.159 58.5729 147.23 58.2287C147.234 58.216 147.633 59.5848 147.677 58.795C148.014 58.2715 147.235 58.2431 147.23 58.2287C147.29 58.0037 146.699 55.1851 146.466 54.6616C146.345 54.3723 146.012 54.6414 145.956 54.489C144.624 50.8894 143.338 47.292 142.143 43.5682C142.126 43.5013 142.571 43.4452 142.527 43.2893C141.906 41.095 140.905 39.9943 139.894 38.3808C139.883 38.3649 139.872 38.349 139.861 38.3329C138.98 37.073 138.383 35.9244 138.447 34.6518C137.66 33.6127 136.753 31.8813 136.178 30.8832C135.607 29.8838 134.852 30.3262 134.777 30.2627C132.338 28.3196 131.429 26.7189 129.079 24.4837C127.969 23.4193 125.534 21.5768 124.153 20.7038C123.255 20.1251 122.741 19.6213 121.998 19.1723C121.826 19.068 121.645 18.966 121.451 18.8666C121.298 18.7883 121.238 19.1998 121.186 19.1838C119.746 18.7921 120.822 18.3856 120.665 18.0873C120.1 17.0066 119.726 16.379 118.059 15.6452C117.673 15.4744 115.949 15.9564 115.284 15.637C114.418 15.2186 114.975 14.9985 114.061 14.5817C113.983 14.5464 113.847 14.8064 113.329 14.4849C110.929 12.996 108.297 11.4661 105.563 10.3035C105.19 10.1434 105.479 10.7792 104.938 10.5567C104.751 10.48 104.56 10.4019 104.365 10.3223C102.17 9.42585 99.6717 8.62455 97.3824 7.87222C96.7735 7.67142 97.2374 7.44491 97.124 7.31841C96.4139 6.5466 95.0287 7.1392 94.8313 7.11924C90.0421 6.63358 86.3747 5.50288 81.3098 5.62431C81.0315 5.62979 78.8995 6.46875 77.9732 5.6698C77.9121 5.61607 76.9855 4.79474 76.1474 5.33859C76.0961 5.37285 76.6752 5.78975 75.6589 5.74158C75.1546 5.71854 74.4986 5.77537 73.7976 5.78855C73.1652 5.80092 72.4643 5.78706 71.7976 5.60319C71.3863 5.48775 70.3135 4.76674 69.1343 5.56743C69.0462 5.61636 67.3689 7.32696 66.5117 6.48105C66.3706 6.34331 66.2955 5.26998 64.8894 6.10748C64.6236 6.27053 65.1923 6.39005 64.4678 6.6947C63.3669 7.1623 61.768 7.25921 60.484 8.10141C60.2573 8.24895 59.4223 9.22687 58.4386 8.95923C58.2836 8.91751 58.4293 8.50453 57.9771 8.60177C55.8229 9.06617 53.7275 10.0463 51.5675 10.6335C50.8023 10.8445 50.9684 10.1643 50.1406 10.3357C49.3141 10.5048 47.7193 11.0345 47.0423 11.6372C46.3735 12.2354 47.5944 12.6624 46.4848 13.2699C45.4249 13.8569 44.3742 14.4302 43.355 15.005C39.6635 17.0875 35.9705 19.2908 32.6073 22.047C31.9705 22.5732 32.6988 22.3736 31.7862 23.1724C28.3699 26.0806 23.307 31.9752 20.3477 34.6598C17.9425 36.8002 20.0949 33.402 18.4087 35.1774C17.595 36.043 17.6742 37.7002 17.5347 37.9451C16.5112 39.7498 15.4415 40.9379 14.4368 42.3261C14.1392 42.7339 13.8543 43.183 13.5983 43.6959C13.3942 44.1106 13.9894 43.9308 13.815 44.2802C13.2266 45.4761 12.4347 46.7067 11.9515 47.9614C11.7374 48.5249 12.0817 48.5454 11.8565 49.0493C11.324 50.2655 10.8091 51.3431 10.1237 52.522C10.0611 52.631 9.91512 51.7241 9.60219 52.6915C9.10116 54.2551 8.28621 56.1844 8.18959 58.1257C8.16382 58.7021 8.88502 58.8688 8.14873 59.9607C7.99773 60.1907 7.16729 59.7076 7.68274 61.2463C7.76032 61.5117 8.42505 63.9966 7.63261 65.0565C7.42046 65.3344 6.60321 66.0357 6.65565 66.7298C6.66577 66.8223 7.09766 66.4958 7.08665 67.0537C7.06223 68.1942 7.00853 69.3553 7.00588 70.5013C7.0012 71.4498 6.99927 72.3511 7.02413 73.269C7.04035 73.8528 7.48188 73.0058 7.49288 73.8619C7.53466 76.2124 7.25397 79.3089 7.16452 81.1774C7.13916 81.8619 6.77967 81.4053 6.7436 81.4549C6.16993 82.2993 7.05297 82.7218 7.13163 82.9835C7.6416 84.6895 7.5688 86.3262 7.99705 88.1641C8.11355 88.6594 8.43514 88.2355 8.48742 88.3291C9.01511 89.3385 8.18221 88.6773 8.22382 89.3484C8.29077 90.3601 8.41866 91.3439 8.59349 92.4071C8.74368 93.3273 8.94309 94.2469 9.15174 95.1127C9.31118 95.7661 9.59591 94.9328 9.73486 95.5181C10.5686 98.9711 11.5594 102.512 12.5351 105.834C12.7189 106.46 12.2483 106.201 12.2215 106.356C12.0314 107.44 13.2655 108.436 13.455 108.691C14.3216 109.875 14.2692 110.501 14.8656 111.615C17.5289 116.631 21.2492 122.365 25.0909 126.212C25.4369 126.564 25.7652 126.897 26.0933 127.226C31.668 132.798 36.0005 136.751 42.4896 140.093C42.9029 140.305 42.705 139.676 43.0637 139.852C46.5657 141.583 50.1753 143.209 53.9561 144.679C55.1008 145.124 56.2619 145.535 57.4422 145.906C57.8483 146.033 57.4109 145.419 58.0653 145.608C59.4082 145.991 61.0881 146.531 62.4142 147.044C63.062 147.293 62.0665 147.411 62.7235 147.655C64.2556 148.22 65.9514 148.666 67.6056 148.947C68.309 149.065 67.3526 148.402 68.2569 148.587C74.4277 149.821 80.5832 150.401 86.9852 151.109C87.4232 151.157 87.8 152.081 88.746 151.909C88.8177 151.655 88.8144 151.356 88.8458 151.084C98.088 150.951 107.299 150.158 116.401 148.068C116.784 147.98 116.013 147.664 116.751 147.49C117.384 147.339 118.011 147.181 118.634 147.019C121.987 146.136 125.271 144.831 128.832 143.598C129.248 143.45 129.414 144.326 130.528 143.629C130.725 143.511 132.418 142.505 132.772 142.094C132.818 142.037 132.316 141.857 132.862 141.545C136.037 139.736 139.328 137.746 142.43 135.779C142.93 135.462 142.674 136.177 143.033 135.952C145.595 134.346 147.903 132.021 150.22 130.352C151.768 129.224 151.779 130.227 153.016 130.009C153.198 129.973 154.034 129.118 154.387 129.35C155.278 129.944 155.705 131.183 156.701 131.767C156.924 131.892 157.894 130.427 157.64 131.584C157.625 131.665 156.897 132.734 156.82 133.095C156.765 133.35 157.351 133.359 157.161 133.808C156.969 134.257 156.371 134.354 155.981 135.023C155.595 135.685 156.165 135.826 155.115 136.882ZM133.382 26.4588C132.913 25.4061 131.751 26.3612 132.813 26.9204C132.865 26.9464 133.406 26.5123 133.382 26.4588ZM113.877 138.609C115.438 138.572 115.845 137.249 114.731 137.258C113.628 137.256 113.406 138.616 113.877 138.609ZM100.338 144.084C102.082 144.197 101.775 142.083 100.207 142.911C100.116 142.958 100.238 144.077 100.338 144.084ZM149.648 133.471C149.675 133.476 150.343 132.908 150.343 132.879C150.371 132.218 149.047 133.346 149.648 133.471ZM85.895 146.594C86.4329 146.849 87.9154 146.399 87.2383 146.095C86.6958 145.853 85.2257 146.281 85.895 146.594ZM83.7119 1.88008C83.6959 1.85635 83.061 1.79836 83.0668 1.92525C83.0867 2.33197 83.9752 2.27183 83.7119 1.88008ZM62.7443 141.969C63.4047 143.455 64.5494 144.561 64.7922 145.198C65.0993 145.78 64.4117 146.149 62.6452 144.53C62.3481 144.214 62.7752 144.454 63.1983 144.602C63.6084 144.739 64.0006 144.805 63.6565 144.451C62.5512 143.254 60.7151 142.408 61.2235 140.251C61.2799 140.066 61.5488 140.609 61.9081 141.052C62.2629 141.53 62.7092 141.887 62.749 141.974C62.7474 141.972 62.7458 141.971 62.7443 141.969ZM134.216 24.7492C134.215 24.7187 133.599 24.0849 133.569 24.085C132.899 24.0917 134.132 25.3594 134.216 24.7492ZM47.1467 7.2475C47.0802 7.22343 45.1729 8.03265 45.1334 8.10116C44.4851 9.2422 48.297 7.62267 47.1467 7.2475ZM152.938 79.9933C153.338 81.0158 153.271 82.1951 152.579 82.905C152.729 81.9362 152.831 80.9746 152.938 79.9933Z" fill="#201F1E"/>
<path d="M124.689 127.53C127.155 126.228 130.698 125.044 133.472 126.109L131.528 128.713C128.919 129.068 128.325 127.902 125.228 132.368C122.371 126.38 120.68 121.824 119.425 117.728C109.532 125.007 92.112 132.798 76.1586 130.303C60.1486 127.8 39.5565 136.487 28.1393 133.938C28.0793 133.978 27.0365 133.306 22.625 130.303C23.5119 130.15 24.6226 129.462 28.1393 125.082C29.9902 123.296 34.7803 127.33 38.7713 125.774C48.5463 118.968 59.5466 118.57 67.6443 118.968C75.7419 119.366 84.9582 114.853 88.5247 112.174C95.5812 106.872 102.265 108.4 105.95 106.625C109.635 104.851 110.11 100.477 108.531 94.8232C107.069 91.3037 108.643 79.494 111.972 73.9124L109.635 68.4308C108.53 65.6685 104.458 65.8211 100.593 65.9659L100.42 65.9723C100.536 66.0897 100.559 66.1654 100.525 66.2196C104.101 75.0105 83.1654 67.9197 98.7836 63.9022C93.5612 60.5976 94.6762 56.3149 97.5503 52.3722C100.432 48.419 105.083 49.0717 107.571 50.6198C110.059 52.1678 112.426 49.7825 113.593 52.0547C114.76 54.3269 115.143 52.3131 115.934 53.7926C115.934 53.7926 115.844 55.0179 116.704 54.8517C117.564 54.6856 118.662 55.2329 118.061 56.8549C117.459 58.4768 115.689 60.0932 115.808 61.521C115.885 62.4392 117.745 65.4484 120.741 69.2964C126.907 79.2204 134.827 77.0776 133.472 88.3508C132.644 95.2323 127.632 104.63 123.853 110.908C123.99 116.527 124.201 122.2 124.689 127.53Z" fill="#FFFDFD"/>
<path d="M124.689 127.53C127.155 126.228 130.698 125.044 133.472 126.109L131.528 128.713C128.919 129.068 128.325 127.902 125.228 132.368M124.689 127.53C124.84 129.179 125.018 130.796 125.228 132.368M124.689 127.53C122.645 105.217 125.46 76.8716 118.194 71.7698C115.669 69.9964 113.565 71.2411 111.972 73.9124M125.228 132.368C119.288 119.918 118.387 113.656 115.973 104.851M115.973 104.851C114.337 98.8843 115.387 93.4854 114.95 90.5927C114.706 88.9739 119.792 97.0275 115.973 104.851ZM115.973 104.851C111.48 114.054 105.267 118.552 96.4136 118.552M98.8256 63.9286C93.5553 60.6204 94.6686 56.3254 97.5503 52.3722C100.432 48.419 105.083 49.0717 107.571 50.6198C110.059 52.1678 112.426 49.7825 113.593 52.0547C114.76 54.3269 115.143 52.3131 115.934 53.7926C115.934 53.7926 115.844 55.0179 116.704 54.8517C117.564 54.6856 118.662 55.2329 118.061 56.8549C117.459 58.4768 115.689 60.0932 115.808 61.521C115.885 62.4392 117.745 65.4484 120.741 69.2964C126.907 79.2204 134.828 77.0776 133.472 88.3508C132.116 99.624 119.53 117.65 119.53 117.65C109.655 124.952 92.1686 132.806 76.1586 130.303C60.1486 127.8 39.5565 136.487 28.1393 133.938C28.0793 133.978 27.0365 133.306 22.625 130.303C23.5119 130.15 24.6226 129.462 28.1393 125.082C29.9902 123.296 34.7803 127.33 38.7713 125.774C48.5463 118.968 59.5466 118.57 67.6443 118.968C75.7419 119.366 84.9582 114.853 88.5247 112.174C95.5812 106.872 102.265 108.4 105.95 106.625C109.635 104.851 110.11 100.477 108.531 94.8232C107.069 91.3037 108.643 79.494 111.972 73.9124M98.8256 63.9286C99.2828 64.2156 100.141 65.6987 100.42 65.9723M98.8256 63.9286C100.869 68.5312 98.981 69.716 97.0342 69.1765C94.8989 68.5847 96.2841 69.2126 100.42 65.9723M100.42 65.9723C97.3626 64.3068 94.5541 66.2649 94.9594 67.5086C95.7709 68.1587 97.7313 67.0851 98.2132 67.5086C98.6951 67.9321 99.1971 67.1736 99.5017 66.9466C99.5062 66.162 100.958 66.5177 100.42 65.9723ZM100.42 65.9723C104.336 65.8263 108.514 65.6272 109.635 68.4308L111.972 73.9124M100.42 65.9723C104.491 75.1415 83.0214 67.9567 98.7836 63.9022" stroke="#201F1E" stroke-width="3"/>
</svg>
