<svg width="147" height="82" viewBox="0 0 147 82" fill="none" xmlns="http://www.w3.org/2000/svg">
<path d="M102.944 16.5518C102.965 16.5518 102.976 16.5838 102.976 16.6478C102.976 16.7118 102.965 16.7438 102.944 16.7438C102.603 16.7438 102.347 16.7758 102.176 16.8398C102.016 16.9038 101.904 17.0158 101.84 17.1758C101.787 17.3358 101.76 17.5704 101.76 17.8798V26.9998C101.76 28.0238 101.52 28.8558 101.04 29.4958C100.56 30.1358 99.8454 30.4558 98.8961 30.4558C98.5334 30.4558 98.2507 30.3918 98.0481 30.2638C97.8347 30.1358 97.7281 29.9704 97.7281 29.7678C97.7281 29.6078 97.7761 29.4798 97.8721 29.3838C97.9681 29.2878 98.1014 29.2398 98.2721 29.2398C98.4641 29.2398 98.6081 29.2824 98.7041 29.3678C98.8107 29.4531 98.8961 29.5544 98.9601 29.6718C99.0347 29.7998 99.1147 29.9064 99.2001 29.9918C99.2854 30.0878 99.4081 30.1358 99.5681 30.1358C99.9414 30.1358 100.224 29.9171 100.416 29.4798C100.608 29.0531 100.704 28.3384 100.704 27.3358V17.8478C100.704 17.5384 100.667 17.3091 100.592 17.1598C100.517 16.9998 100.368 16.8931 100.144 16.8398C99.9201 16.7758 99.5841 16.7438 99.1361 16.7438C99.1147 16.7438 99.1041 16.7118 99.1041 16.6478C99.1041 16.5838 99.1147 16.5518 99.1361 16.5518C99.4454 16.5518 99.7761 16.5624 100.128 16.5838C100.48 16.5944 100.843 16.5998 101.216 16.5998C101.568 16.5998 101.883 16.5944 102.16 16.5838C102.448 16.5624 102.709 16.5518 102.944 16.5518ZM113.252 18.3118C113.252 17.7891 113.135 17.3998 112.9 17.1438C112.676 16.8771 112.33 16.7438 111.86 16.7438C111.828 16.7438 111.812 16.7118 111.812 16.6478C111.812 16.5838 111.828 16.5518 111.86 16.5518C112.106 16.5518 112.356 16.5624 112.612 16.5838C112.868 16.5944 113.151 16.5998 113.46 16.5998C113.706 16.5998 113.956 16.5944 114.212 16.5838C114.468 16.5624 114.703 16.5518 114.916 16.5518C114.938 16.5518 114.948 16.5838 114.948 16.6478C114.948 16.7118 114.938 16.7438 114.916 16.7438C114.49 16.7438 114.17 16.8771 113.956 17.1438C113.743 17.3998 113.636 17.7891 113.636 18.3118V22.8558C113.636 23.6771 113.476 24.3811 113.156 24.9678C112.847 25.5438 112.41 25.9864 111.844 26.2958C111.279 26.6051 110.618 26.7598 109.86 26.7598C109.071 26.7598 108.378 26.6051 107.78 26.2958C107.194 25.9864 106.735 25.5491 106.404 24.9838C106.084 24.4078 105.924 23.7358 105.924 22.9678V17.8478C105.924 17.5384 105.892 17.3091 105.828 17.1598C105.764 16.9998 105.631 16.8931 105.428 16.8398C105.236 16.7758 104.948 16.7438 104.564 16.7438C104.543 16.7438 104.532 16.7118 104.532 16.6478C104.532 16.5838 104.543 16.5518 104.564 16.5518C104.82 16.5518 105.103 16.5624 105.412 16.5838C105.732 16.5944 106.074 16.5998 106.436 16.5998C106.81 16.5998 107.156 16.5944 107.476 16.5838C107.796 16.5624 108.074 16.5518 108.308 16.5518C108.34 16.5518 108.356 16.5838 108.356 16.6478C108.356 16.7118 108.34 16.7438 108.308 16.7438C107.924 16.7438 107.636 16.7758 107.444 16.8398C107.252 16.9038 107.124 17.0158 107.06 17.1758C106.996 17.3358 106.964 17.5704 106.964 17.8798V22.4078C106.964 23.6771 107.247 24.6424 107.812 25.3038C108.388 25.9544 109.188 26.2798 110.212 26.2798C111.172 26.2798 111.919 25.9811 112.452 25.3838C112.986 24.7758 113.252 23.9384 113.252 22.8718V18.3118ZM118.712 17.8638V25.1918C118.712 25.4798 118.744 25.6984 118.808 25.8478C118.872 25.9971 118.995 26.0984 119.176 26.1518C119.368 26.1944 119.64 26.2158 119.992 26.2158H121.736C122.355 26.2158 122.846 26.0238 123.208 25.6398C123.571 25.2451 123.806 24.7331 123.912 24.1038C123.912 24.0718 123.939 24.0611 123.992 24.0718C124.056 24.0718 124.088 24.0878 124.088 24.1198C124.056 24.4078 124.024 24.7598 123.992 25.1758C123.96 25.5811 123.944 25.9598 123.944 26.3118C123.944 26.4718 123.864 26.5518 123.704 26.5518H116.312C116.291 26.5518 116.28 26.5198 116.28 26.4558C116.28 26.3918 116.291 26.3598 116.312 26.3598C116.696 26.3598 116.984 26.3331 117.176 26.2798C117.379 26.2264 117.512 26.1198 117.576 25.9598C117.64 25.7998 117.672 25.5651 117.672 25.2558V17.8478C117.672 17.5384 117.64 17.3091 117.576 17.1598C117.512 16.9998 117.379 16.8931 117.176 16.8398C116.984 16.7758 116.696 16.7438 116.312 16.7438C116.291 16.7438 116.28 16.7118 116.28 16.6478C116.28 16.5838 116.291 16.5518 116.312 16.5518C116.568 16.5518 116.856 16.5624 117.176 16.5838C117.496 16.5944 117.832 16.5998 118.184 16.5998C118.558 16.5998 118.904 16.5944 119.224 16.5838C119.544 16.5624 119.827 16.5518 120.072 16.5518C120.104 16.5518 120.12 16.5838 120.12 16.6478C120.12 16.7118 120.104 16.7438 120.072 16.7438C119.688 16.7438 119.395 16.7758 119.192 16.8398C119 16.8931 118.872 16.9998 118.808 17.1598C118.744 17.3198 118.712 17.5544 118.712 17.8638ZM127.947 25.2558C127.947 25.5651 127.979 25.7998 128.043 25.9598C128.107 26.1198 128.235 26.2264 128.427 26.2798C128.63 26.3331 128.923 26.3598 129.307 26.3598C129.339 26.3598 129.355 26.3918 129.355 26.4558C129.355 26.5198 129.339 26.5518 129.307 26.5518C129.051 26.5518 128.763 26.5464 128.443 26.5358C128.134 26.5251 127.787 26.5198 127.403 26.5198C127.051 26.5198 126.71 26.5251 126.379 26.5358C126.059 26.5464 125.771 26.5518 125.515 26.5518C125.483 26.5518 125.467 26.5198 125.467 26.4558C125.467 26.3918 125.483 26.3598 125.515 26.3598C125.899 26.3598 126.193 26.3331 126.395 26.2798C126.598 26.2264 126.731 26.1198 126.795 25.9598C126.859 25.7998 126.891 25.5651 126.891 25.2558V17.8478C126.891 17.5384 126.859 17.3091 126.795 17.1598C126.731 16.9998 126.598 16.8931 126.395 16.8398C126.193 16.7758 125.899 16.7438 125.515 16.7438C125.483 16.7438 125.467 16.7118 125.467 16.6478C125.467 16.5838 125.483 16.5518 125.515 16.5518C125.771 16.5518 126.059 16.5624 126.379 16.5838C126.71 16.5944 127.051 16.5998 127.403 16.5998C127.787 16.5998 128.139 16.5944 128.459 16.5838C128.779 16.5624 129.062 16.5518 129.307 16.5518C129.339 16.5518 129.355 16.5838 129.355 16.6478C129.355 16.7118 129.339 16.7438 129.307 16.7438C128.923 16.7438 128.63 16.7758 128.427 16.8398C128.235 16.9038 128.107 17.0158 128.043 17.1758C127.979 17.3358 127.947 17.5704 127.947 17.8798V25.2558ZM137.948 26.5518H131.244C131.223 26.5518 131.212 26.5198 131.212 26.4558C131.212 26.3918 131.223 26.3598 131.244 26.3598C131.639 26.3598 131.932 26.3331 132.124 26.2798C132.316 26.2264 132.444 26.1198 132.508 25.9598C132.583 25.7998 132.62 25.5651 132.62 25.2558V17.8478C132.62 17.5384 132.583 17.3091 132.508 17.1598C132.444 16.9998 132.316 16.8931 132.124 16.8398C131.932 16.7758 131.639 16.7438 131.244 16.7438C131.223 16.7438 131.212 16.7118 131.212 16.6478C131.212 16.5838 131.223 16.5518 131.244 16.5518H137.676C137.772 16.5518 137.82 16.5998 137.82 16.6958L137.852 18.6638C137.852 18.6958 137.82 18.7171 137.756 18.7278C137.703 18.7278 137.676 18.7118 137.676 18.6798C137.644 18.1038 137.468 17.6611 137.148 17.3518C136.839 17.0424 136.433 16.8878 135.932 16.8878H134.956C134.593 16.8878 134.316 16.9144 134.124 16.9678C133.943 17.0211 133.815 17.1224 133.74 17.2718C133.676 17.4211 133.644 17.6398 133.644 17.9278V25.1918C133.644 25.4691 133.676 25.6824 133.74 25.8318C133.815 25.9811 133.937 26.0824 134.108 26.1358C134.289 26.1891 134.556 26.2158 134.908 26.2158H136.188C136.7 26.2158 137.127 26.0344 137.468 25.6718C137.82 25.2984 138.049 24.7971 138.156 24.1678C138.156 24.1358 138.188 24.1251 138.252 24.1358C138.316 24.1464 138.348 24.1678 138.348 24.1998C138.305 24.4771 138.268 24.8131 138.236 25.2078C138.215 25.6024 138.204 25.9704 138.204 26.3118C138.204 26.4718 138.119 26.5518 137.948 26.5518ZM137.052 22.8238C137.052 22.3544 136.935 22.0184 136.7 21.8158C136.476 21.6131 136.097 21.5118 135.564 21.5118H133.164V21.1758H135.612C136.124 21.1758 136.487 21.0904 136.7 20.9198C136.924 20.7384 137.036 20.4504 137.036 20.0558C137.036 20.0344 137.068 20.0238 137.132 20.0238C137.196 20.0238 137.228 20.0344 137.228 20.0558C137.228 20.3758 137.223 20.6264 137.212 20.8078C137.212 20.9784 137.212 21.1598 137.212 21.3518C137.212 21.5971 137.217 21.8371 137.228 22.0718C137.239 22.3064 137.244 22.5571 137.244 22.8238C137.244 22.8451 137.212 22.8558 137.148 22.8558C137.084 22.8558 137.052 22.8451 137.052 22.8238ZM99.5551 44.1918C99.5551 44.5118 99.5978 44.7571 99.6831 44.9278C99.7685 45.0878 99.9498 45.1998 100.227 45.2638C100.504 45.3278 100.915 45.3598 101.459 45.3598C101.491 45.3598 101.507 45.3918 101.507 45.4558C101.507 45.5198 101.491 45.5518 101.459 45.5518C101.118 45.5518 100.744 45.5464 100.339 45.5358C99.9445 45.5251 99.5125 45.5198 99.0431 45.5198C98.6911 45.5198 98.3498 45.5251 98.0191 45.5358C97.6991 45.5464 97.4111 45.5518 97.1551 45.5518C97.1338 45.5518 97.1231 45.5198 97.1231 45.4558C97.1231 45.3918 97.1338 45.3598 97.1551 45.3598C97.5498 45.3598 97.8431 45.3331 98.0351 45.2798C98.2271 45.2264 98.3551 45.1198 98.4191 44.9598C98.4831 44.7998 98.5151 44.5651 98.5151 44.2558V36.8478C98.5151 36.5384 98.4831 36.3091 98.4191 36.1598C98.3551 35.9998 98.2271 35.8931 98.0351 35.8398C97.8431 35.7758 97.5498 35.7438 97.1551 35.7438C97.1338 35.7438 97.1231 35.7118 97.1231 35.6478C97.1231 35.5838 97.1338 35.5518 97.1551 35.5518C97.4111 35.5518 97.6991 35.5624 98.0191 35.5838C98.3391 35.5944 98.6751 35.5998 99.0271 35.5998C99.3045 35.5998 99.6405 35.5838 100.035 35.5518C100.44 35.5198 100.846 35.5038 101.251 35.5038C101.859 35.5038 102.403 35.5944 102.883 35.7758C103.374 35.9571 103.763 36.2398 104.051 36.6238C104.339 37.0078 104.488 37.5091 104.499 38.1278C104.499 38.6931 104.392 39.1784 104.179 39.5838C103.976 39.9891 103.699 40.3251 103.347 40.5918C103.006 40.8478 102.627 41.0398 102.211 41.1678C101.795 41.2958 101.379 41.3598 100.963 41.3598C100.835 41.3598 100.702 41.3544 100.563 41.3438C100.435 41.3331 100.312 41.3118 100.195 41.2798C100.152 41.2691 100.136 41.2318 100.147 41.1678C100.168 41.0931 100.195 41.0611 100.227 41.0718C100.323 41.0931 100.419 41.1091 100.515 41.1198C100.622 41.1304 100.718 41.1358 100.803 41.1358C101.24 41.1358 101.651 41.0398 102.035 40.8478C102.419 40.6558 102.728 40.3624 102.963 39.9678C103.198 39.5624 103.315 39.0611 103.315 38.4638C103.315 37.8771 103.208 37.3864 102.995 36.9918C102.782 36.5864 102.488 36.2771 102.115 36.0638C101.742 35.8504 101.326 35.7438 100.867 35.7438C100.515 35.7438 100.243 35.7651 100.051 35.8078C99.8698 35.8398 99.7418 35.9358 99.6671 36.0958C99.5925 36.2558 99.5551 36.5171 99.5551 36.8798V44.1918ZM114.787 36.8798C114.787 36.5704 114.755 36.3358 114.691 36.1758C114.627 36.0158 114.493 35.9038 114.291 35.8398C114.099 35.7758 113.795 35.7438 113.379 35.7438C113.347 35.7438 113.331 35.7118 113.331 35.6478C113.331 35.5838 113.347 35.5518 113.379 35.5518C113.635 35.5518 113.923 35.5624 114.243 35.5838C114.563 35.5944 114.92 35.5998 115.315 35.5998C115.667 35.5998 116.008 35.5944 116.339 35.5838C116.669 35.5624 116.957 35.5518 117.203 35.5518C117.235 35.5518 117.251 35.5838 117.251 35.6478C117.251 35.7118 117.235 35.7438 117.203 35.7438C116.808 35.7438 116.509 35.7758 116.307 35.8398C116.104 35.8931 115.971 35.9998 115.907 36.1598C115.843 36.3091 115.811 36.5384 115.811 36.8478V44.2558C115.811 44.5651 115.843 44.7998 115.907 44.9598C115.971 45.1198 116.104 45.2264 116.307 45.2798C116.509 45.3331 116.808 45.3598 117.203 45.3598C117.235 45.3598 117.251 45.3918 117.251 45.4558C117.251 45.5198 117.235 45.5518 117.203 45.5518C116.957 45.5518 116.669 45.5464 116.339 45.5358C116.008 45.5251 115.667 45.5198 115.315 45.5198C114.92 45.5198 114.563 45.5251 114.243 45.5358C113.923 45.5464 113.635 45.5518 113.379 45.5518C113.347 45.5518 113.331 45.5198 113.331 45.4558C113.331 45.3918 113.347 45.3598 113.379 45.3598C113.795 45.3598 114.099 45.3331 114.291 45.2798C114.493 45.2264 114.627 45.1198 114.691 44.9598C114.755 44.7998 114.787 44.5651 114.787 44.2558V36.8798ZM108.083 40.5118V40.1758H115.235V40.5118H108.083ZM107.619 44.2558V36.8478C107.619 36.5384 107.581 36.3091 107.507 36.1598C107.443 35.9998 107.309 35.8931 107.107 35.8398C106.915 35.7758 106.621 35.7438 106.227 35.7438C106.205 35.7438 106.195 35.7118 106.195 35.6478C106.195 35.5838 106.205 35.5518 106.227 35.5518C106.483 35.5518 106.771 35.5624 107.091 35.5838C107.421 35.5944 107.763 35.5998 108.115 35.5998C108.509 35.5998 108.867 35.5944 109.187 35.5838C109.507 35.5624 109.795 35.5518 110.051 35.5518C110.072 35.5518 110.083 35.5838 110.083 35.6478C110.083 35.7118 110.072 35.7438 110.051 35.7438C109.656 35.7438 109.357 35.7758 109.155 35.8398C108.952 35.9038 108.813 36.0158 108.739 36.1758C108.675 36.3358 108.643 36.5704 108.643 36.8798V44.2558C108.643 44.5651 108.675 44.7998 108.739 44.9598C108.803 45.1198 108.936 45.2264 109.139 45.2798C109.352 45.3331 109.656 45.3598 110.051 45.3598C110.072 45.3598 110.083 45.3918 110.083 45.4558C110.083 45.5198 110.072 45.5518 110.051 45.5518C109.784 45.5518 109.491 45.5464 109.171 45.5358C108.861 45.5251 108.509 45.5198 108.115 45.5198C107.763 45.5198 107.421 45.5251 107.091 45.5358C106.76 45.5464 106.467 45.5518 106.211 45.5518C106.189 45.5518 106.179 45.5198 106.179 45.4558C106.179 45.3918 106.189 45.3598 106.211 45.3598C106.605 45.3598 106.904 45.3331 107.107 45.2798C107.309 45.2264 107.443 45.1198 107.507 44.9598C107.581 44.7998 107.619 44.5651 107.619 44.2558ZM121.375 41.1518L121.535 40.8318H125.775L125.887 41.1518H121.375ZM129.455 45.3598C129.498 45.3598 129.519 45.3918 129.519 45.4558C129.519 45.5198 129.498 45.5518 129.455 45.5518C129.146 45.5518 128.831 45.5411 128.511 45.5198C128.191 45.4984 127.882 45.4878 127.583 45.4878C127.253 45.4878 126.965 45.4984 126.719 45.5198C126.474 45.5411 126.202 45.5518 125.903 45.5518C125.861 45.5518 125.839 45.5198 125.839 45.4558C125.839 45.3918 125.861 45.3598 125.903 45.3598C126.469 45.3598 126.821 45.2798 126.959 45.1198C127.098 44.9491 127.061 44.6344 126.847 44.1758L123.295 36.6718L123.695 36.1758L120.591 43.5198C120.325 44.1704 120.309 44.6398 120.543 44.9278C120.778 45.2158 121.242 45.3598 121.935 45.3598C121.989 45.3598 122.015 45.3918 122.015 45.4558C122.015 45.5198 121.989 45.5518 121.935 45.5518C121.615 45.5518 121.322 45.5411 121.055 45.5198C120.789 45.4984 120.453 45.4878 120.047 45.4878C119.663 45.4878 119.354 45.4984 119.119 45.5198C118.895 45.5411 118.618 45.5518 118.287 45.5518C118.245 45.5518 118.223 45.5198 118.223 45.4558C118.223 45.3918 118.245 45.3598 118.287 45.3598C118.575 45.3598 118.826 45.3064 119.039 45.1998C119.253 45.0824 119.45 44.8851 119.631 44.6078C119.823 44.3198 120.031 43.9091 120.255 43.3758L123.631 35.4078C123.653 35.3758 123.69 35.3598 123.743 35.3598C123.797 35.3598 123.829 35.3758 123.839 35.4078L127.615 43.3598C127.861 43.8824 128.079 44.2931 128.271 44.5918C128.463 44.8798 128.65 45.0824 128.831 45.1998C129.023 45.3064 129.231 45.3598 129.455 45.3598ZM131.906 43.8078V35.9198L132.274 35.9518V43.8078C132.274 44.3624 132.37 44.7624 132.562 45.0078C132.754 45.2424 133.074 45.3598 133.522 45.3598C133.554 45.3598 133.57 45.3918 133.57 45.4558C133.57 45.5198 133.554 45.5518 133.522 45.5518C133.308 45.5518 133.09 45.5464 132.866 45.5358C132.642 45.5251 132.391 45.5198 132.114 45.5198C131.847 45.5198 131.591 45.5251 131.346 45.5358C131.1 45.5464 130.866 45.5518 130.642 45.5518C130.62 45.5518 130.61 45.5198 130.61 45.4558C130.61 45.3918 130.62 45.3598 130.642 45.3598C131.111 45.3598 131.436 45.2424 131.618 45.0078C131.81 44.7624 131.906 44.3624 131.906 43.8078ZM139.97 45.7438C139.97 45.7651 139.943 45.7758 139.89 45.7758C139.836 45.7864 139.799 45.7864 139.778 45.7758L132.418 36.8638C132.055 36.4264 131.73 36.1331 131.442 35.9838C131.164 35.8238 130.898 35.7438 130.642 35.7438C130.61 35.7438 130.594 35.7118 130.594 35.6478C130.594 35.5838 130.61 35.5518 130.642 35.5518C130.834 35.5518 131.026 35.5571 131.218 35.5678C131.42 35.5784 131.602 35.5838 131.762 35.5838C131.954 35.5838 132.135 35.5784 132.306 35.5678C132.476 35.5571 132.604 35.5518 132.69 35.5518C132.828 35.5518 132.924 35.6158 132.978 35.7438C133.031 35.8611 133.186 36.0744 133.442 36.3838L139.842 44.2398L139.97 45.7438ZM139.97 37.3118V45.7438L139.602 45.2478V37.3118C139.602 36.7571 139.506 36.3571 139.314 36.1118C139.132 35.8664 138.823 35.7438 138.386 35.7438C138.364 35.7438 138.354 35.7118 138.354 35.6478C138.354 35.5838 138.364 35.5518 138.386 35.5518C138.599 35.5518 138.818 35.5624 139.042 35.5838C139.276 35.5944 139.527 35.5998 139.794 35.5998C140.05 35.5998 140.3 35.5944 140.546 35.5838C140.802 35.5624 141.036 35.5518 141.25 35.5518C141.282 35.5518 141.298 35.5838 141.298 35.6478C141.298 35.7118 141.282 35.7438 141.25 35.7438C140.791 35.7438 140.46 35.8664 140.258 36.1118C140.066 36.3571 139.97 36.7571 139.97 37.3118ZM100.993 60.1038L102.961 56.7598C103.313 56.1624 103.446 55.6771 103.361 55.3038C103.286 54.9304 102.998 54.7438 102.497 54.7438C102.465 54.7438 102.449 54.7118 102.449 54.6478C102.449 54.5838 102.465 54.5518 102.497 54.5518C102.838 54.5518 103.158 54.5624 103.457 54.5838C103.756 54.5944 104.156 54.5998 104.657 54.5998C104.924 54.5998 105.137 54.5944 105.297 54.5838C105.468 54.5624 105.67 54.5518 105.905 54.5518C105.926 54.5518 105.937 54.5838 105.937 54.6478C105.937 54.7118 105.926 54.7438 105.905 54.7438C105.692 54.7438 105.436 54.8398 105.137 55.0318C104.838 55.2131 104.54 55.4638 104.241 55.7838C103.942 56.1038 103.665 56.4771 103.409 56.9038L101.329 60.3758L100.993 60.1038ZM100.065 60.1678L97.633 56.3918C97.2063 55.7304 96.865 55.2931 96.609 55.0798C96.3637 54.8558 96.1557 54.7438 95.985 54.7438C95.953 54.7438 95.937 54.7118 95.937 54.6478C95.937 54.5838 95.953 54.5518 95.985 54.5518C96.145 54.5518 96.3103 54.5624 96.481 54.5838C96.6517 54.5944 96.817 54.5998 96.977 54.5998C97.2757 54.5998 97.5957 54.5998 97.937 54.5998C98.2783 54.5891 98.5983 54.5784 98.897 54.5678C99.2063 54.5571 99.457 54.5518 99.649 54.5518C99.6703 54.5518 99.681 54.5838 99.681 54.6478C99.681 54.7118 99.6703 54.7438 99.649 54.7438C99.3397 54.7438 99.153 54.8504 99.089 55.0638C99.0357 55.2771 99.105 55.5278 99.297 55.8158L101.601 59.4478L100.065 60.1678ZM99.969 59.5918L101.745 59.4478V63.2558C101.745 63.5651 101.772 63.7998 101.825 63.9598C101.878 64.1198 101.985 64.2264 102.145 64.2798C102.305 64.3331 102.55 64.3598 102.881 64.3598C102.913 64.3598 102.929 64.3918 102.929 64.4558C102.929 64.5198 102.913 64.5518 102.881 64.5518C102.604 64.5518 102.294 64.5464 101.953 64.5358C101.622 64.5251 101.254 64.5198 100.849 64.5198C100.465 64.5198 100.097 64.5251 99.745 64.5358C99.393 64.5464 99.0783 64.5518 98.801 64.5518C98.7797 64.5518 98.769 64.5198 98.769 64.4558C98.769 64.3918 98.7797 64.3598 98.801 64.3598C99.1317 64.3598 99.377 64.3331 99.537 64.2798C99.7077 64.2264 99.8197 64.1198 99.873 63.9598C99.937 63.7998 99.969 63.5651 99.969 63.2558V59.5918ZM111.679 64.7438C110.911 64.7438 110.212 64.6104 109.583 64.3438C108.964 64.0664 108.431 63.6878 107.983 63.2078C107.545 62.7278 107.204 62.1784 106.959 61.5598C106.724 60.9304 106.607 60.2638 106.607 59.5598C106.607 58.6958 106.772 57.9384 107.103 57.2878C107.444 56.6371 107.892 56.0984 108.447 55.6718C109.001 55.2344 109.609 54.9091 110.271 54.6958C110.932 54.4824 111.588 54.3758 112.239 54.3758C113.028 54.3758 113.732 54.5198 114.351 54.8078C114.98 55.0851 115.513 55.4638 115.951 55.9438C116.388 56.4238 116.719 56.9678 116.943 57.5758C117.177 58.1838 117.295 58.8078 117.295 59.4478C117.295 60.1944 117.145 60.8878 116.847 61.5278C116.548 62.1678 116.137 62.7278 115.615 63.2078C115.103 63.6878 114.505 64.0664 113.823 64.3438C113.151 64.6104 112.436 64.7438 111.679 64.7438ZM112.207 64.3438C112.804 64.3438 113.337 64.1731 113.807 63.8318C114.276 63.4904 114.644 62.9891 114.911 62.3278C115.188 61.6664 115.327 60.8611 115.327 59.9118C115.327 58.9304 115.177 58.0558 114.879 57.2878C114.58 56.5198 114.153 55.9171 113.599 55.4798C113.044 55.0318 112.377 54.8078 111.599 54.8078C110.628 54.8078 109.881 55.1758 109.359 55.9118C108.836 56.6478 108.575 57.6664 108.575 58.9678C108.575 59.7464 108.665 60.4664 108.847 61.1278C109.028 61.7784 109.279 62.3491 109.599 62.8398C109.929 63.3198 110.313 63.6931 110.751 63.9598C111.199 64.2158 111.684 64.3438 112.207 64.3438ZM125.289 64.7438C124.35 64.7438 123.512 64.6104 122.776 64.3438C122.04 64.0771 121.416 63.7091 120.904 63.2398C120.392 62.7704 120.003 62.2264 119.736 61.6078C119.47 60.9891 119.336 60.3278 119.336 59.6238C119.336 58.8451 119.491 58.1358 119.8 57.4958C120.11 56.8558 120.547 56.3064 121.112 55.8478C121.678 55.3784 122.339 55.0158 123.096 54.7598C123.854 54.5038 124.681 54.3758 125.576 54.3758C126.078 54.3758 126.585 54.4131 127.097 54.4878C127.609 54.5624 128.025 54.6691 128.345 54.8078C128.462 54.8504 128.526 54.8878 128.536 54.9198C128.558 54.9411 128.574 55.0264 128.585 55.1758L128.793 57.3998C128.793 57.4318 128.766 57.4531 128.713 57.4638C128.659 57.4744 128.622 57.4584 128.601 57.4158C128.526 57.2131 128.393 56.9624 128.201 56.6638C128.019 56.3544 127.779 56.0558 127.481 55.7678C127.182 55.4691 126.825 55.2184 126.409 55.0158C125.993 54.8131 125.513 54.7118 124.969 54.7118C124.286 54.7118 123.662 54.8984 123.096 55.2718C122.542 55.6344 122.099 56.1571 121.768 56.8398C121.438 57.5224 121.272 58.3384 121.272 59.2878C121.272 60.0558 121.379 60.7544 121.592 61.3838C121.816 62.0131 122.126 62.5624 122.52 63.0318C122.926 63.4904 123.395 63.8478 123.929 64.1038C124.462 64.3491 125.048 64.4718 125.688 64.4718C126.094 64.4718 126.419 64.4238 126.665 64.3278C126.91 64.2318 127.086 64.0451 127.193 63.7678C127.31 63.4904 127.368 63.0798 127.368 62.5358C127.368 62.0238 127.336 61.6504 127.273 61.4158C127.219 61.1704 127.081 61.0104 126.857 60.9358C126.633 60.8611 126.27 60.8238 125.769 60.8238C125.705 60.8238 125.673 60.7811 125.673 60.6958C125.673 60.6104 125.699 60.5678 125.753 60.5678C126.499 60.6104 127.171 60.6371 127.769 60.6478C128.366 60.6478 128.995 60.6318 129.656 60.5998C129.699 60.5998 129.72 60.6371 129.72 60.7118C129.731 60.7864 129.71 60.8238 129.656 60.8238C129.475 60.8131 129.342 60.8504 129.257 60.9358C129.171 61.0104 129.118 61.1811 129.097 61.4478C129.075 61.7144 129.064 62.1304 129.064 62.6958C129.064 63.0478 129.075 63.3091 129.097 63.4798C129.118 63.6504 129.134 63.7784 129.145 63.8638C129.166 63.9384 129.177 64.0184 129.177 64.1038C129.177 64.1678 129.166 64.2104 129.145 64.2318C129.123 64.2531 129.075 64.2744 129.001 64.2958C128.414 64.4238 127.795 64.5304 127.144 64.6158C126.505 64.7011 125.886 64.7438 125.289 64.7438ZM133.472 60.8878L133.712 60.4398H138.32L138.432 60.8878H133.472ZM142.208 64.3598C142.261 64.3598 142.288 64.3918 142.288 64.4558C142.288 64.5198 142.261 64.5518 142.208 64.5518C141.888 64.5518 141.552 64.5411 141.2 64.5198C140.858 64.4984 140.528 64.4878 140.208 64.4878C139.845 64.4878 139.53 64.4984 139.264 64.5198C138.997 64.5411 138.698 64.5518 138.368 64.5518C138.325 64.5518 138.304 64.5198 138.304 64.4558C138.304 64.3918 138.325 64.3598 138.368 64.3598C138.805 64.3598 139.056 64.2744 139.12 64.1038C139.194 63.9224 139.098 63.5704 138.832 63.0478L135.584 56.6318L136.368 55.2558L133.184 62.2798C132.896 62.9198 132.89 63.4264 133.168 63.7998C133.445 64.1731 133.882 64.3598 134.48 64.3598C134.533 64.3598 134.56 64.3918 134.56 64.4558C134.56 64.5198 134.533 64.5518 134.48 64.5518C134.16 64.5518 133.866 64.5411 133.6 64.5198C133.333 64.4984 132.997 64.4878 132.592 64.4878C132.176 64.4878 131.84 64.4984 131.584 64.5198C131.338 64.5411 131.034 64.5518 130.672 64.5518C130.629 64.5518 130.608 64.5198 130.608 64.4558C130.608 64.3918 130.629 64.3598 130.672 64.3598C130.96 64.3598 131.205 64.3011 131.408 64.1838C131.621 64.0558 131.829 63.8318 132.032 63.5118C132.245 63.1811 132.485 62.7171 132.752 62.1198L136.224 54.4878C136.234 54.4558 136.282 54.4398 136.368 54.4398C136.453 54.4291 136.501 54.4451 136.512 54.4878L140.512 62.3598C140.768 62.8611 140.986 63.2611 141.168 63.5598C141.36 63.8478 141.536 64.0558 141.696 64.1838C141.866 64.3011 142.037 64.3598 142.208 64.3598Z" fill="#111111"/>
<path d="M79.3984 70.4861C78.1412 71.7352 76.3057 73.1263 74.8416 74.0592C74.382 74.3533 74.5478 74.1076 74.228 74.3033C73.6015 74.6838 73.0606 75.1009 72.4214 75.4432C72.2094 75.5557 72.3731 75.2558 72.1534 75.3763C70.9499 76.0342 69.8417 76.7102 68.5834 77.3067C66.4293 78.3223 64.205 79.1891 61.8605 79.7584C57.5984 80.7806 53.2504 81.4232 48.7939 81.6014C46.5408 81.697 43.8061 81.5278 41.4843 81.4216C41.213 81.4098 41.3635 81.5685 41.3111 81.5769C40.4857 81.6992 40.779 81.4233 40.2557 81.3368C38.1784 80.9901 35.8808 80.6229 33.8938 80.2463C33.0488 80.0842 33.8263 80.5598 33.0164 80.2053C32.9604 80.1808 33.2086 80.0783 32.9829 80.0081C32.4708 79.8513 31.4827 79.6236 31.0872 79.4981C30.3255 79.2575 30.1988 79.2209 29.4784 78.9942C28.5261 78.6904 27.4361 78.23 26.4237 77.8584C26.3896 77.8459 26.3556 77.8336 26.3217 77.8214C26.0995 77.7419 26.3297 78.0061 25.9714 77.8929C25.6187 77.783 24.6961 77.39 24.4089 77.2258C24.1118 77.0588 24.2945 76.9991 24.2508 76.9491C23.9029 76.539 22.7148 76.3768 22.5775 76.3198C20.0573 75.3129 18.0867 73.9724 16.0325 72.4555C14.467 71.3046 12.8767 69.98 11.5606 68.7159C11.175 68.346 10.8158 67.9875 10.4615 67.6266C9.35365 66.4942 8.43724 65.3407 7.48219 64.0322C7.34935 63.8484 7.34997 64.175 7.18737 63.949C5.46549 61.5418 4.15338 58.8909 3.24455 56.1234C3.15429 55.8459 3.4409 56.1392 3.36071 55.8591C2.84414 54.1423 2.42813 51.3906 1.50911 50.514C1.37248 49.839 1.23563 49.0788 1.14677 48.3476C1.07841 47.7897 1.0314 47.2889 1.01108 46.8177C0.985169 46.139 1.27681 46.7467 1.05472 45.9404C1.00437 45.7557 0.891784 46.0247 0.828977 45.7507C0.572791 44.5914 0.347568 43.277 0.248286 42.0016C0.227048 41.751 0.0872577 41.8188 0.061049 41.7468C-0.149502 41.1314 0.230883 40.1921 0.26229 39.9815C0.471869 38.6273 0.473723 37.5913 0.494598 36.3727C0.497856 36.1812 0.504316 35.9742 0.514166 35.7729C0.532337 35.423 0.321478 35.8291 0.333379 35.4887C0.40267 33.7353 0.66048 31.9399 1.06571 30.2816C1.15691 29.9141 1.24924 30.2865 1.30114 30.1129C1.532 29.3498 1.27134 29.1118 1.51325 28.3803C1.56461 28.2265 1.67783 28.3479 1.6996 28.323C2.04042 27.9356 1.8162 27.4668 1.84058 27.349C2.145 25.8712 2.78055 25.067 3.27496 23.7093C3.33573 23.5463 3.0221 23.8421 3.20483 23.3868C3.63959 22.3197 4.16745 21.2538 4.84445 20.2519C6.04348 18.4813 7.37853 16.7755 8.76945 15.2473C9.1038 14.8809 8.97788 15.2371 9.01039 15.2235C9.52867 15.0002 9.48443 14.5325 9.58063 14.4019C10.3471 13.3774 11.3678 12.7119 11.688 11.8123C14.3942 9.21181 17.2931 6.77233 20.597 4.97359C22.0538 4.18342 23.5801 3.54564 25.1351 3.03905C25.1994 3.01777 25.1494 3.21832 25.2773 3.17537C26.8262 2.67205 26.4403 2.54826 27.3597 1.88626C27.5938 1.71922 28.5036 1.82748 28.5806 1.83442C28.8657 1.85361 28.6772 2.1742 28.7681 2.16671C29.5138 2.10221 29.1589 1.34348 30.1269 1.0703C30.1574 1.06326 30.071 1.24465 30.1561 1.23675C30.4201 1.21284 30.6535 1.08806 30.9142 1.07478C31.511 1.04844 31.8001 1.38556 32.6135 0.969751C32.7184 0.918336 32.4472 0.489517 33.3365 0.338548C33.6887 0.270792 35.2602 0.0188963 35.7116 0.01381C36.1621 -0.00196815 35.8695 0.179508 35.9025 0.182569C37.1106 0.276855 36.6672 0.401701 37.2656 0.665685C37.6672 0.850516 37.7119 0.599495 37.7788 0.38762C37.8104 0.28566 37.8451 0.193836 37.9232 0.167909C38.1646 0.0873368 39.0284 0.253822 39.2397 0.314357C39.4515 0.373834 39.1858 0.466663 39.3737 0.50115C40.6158 0.732088 39.927 0.162253 40.3427 0.0593753C41.3263 -0.179328 42.0669 0.373528 42.9482 0.479381C43.1875 0.508531 42.9993 0.377619 43.214 0.380744C44.0661 0.397774 44.5599 0.6007 45.5375 0.555923C45.6959 0.54778 46.5169 0.328966 46.9902 0.628903C47.0567 0.671835 46.8369 0.770997 47.1918 0.851369C47.7221 0.970191 48.6776 1.16079 49.2566 1.2353C49.6847 1.28987 49.2436 0.980387 49.7626 1.15704C49.9926 1.23706 49.5296 1.26418 49.9618 1.40484C50.3923 1.54091 51.5058 1.81893 51.9257 1.94386C52.3447 2.06385 52.163 1.84117 52.1999 1.84058C52.425 1.83921 53.2543 2.03186 53.3248 2.06065C53.7862 2.22059 54.2389 2.3986 54.6781 2.59336C57.6293 3.8669 60.1402 5.6253 62.7988 7.29071C63.0418 7.4408 62.9756 7.19391 63.0136 7.21534C63.864 7.68368 62.9761 7.64751 63.4612 8.14418C63.5174 7.96418 63.6254 7.95187 63.8042 8.03179C63.9641 8.10272 64.1842 8.25373 64.4649 8.4272C64.7485 8.60322 64.6771 8.38956 64.71 8.39575C65.2372 8.51913 65.357 8.94166 65.3934 9.0363C65.5347 9.39117 65.957 9.4255 66.048 9.66824C66.1375 9.90922 65.6213 9.74181 66.1326 10.1533C66.3534 10.174 66.1809 9.61289 66.6015 9.89072C68.2253 10.9269 70.5603 13.6442 71.4677 14.8717C72.4002 16.0815 72.6853 16.4894 73.1216 17.2741C73.8014 18.6108 73.7658 18.1771 74.1852 18.8151C74.2168 18.8666 74.2506 18.9251 74.2871 18.9923C74.7682 19.8828 74.0337 19.6495 73.97 19.8306C73.904 20.0073 74.0817 20.0998 74.0799 20.2853C74.0775 20.4699 73.8618 20.1581 73.9841 20.5407C74.1039 20.9113 74.7166 21.8936 74.8864 21.9755C75.2554 22.1655 75.3607 21.5809 75.632 22.6434C75.6472 22.7048 75.4323 22.5646 75.498 22.7966C76.0135 24.6102 76.5911 26.4939 76.9513 28.3489C76.9995 28.6005 76.7759 28.4212 76.8017 28.5676C77.0651 30.1249 77.2115 29.4975 77.7153 30.2791C77.25 30.1778 77.1054 30.7024 77.312 31.8592C77.433 32.5634 77.5962 32.4095 77.7987 32.8408C77.8605 32.9736 77.8049 33.4977 77.904 33.5753C78.2288 33.8392 78.498 33.3123 78.5135 34.5672C78.5133 34.6222 78.337 34.4666 78.3477 34.655C78.4035 35.8574 78.7207 35.9839 78.816 37.306C78.8922 38.3408 78.6797 40.1799 78.5479 41.3451C78.069 41.286 78.0841 42.3787 78.3564 42.8675C78.2517 43.6204 78.1443 44.4348 77.9644 45.1496C77.9025 45.3951 77.795 45.2059 77.7742 45.2344C77.4507 45.6653 77.7013 46.0499 77.6795 46.2138C77.4259 47.9773 76.7984 49.3005 76.526 50.981C76.5163 51.0403 76.8091 51.2357 76.4362 51.591C76.411 51.6133 76.4367 51.0363 76.1808 51.7877C75.9255 52.5393 75.2693 53.8905 75.0467 54.9773C74.9942 55.2377 75.0235 55.9679 74.6412 56.3996C74.5896 56.4573 74.5252 56.3507 74.4396 56.43C74.1652 56.6871 74.4229 56.9768 74.0185 57.2475C73.839 57.3682 73.6447 57.5726 73.4675 57.8616C73.2483 58.2156 73.0448 58.6853 72.8878 59.2833C72.8782 59.317 73.013 59.6686 72.8491 59.9789C72.5899 60.4751 72.1466 61.1288 71.832 61.6157C71.6812 61.85 71.9185 61.7921 71.8947 61.8344C70.9283 63.4531 69.9423 64.4059 68.4952 65.7831C68.2304 66.0362 67.6206 66.9351 66.96 67.2666C66.237 67.6217 66.323 66.4993 65.0843 67.7512C64.5857 68.2423 64.4652 69.6455 63.0772 69.923C61.0529 71.4263 58.8744 72.2903 56.64 73.4445C56.5395 73.4963 56.3205 73.9026 56.0667 73.9986C55.6927 74.1397 55.4427 74.088 55.1721 74.1784C54.045 74.5478 53.0408 74.982 51.9203 75.2399C51.5709 75.319 51.5865 75.2162 51.3267 75.2354C51.2718 75.239 51.2035 75.2482 51.1132 75.266C50.5956 75.3671 50.3075 75.6125 49.5891 75.6447C49.0639 75.664 48.4737 75.3719 47.7841 75.4198C47.8064 75.7933 47.3299 75.8534 46.4869 76.0456C46.3254 76.0824 46.515 76.1927 46.4391 76.2168C46.1288 76.3179 45.8244 76.2399 45.5308 76.3404C45.459 76.3646 45.4671 76.4921 45.4087 76.519C44.9129 76.7543 44.0455 76.5275 43.8994 76.4853C43.3327 76.3302 43.0854 76.5079 42.6559 76.4506C42.2293 76.3917 42.8588 76.2752 42.3633 76.2475C41.3376 76.1903 40.0263 76.21 38.9918 76.1458C38.5814 76.121 38.8512 76.307 38.7923 76.3074C37.925 76.3011 37.095 76.0205 36.5692 76.2805C36.1249 75.3105 36.0375 76.3111 34.8624 75.8264C34.7701 75.7847 34.7729 75.3562 35.1389 75.394C35.4944 75.4278 36.0034 75.672 36.5239 75.6588C36.6418 75.6588 37.3746 75.3661 37.4609 75.3493C38.1954 75.2452 38.2433 75.8619 38.2814 75.9011C38.702 76.3064 39.5733 75.9256 39.7908 75.9006C40.8084 75.7965 41.6731 75.87 42.5199 75.7446C43.0743 75.6614 43.1075 75.2519 43.5402 75.2404C44.9771 75.1912 45.5416 75.7073 46.8468 75.0657C47.1277 74.9251 46.7774 74.5267 47.8599 74.7355C47.9242 74.7499 48.7352 74.9577 49.1535 74.6831C49.2045 74.6489 49.1818 74.5215 49.2518 74.4989C49.7262 74.3482 50.0754 74.3906 50.578 74.2393C50.7423 74.1905 50.9088 74.1374 51.071 74.0853C51.4484 73.9655 51.8654 73.8353 52.2725 73.7552C52.6325 73.6848 53.1449 73.7822 53.3342 73.7844C53.8617 73.7988 54.2822 73.3588 54.6385 73.4491C55.0052 73.5357 54.5276 74.0471 55.3603 73.8814C55.2714 73.5556 55.2137 73.2084 55.1381 72.8753C56.8013 72.2517 58.446 71.5953 60.0106 70.7046C60.2033 70.5939 59.9169 70.5477 60.1203 70.4248C60.9771 69.9043 61.7918 69.5537 62.6285 68.9299C63.2752 68.4461 63.8766 67.7756 64.502 67.2253C65.1436 67.2176 66.0289 66.3205 66.7091 65.7337C66.9496 65.5275 67.004 65.6165 67.1908 65.4855C67.8884 64.9836 67.3632 65.0163 67.4904 64.8164C68.0155 63.9548 68.6392 64.4254 69.4029 63.5112C69.4466 63.4629 69.6101 62.6132 69.6477 62.5182C69.9165 61.8958 69.8287 62.5199 70.102 62.2081C70.5923 61.6366 70.9783 61.2503 71.3275 60.434C71.4315 60.1914 71.5037 59.5439 71.8948 59.1926C71.9466 59.1461 72.0526 59.2379 72.0827 59.1943C72.6113 58.386 72.216 58.1867 72.2707 57.649C72.2765 57.5832 72.2893 57.5159 72.3074 57.448C72.4586 56.9005 72.9179 56.3204 73.0425 56.1936C73.4094 55.821 73.0074 56.5684 73.0192 56.5993C73.1584 56.9696 73.3368 56.3421 73.5245 55.8837C73.9417 55.9583 74.1522 55.2967 73.7173 55.4078C73.6692 55.4216 73.576 55.7969 73.5245 55.8837C73.2852 55.3368 73.4926 54.6056 74.1326 53.9418C74.4311 53.6317 74.5089 54.0518 74.8257 52.8999C74.9671 52.3789 74.6283 52.4821 74.7052 52.0075C74.8806 50.9251 75.556 49.6697 75.8095 48.5868C75.9012 48.1951 75.646 48.5308 75.7027 48.2624C75.8507 47.5507 76.1198 46.9582 76.2187 46.2352C76.2273 46.17 76.032 46.2906 76.0782 46.0707C76.419 44.4035 76.7539 42.9554 76.8972 41.1871C76.9722 40.3323 76.9252 38.8061 76.9172 37.9145C76.9246 36.3832 76.9782 34.4599 76.717 33.1541C76.5488 32.3091 76.4123 32.5239 76.2398 32.178C75.9084 31.5169 76.0268 30.1993 76.0466 30.0255C76.0482 30.018 76.2439 30.7385 76.242 30.3291C76.3658 30.0684 76.049 30.0331 76.0466 30.0255C76.0666 29.9115 75.7508 28.4432 75.6397 28.1691C75.5817 28.0171 75.4539 28.1446 75.4264 28.0647C74.7775 26.1751 74.1228 24.2925 73.4849 22.3595C73.4755 22.3251 73.658 22.3147 73.6337 22.2342C73.2889 21.0881 72.8192 20.4873 72.3248 19.6163C72.3196 19.6072 72.3144 19.598 72.3092 19.5889C71.8842 18.8881 71.5603 18.2808 71.5186 17.6677C71.1142 17.1054 70.6108 16.2199 70.2935 15.7106C69.9788 15.2019 69.6615 15.3627 69.6241 15.3278C68.4 14.2569 67.8829 13.4561 66.6538 12.2881C66.0722 11.7313 64.8126 10.7486 64.0962 10.2759C63.6053 9.94631 63.3232 9.68165 62.8993 9.42737C62.831 9.38636 62.7602 9.34561 62.6856 9.30503C62.6075 9.26239 62.6002 9.4382 62.5743 9.42834C61.8581 9.1788 62.3587 9.06265 62.2663 8.92369C61.9369 8.42266 61.7225 8.12813 60.8776 7.71675C60.6827 7.62157 59.8704 7.73395 59.5288 7.55751C59.0838 7.327 59.3445 7.2629 58.8751 7.03096C58.8349 7.01132 58.782 7.116 58.5103 6.94781C57.2522 6.16782 55.8625 5.37648 54.4389 4.76134C54.245 4.6769 54.4184 4.95759 54.1354 4.83834C54.0189 4.78948 53.9005 4.74009 53.7788 4.68948C52.6283 4.20999 51.3292 3.79276 50.139 3.42374C49.8177 3.32395 50.0524 3.24566 49.9902 3.19088C49.6024 2.85618 48.8986 3.06135 48.795 3.04853C46.2909 2.73693 44.3658 2.23832 41.7288 2.25488C41.5842 2.25499 40.475 2.58053 39.9902 2.25907C39.958 2.23737 39.4744 1.90644 39.0389 2.12316C39.0122 2.13684 39.3141 2.3041 38.7849 2.28392C38.5165 2.27414 38.1663 2.29792 37.7926 2.3031C37.4597 2.30769 37.0942 2.30449 36.7496 2.23808C36.5322 2.1954 35.9767 1.91654 35.3469 2.25792C35.3016 2.27776 34.3869 2.99875 33.9577 2.67784C33.887 2.62583 33.8715 2.19188 33.1224 2.56553C32.9805 2.63838 33.2728 2.67212 32.8892 2.81439C32.3054 3.0328 31.4765 3.11849 30.7892 3.50451C30.6682 3.57194 30.2057 4.00004 29.7092 3.92526C29.631 3.91362 29.7196 3.73889 29.4845 3.79483C28.3648 4.0619 27.2602 4.54934 26.1413 4.88718C25.7452 5.00821 25.8572 4.71735 25.4323 4.82506C25.0078 4.93161 24.1833 5.22646 23.817 5.51334C23.454 5.79837 24.0471 5.91826 23.461 6.23083C22.9052 6.53071 22.3544 6.82912 21.8195 7.13264C19.8741 8.23689 17.9586 9.4377 16.2032 10.8962C15.8714 11.1742 16.2266 11.0377 15.7489 11.4576C13.9613 12.9859 11.2911 16.0589 9.81559 17.519C8.61656 18.6821 9.77413 16.9372 8.91953 17.8823C8.50763 18.3421 8.44928 19.1291 8.37341 19.2549C7.81893 20.1778 7.28329 20.8127 6.76839 21.5395C6.60939 21.7631 6.45623 22.0067 6.31469 22.2813C6.20259 22.5016 6.47073 22.3756 6.37518 22.5621C6.05216 23.2005 5.65546 23.8672 5.39687 24.5303C5.28215 24.8281 5.42519 24.823 5.30941 25.0914C5.03552 25.7388 4.78123 26.3142 4.45848 26.9463C4.42902 27.0045 4.40023 26.5434 4.23848 27.0521C3.97927 27.8749 3.5901 28.8942 3.50272 29.9023C3.47814 30.2016 3.76535 30.2707 3.44255 30.8558C3.37656 30.9791 3.05064 30.7461 3.22672 31.5347C3.25201 31.6694 3.47213 32.9559 3.13933 33.5241C3.04987 33.6733 2.71196 34.0509 2.72514 34.4126C2.72814 34.4611 2.90509 34.2847 2.89427 34.5778C2.87129 35.1884 2.83947 35.8122 2.83491 36.4301C2.83061 36.9063 2.82741 37.3613 2.83416 37.8188C2.83859 38.1224 3.01827 37.6801 3.0196 38.1254C3.02927 39.3433 2.8982 40.9222 2.86255 41.9514C2.85403 42.328 2.70907 42.0736 2.69473 42.1013C2.46777 42.5569 2.82834 42.7928 2.86364 42.9368C3.09382 43.8544 3.09972 44.6863 3.30859 45.642C3.36571 45.9003 3.48693 45.6883 3.50991 45.7376C3.74158 46.2592 3.39345 45.909 3.4238 46.2558C3.47263 46.799 3.54933 47.3363 3.64607 47.9108C3.72277 48.368 3.81837 48.8242 3.91804 49.2561C3.99817 49.5991 4.0937 49.1745 4.16414 49.482C4.58666 51.2991 5.10547 53.1606 5.63975 54.8979C5.74062 55.2254 5.53489 55.0724 5.52983 55.1505C5.4923 55.6933 6.04865 56.2534 6.1395 56.3922C6.5536 57.0333 6.56014 57.3471 6.86394 57.9373C8.2377 60.6346 10.2376 63.7163 12.2936 65.7621C12.4433 65.9141 12.5888 66.0608 12.7299 66.2023C15.6368 69.1051 17.933 71.1776 21.3193 72.9577C21.5342 73.0702 21.406 72.7911 21.5923 72.8854C23.4513 73.8294 25.3676 74.6876 27.3664 75.4704C27.9335 75.692 28.5078 75.8988 29.0908 76.0883C29.3028 76.1572 29.0571 75.8863 29.3985 75.9902C30.0992 76.2018 30.9802 76.4859 31.6788 76.7403C32.02 76.8641 31.5111 76.8789 31.8565 77.0003C32.6618 77.2823 33.5483 77.5143 34.411 77.6727C34.7779 77.7391 34.2669 77.445 34.7398 77.544C37.9661 78.2047 41.1892 78.5247 44.5339 78.8272C44.7629 78.8474 44.9604 79.2183 45.4532 79.1504C45.4906 79.0488 45.489 78.9291 45.5054 78.8205C50.3327 78.7737 55.1361 78.3205 59.8795 77.2204C60.0789 77.1737 59.6901 77.067 60.0751 76.9753C60.4117 76.8947 60.7455 76.8105 61.0771 76.7237C62.8493 76.2567 64.5747 75.5716 66.4128 74.8768C66.6281 74.7934 66.6702 75.157 67.2588 74.8057C67.3631 74.7462 68.2532 74.2308 68.4489 74.0352C68.4749 74.0081 68.2354 73.9579 68.5214 73.7954C70.1855 72.8502 71.8991 71.7945 73.5011 70.7364C73.7594 70.5657 73.5954 70.8981 73.7804 70.7772C75.0995 69.9125 76.3282 68.7232 77.5071 67.8099C78.2938 67.1936 78.2375 67.6544 78.8192 67.4774C78.9055 67.4498 79.3379 67.0016 79.4849 67.0875C79.8551 67.3098 79.9791 67.8573 80.3982 68.0679C80.4927 68.1133 81.0083 67.382 80.8316 67.9305C80.8205 67.9689 80.4346 68.5016 80.3796 68.671C80.3412 68.7904 80.6061 68.7616 80.4962 68.9773C80.3852 69.193 80.1084 69.271 79.8946 69.5968C79.6825 69.9189 79.9361 69.9509 79.3984 70.4861ZM68.7642 13.4659C68.4879 12.9513 68.0078 13.3174 68.5296 13.6432C68.5553 13.6585 68.7785 13.4921 68.7642 13.4659ZM58.6208 71.9663C59.3968 71.8732 59.6589 71.2881 59.1082 71.3494C58.5607 71.4058 58.3871 71.9925 58.6208 71.9663ZM51.5692 74.7844C52.4603 74.7799 52.3635 73.9267 51.532 74.3114C51.4837 74.3329 51.5179 74.784 51.5692 74.7844ZM77.056 69.2656C77.0681 69.2665 77.4129 68.9685 77.4147 68.9553C77.4667 68.6536 76.782 69.2463 77.056 69.2656ZM44.07 76.0368C44.3463 76.1349 45.1175 75.9398 44.7698 75.8245C44.4911 75.7332 43.7254 75.9167 44.07 76.0368ZM42.9537 0.772304C42.9453 0.762621 42.6163 0.734641 42.6201 0.78553C42.633 0.948424 43.0929 0.931227 42.9537 0.772304ZM32.0311 73.5939C32.3905 74.39 33.0198 74.9187 33.1641 75.2038C33.344 75.4617 33.0066 75.6058 32.1203 74.799C31.9715 74.6419 32.1735 74.772 32.3771 74.8605C32.5735 74.9432 32.7637 74.9939 32.5829 74.819C31.9883 74.2134 31.1752 73.7428 31.3735 72.6753C31.3965 72.5822 31.5016 72.8551 31.6554 73.0911C31.8065 73.3435 32.0116 73.55 32.0333 73.5963C32.0326 73.5955 32.0319 73.5947 32.0311 73.5939ZM69.049 12.7305C69.0471 12.7164 68.7282 12.3882 68.7144 12.3865C68.4064 12.3481 69.0457 13.0054 69.049 12.7305ZM24.0597 3.66534C24.027 3.6576 23.0451 4.0821 23.0226 4.11359C22.6497 4.62237 24.6174 3.77007 24.0597 3.66534ZM78.5336 41.3624C78.685 41.8853 78.6448 42.4903 78.3569 42.8652C78.4304 42.365 78.4821 41.8688 78.5336 41.3624Z" fill="#201F1E"/>
<path d="M64.4582 64.9891C65.7242 64.3152 67.5438 63.7025 68.9682 64.2539L67.9702 65.6018C66.63 65.7856 66.3254 65.1819 64.7351 67.4937C63.268 64.3943 62.3995 62.0357 61.7552 59.9153C56.6746 63.6834 47.7294 67.7161 39.5371 66.425C31.3157 65.1293 20.7414 69.626 14.8786 68.3065C14.8477 68.327 14.3122 67.9792 12.0469 66.425C12.5023 66.3454 13.0727 65.9894 14.8786 63.7223C15.829 62.7976 18.2888 64.8857 20.3382 64.0803C25.3578 60.5574 31.0066 60.3514 35.1649 60.5574C39.3231 60.7634 44.0558 58.4273 45.8872 57.0402C49.5109 54.2958 52.9431 55.0867 54.8355 54.1681C56.7278 53.2494 56.9715 50.9856 56.1608 48.0588C55.4101 46.2369 56.2184 40.1237 57.9277 37.2344L56.7278 34.3968C56.1605 32.9669 54.0691 33.0459 52.0845 33.1209L51.9956 33.1242C52.0551 33.185 52.0673 33.2241 52.0497 33.2522C53.8861 37.8028 43.1352 34.1322 51.1554 32.0526C48.4736 30.342 49.0462 28.1251 50.522 26.0841C52.0018 24.0378 54.3901 24.3756 55.6679 25.177C56.9456 25.9783 58.1609 24.7436 58.7601 25.9198C59.3593 27.096 59.5562 26.0535 59.9622 26.8194C59.9622 26.8194 59.9161 27.4537 60.3578 27.3677C60.7996 27.2817 61.3634 27.565 61.0545 28.4046C60.7456 29.2442 59.8367 30.0809 59.8978 30.82C59.9371 31.2953 60.8921 32.853 62.4308 34.8449C65.597 39.982 69.6644 38.8728 68.9682 44.7084C68.5432 48.2705 65.9695 53.1353 64.0286 56.385C64.0992 59.2935 64.2076 62.2304 64.4582 64.9891Z" fill="#201F1E"/>
<path d="M64.4582 64.9891C65.7242 64.3152 67.5438 63.7025 68.9682 64.2539L67.9702 65.6018C66.63 65.7856 66.3254 65.1818 64.7351 67.4937M64.4582 64.9891C64.5358 65.8431 64.6271 66.68 64.7351 67.4937M64.4582 64.9891C63.4087 53.4391 64.854 38.7662 61.123 36.1253C59.826 35.2072 58.7458 35.8516 57.9277 37.2344M64.7351 67.4937C61.6846 61.0491 61.2221 57.8077 59.9822 53.2494M59.9822 53.2494C59.1421 50.161 59.6814 47.3663 59.4572 45.8689C59.3317 45.0309 61.9434 49.1998 59.9822 53.2494ZM59.9822 53.2494C57.675 58.0134 54.4845 60.3417 49.9383 60.3417M51.1769 32.0663C48.4705 30.3538 49.0422 28.1305 50.522 26.0841C52.0018 24.0378 54.3901 24.3756 55.6679 25.177C56.9456 25.9783 58.1609 24.7436 58.7601 25.9198C59.3593 27.096 59.5562 26.0535 59.9622 26.8194C59.9622 26.8194 59.9161 27.4537 60.3578 27.3677C60.7996 27.2817 61.3634 27.565 61.0545 28.4046C60.7456 29.2442 59.8367 30.0809 59.8978 30.82C59.9371 31.2953 60.8921 32.853 62.4308 34.8449C65.597 39.982 69.6644 38.8728 68.9682 44.7084C68.272 50.5439 61.8091 59.8752 61.8091 59.8752C56.7381 63.6548 47.7584 67.7207 39.5371 66.425C31.3157 65.1293 20.7414 69.626 14.8786 68.3066C14.8477 68.3269 14.3122 67.9792 12.0469 66.425C12.5023 66.3454 13.0727 65.9894 14.8786 63.7223C15.829 62.7976 18.2888 64.8857 20.3382 64.0803C25.3578 60.5574 31.0066 60.3514 35.1649 60.5574C39.3231 60.7634 44.0558 58.4273 45.8872 57.0402C49.5109 54.2958 52.9431 55.0867 54.8355 54.1681C56.7278 53.2494 56.9715 50.9856 56.1608 48.0588C55.4101 46.2369 56.2184 40.1237 57.9277 37.2344M51.1769 32.0663C51.4117 32.2149 51.8525 32.9826 51.9956 33.1242M51.1769 32.0663C52.2262 34.4488 51.2567 35.0621 50.257 34.7828C49.1605 34.4765 49.8718 34.8015 51.9956 33.1242M51.9956 33.1242C50.4257 32.262 48.9834 33.2757 49.1916 33.9194C49.6083 34.256 50.615 33.7002 50.8624 33.9194C51.1099 34.1387 51.3677 33.746 51.5241 33.6286C51.5264 33.2224 52.272 33.4065 51.9956 33.1242ZM51.9956 33.1242C54.0063 33.0486 56.152 32.9456 56.7278 34.3968L57.9277 37.2344M51.9956 33.1242C54.086 37.8706 43.0612 34.1514 51.1554 32.0526" stroke="#201F1E" stroke-width="2"/>
</svg>
