<svg width="85" height="92" viewBox="0 0 85 92" fill="none" xmlns="http://www.w3.org/2000/svg">
<path d="M11.7609 16.74C11.7609 18.36 11.6209 19.66 11.3409 20.64C11.0809 21.64 10.6409 22.45 10.0209 23.07C9.4009 23.69 8.5109 24.25 7.3509 24.75L7.3209 24.78C7.2809 24.78 7.2309 24.73 7.1709 24.63C7.1309 24.53 7.1309 24.47 7.1709 24.45C8.1509 23.89 8.8309 23.05 9.2109 21.93C9.6109 20.83 9.8109 19.37 9.8109 17.55V2.43C9.8109 1.83 9.7409 1.39 9.6009 1.11C9.4809 0.829999 9.2409 0.639998 8.8809 0.539998C8.5209 0.419999 7.9609 0.359999 7.2009 0.359999C7.1609 0.359999 7.1409 0.299999 7.1409 0.179999C7.1409 0.0599998 7.1609 0 7.2009 0L8.7609 0.0299996C9.6009 0.0699991 10.2609 0.0899988 10.7409 0.0899988C11.2609 0.0899988 11.9009 0.0699991 12.6609 0.0299996L13.9809 0C14.0209 0 14.0409 0.0599998 14.0409 0.179999C14.0409 0.299999 14.0209 0.359999 13.9809 0.359999C13.3209 0.359999 12.8409 0.419999 12.5409 0.539998C12.2409 0.659999 12.0309 0.87 11.9109 1.17C11.8109 1.45 11.7609 1.89 11.7609 2.49V16.74ZM32.4403 3.3C32.4403 1.34 31.5703 0.359999 29.8303 0.359999C29.7703 0.359999 29.7403 0.299999 29.7403 0.179999C29.7403 0.0599998 29.7703 0 29.8303 0L31.1203 0.0299996C31.8403 0.0699991 32.4103 0.0899988 32.8303 0.0899988C33.1703 0.0899988 33.6603 0.0699991 34.3003 0.0299996L35.5603 0C35.6003 0 35.6203 0.0599998 35.6203 0.179999C35.6203 0.299999 35.6003 0.359999 35.5603 0.359999C33.9603 0.359999 33.1603 1.34 33.1603 3.3V11.82C33.1603 14.12 32.5203 15.92 31.2403 17.22C29.9603 18.5 28.2403 19.14 26.0803 19.14C24.6003 19.14 23.3003 18.85 22.1803 18.27C21.0803 17.69 20.2203 16.87 19.6003 15.81C19.0003 14.73 18.7003 13.47 18.7003 12.03V2.43C18.7003 1.83 18.6403 1.39 18.5203 1.11C18.4003 0.829999 18.1603 0.639998 17.8003 0.539998C17.4603 0.419999 16.9103 0.359999 16.1503 0.359999C16.1103 0.359999 16.0903 0.299999 16.0903 0.179999C16.0903 0.0599998 16.1103 0 16.1503 0L17.6203 0.0299996C18.4603 0.0699991 19.1403 0.0899988 19.6603 0.0899988C20.2003 0.0899988 20.9103 0.0699991 21.7903 0.0299996L23.1703 0C23.2303 0 23.2603 0.0599998 23.2603 0.179999C23.2603 0.299999 23.2303 0.359999 23.1703 0.359999C22.4303 0.359999 21.8803 0.419999 21.5203 0.539998C21.1803 0.659999 20.9503 0.87 20.8303 1.17C20.7103 1.45 20.6503 1.89 20.6503 2.49V10.98C20.6503 13.34 21.1803 15.14 22.2403 16.38C23.3003 17.62 24.8003 18.24 26.7403 18.24C28.5403 18.24 29.9403 17.68 30.9403 16.56C31.9403 15.42 32.4403 13.85 32.4403 11.85V3.3ZM41.7775 16.2C41.7775 16.78 41.8375 17.2 41.9575 17.46C42.0775 17.72 42.2975 17.9 42.6175 18C42.9375 18.08 43.4575 18.12 44.1775 18.12H47.4475C48.5875 18.12 49.4975 17.77 50.1775 17.07C50.8575 16.37 51.3075 15.4 51.5275 14.16C51.5275 14.1 51.5775 14.08 51.6775 14.1C51.7975 14.1 51.8575 14.13 51.8575 14.19C51.6775 15.85 51.5875 17.22 51.5875 18.3C51.5875 18.46 51.5575 18.58 51.4975 18.66C51.4375 18.72 51.3175 18.75 51.1375 18.75H37.2775C37.2375 18.75 37.2175 18.69 37.2175 18.57C37.2175 18.45 37.2375 18.39 37.2775 18.39C38.0375 18.39 38.5875 18.34 38.9275 18.24C39.2875 18.14 39.5275 17.95 39.6475 17.67C39.7675 17.37 39.8275 16.92 39.8275 16.32V2.43C39.8275 1.83 39.7675 1.39 39.6475 1.11C39.5275 0.829999 39.2875 0.639998 38.9275 0.539998C38.5875 0.419999 38.0375 0.359999 37.2775 0.359999C37.2375 0.359999 37.2175 0.299999 37.2175 0.179999C37.2175 0.0599998 37.2375 0 37.2775 0L38.7475 0.0299996C39.5875 0.0699991 40.2675 0.0899988 40.7875 0.0899988C41.3475 0.0899988 42.0475 0.0699991 42.8875 0.0299996L44.3275 0C44.3875 0 44.4175 0.0599998 44.4175 0.179999C44.4175 0.299999 44.3875 0.359999 44.3275 0.359999C43.5875 0.359999 43.0375 0.419999 42.6775 0.539998C42.3175 0.639998 42.0775 0.839999 41.9575 1.14C41.8375 1.42 41.7775 1.86 41.7775 2.46V16.2ZM58.1936 16.32C58.1936 16.94 58.2536 17.39 58.3736 17.67C58.4936 17.95 58.7236 18.14 59.0636 18.24C59.4236 18.34 59.9836 18.39 60.7436 18.39C60.8036 18.39 60.8336 18.45 60.8336 18.57C60.8336 18.69 60.8036 18.75 60.7436 18.75C60.1436 18.75 59.6636 18.74 59.3036 18.72L57.1736 18.69L55.1036 18.72C54.7436 18.74 54.2536 18.75 53.6336 18.75C53.5736 18.75 53.5436 18.69 53.5436 18.57C53.5436 18.45 53.5736 18.39 53.6336 18.39C54.3936 18.39 54.9436 18.34 55.2836 18.24C55.6436 18.14 55.8836 17.95 56.0036 17.67C56.1436 17.37 56.2136 16.92 56.2136 16.32V2.43C56.2136 1.83 56.1436 1.39 56.0036 1.11C55.8836 0.829999 55.6436 0.639998 55.2836 0.539998C54.9436 0.419999 54.3936 0.359999 53.6336 0.359999C53.5736 0.359999 53.5436 0.299999 53.5436 0.179999C53.5436 0.0599998 53.5736 0 53.6336 0L55.1036 0.0299996C55.9436 0.0699991 56.6336 0.0899988 57.1736 0.0899988C57.7736 0.0899988 58.4936 0.0699991 59.3336 0.0299996L60.7436 0C60.8036 0 60.8336 0.0599998 60.8336 0.179999C60.8336 0.299999 60.8036 0.359999 60.7436 0.359999C60.0036 0.359999 59.4536 0.419999 59.0936 0.539998C58.7336 0.659999 58.4936 0.87 58.3736 1.17C58.2536 1.45 58.1936 1.89 58.1936 2.49V16.32ZM63.4746 18.75C63.4346 18.75 63.4146 18.69 63.4146 18.57C63.4146 18.45 63.4346 18.39 63.4746 18.39C64.2346 18.39 64.7846 18.34 65.1246 18.24C65.4846 18.14 65.7246 17.95 65.8446 17.67C65.9846 17.37 66.0546 16.92 66.0546 16.32V2.43C66.0546 1.83 65.9846 1.39 65.8446 1.11C65.7246 0.829999 65.4846 0.639998 65.1246 0.539998C64.7846 0.419999 64.2346 0.359999 63.4746 0.359999C63.4346 0.359999 63.4146 0.299999 63.4146 0.179999C63.4146 0.0599998 63.4346 0 63.4746 0H75.5346C75.7146 0 75.8046 0.0899994 75.8046 0.269998L75.8646 3.96C75.8646 4.02 75.8046 4.06 75.6846 4.08C75.5846 4.08 75.5346 4.05 75.5346 3.99C75.4746 2.93 75.1546 2.11 74.5746 1.53C73.9946 0.929999 73.2246 0.629999 72.2646 0.629999H70.4346C69.7346 0.629999 69.2146 0.689999 68.8746 0.809999C68.5346 0.909998 68.2946 1.09 68.1546 1.35C68.0346 1.61 67.9746 2.02 67.9746 2.58V16.2C67.9746 16.74 68.0346 17.15 68.1546 17.43C68.2946 17.69 68.5246 17.87 68.8446 17.97C69.1646 18.07 69.6646 18.12 70.3446 18.12H72.7446C73.7046 18.12 74.5046 17.78 75.1446 17.1C75.7846 16.42 76.2146 15.48 76.4346 14.28C76.4346 14.24 76.4746 14.22 76.5546 14.22C76.6146 14.22 76.6646 14.24 76.7046 14.28C76.7646 14.3 76.7946 14.32 76.7946 14.34C76.6146 15.6 76.5246 16.92 76.5246 18.3C76.5246 18.46 76.4846 18.58 76.4046 18.66C76.3446 18.72 76.2246 18.75 76.0446 18.75H63.4746ZM74.3646 11.76C74.3646 10.88 74.1446 10.25 73.7046 9.87C73.2846 9.49 72.5746 9.3 71.5746 9.3H67.0746V8.67H71.6646C72.6246 8.67 73.3046 8.51 73.7046 8.19C74.1246 7.87 74.3346 7.33 74.3346 6.57C74.3346 6.53 74.3946 6.51 74.5146 6.51C74.6346 6.51 74.6946 6.53 74.6946 6.57L74.6646 9C74.6646 9.58 74.6746 10.02 74.6946 10.32L74.7246 11.76C74.7246 11.8 74.6646 11.82 74.5446 11.82C74.4246 11.82 74.3646 11.8 74.3646 11.76ZM6.78734 52.2C6.78734 52.84 6.86734 53.31 7.02734 53.61C7.20734 53.89 7.53734 54.09 8.01734 54.21C8.51734 54.33 9.29734 54.39 10.3573 54.39C10.4173 54.39 10.4473 54.45 10.4473 54.57C10.4473 54.69 10.4173 54.75 10.3573 54.75C9.53734 54.75 8.89734 54.74 8.43734 54.72L5.82734 54.69L3.81734 54.72C3.43734 54.74 2.92734 54.75 2.28734 54.75C2.24734 54.75 2.22734 54.69 2.22734 54.57C2.22734 54.45 2.24734 54.39 2.28734 54.39C3.04734 54.39 3.59734 54.34 3.93734 54.24C4.29734 54.14 4.53734 53.95 4.65734 53.67C4.77734 53.37 4.83734 52.92 4.83734 52.32V38.43C4.83734 37.83 4.77734 37.39 4.65734 37.11C4.53734 36.83 4.29734 36.64 3.93734 36.54C3.59734 36.42 3.04734 36.36 2.28734 36.36C2.24734 36.36 2.22734 36.3 2.22734 36.18C2.22734 36.06 2.24734 36 2.28734 36L3.78734 36.03C4.62734 36.07 5.29734 36.09 5.79734 36.09C6.29734 36.09 6.85734 36.06 7.47734 36C7.71734 36 8.09734 35.99 8.61734 35.97C9.13734 35.93 9.58734 35.91 9.96734 35.91C11.8073 35.91 13.2773 36.32 14.3773 37.14C15.4973 37.96 16.0573 39.21 16.0573 40.89C16.0573 42.21 15.7273 43.32 15.0673 44.22C14.4273 45.12 13.5973 45.79 12.5773 46.23C11.5573 46.67 10.5073 46.89 9.42734 46.89C8.84734 46.89 8.36734 46.84 7.98734 46.74C7.92734 46.74 7.89734 46.69 7.89734 46.59C7.89734 46.53 7.90734 46.47 7.92734 46.41C7.96734 46.35 8.00734 46.33 8.04734 46.35C8.36734 46.43 8.72734 46.47 9.12734 46.47C10.4473 46.47 11.5573 46.04 12.4573 45.18C13.3773 44.32 13.8373 43.08 13.8373 41.46C13.8373 39.88 13.4073 38.64 12.5473 37.74C11.6873 36.82 10.5873 36.36 9.24734 36.36C8.52734 36.36 8.00734 36.4 7.68734 36.48C7.36734 36.56 7.13734 36.75 6.99734 37.05C6.85734 37.33 6.78734 37.81 6.78734 38.49V52.2ZM34.4464 38.49C34.4464 37.89 34.3764 37.45 34.2364 37.17C34.1164 36.87 33.8764 36.66 33.5164 36.54C33.1564 36.42 32.5864 36.36 31.8064 36.36C31.7464 36.36 31.7164 36.3 31.7164 36.18C31.7164 36.06 31.7464 36 31.8064 36L33.2464 36.03C34.1264 36.07 34.8564 36.09 35.4364 36.09C35.9764 36.09 36.6664 36.07 37.5064 36.03L38.9764 36C39.0364 36 39.0664 36.06 39.0664 36.18C39.0664 36.3 39.0364 36.36 38.9764 36.36C38.2164 36.36 37.6564 36.42 37.2964 36.54C36.9364 36.64 36.6864 36.83 36.5464 37.11C36.4264 37.39 36.3664 37.83 36.3664 38.43V52.32C36.3664 52.92 36.4264 53.37 36.5464 53.67C36.6864 53.95 36.9364 54.14 37.2964 54.24C37.6564 54.34 38.2164 54.39 38.9764 54.39C39.0364 54.39 39.0664 54.45 39.0664 54.57C39.0664 54.69 39.0364 54.75 38.9764 54.75C38.3564 54.75 37.8664 54.74 37.5064 54.72L35.4364 54.69L33.2464 54.72C32.8864 54.74 32.4064 54.75 31.8064 54.75C31.7464 54.75 31.7164 54.69 31.7164 54.57C31.7164 54.45 31.7464 54.39 31.8064 54.39C32.5864 54.39 33.1564 54.34 33.5164 54.24C33.8764 54.14 34.1164 53.95 34.2364 53.67C34.3764 53.37 34.4464 52.92 34.4464 52.32V38.49ZM21.8764 44.67H35.2864V45.3H21.8764V44.67ZM21.0064 38.43C21.0064 37.83 20.9364 37.39 20.7964 37.11C20.6764 36.83 20.4364 36.64 20.0764 36.54C19.7164 36.42 19.1564 36.36 18.3964 36.36C18.3564 36.36 18.3364 36.3 18.3364 36.18C18.3364 36.06 18.3564 36 18.3964 36L19.9264 36.03C20.7664 36.07 21.4364 36.09 21.9364 36.09C22.5164 36.09 23.2464 36.07 24.1264 36.03L25.5664 36C25.6064 36 25.6264 36.06 25.6264 36.18C25.6264 36.3 25.6064 36.36 25.5664 36.36C24.8064 36.36 24.2364 36.42 23.8564 36.54C23.4964 36.66 23.2464 36.87 23.1064 37.17C22.9864 37.45 22.9264 37.89 22.9264 38.49V52.32C22.9264 52.92 22.9864 53.37 23.1064 53.67C23.2464 53.95 23.4964 54.14 23.8564 54.24C24.2164 54.34 24.7864 54.39 25.5664 54.39C25.6064 54.39 25.6264 54.45 25.6264 54.57C25.6264 54.69 25.6064 54.75 25.5664 54.75C24.9464 54.75 24.4564 54.74 24.0964 54.72L21.9364 54.69L19.8664 54.72C19.5064 54.74 19.0064 54.75 18.3664 54.75C18.3264 54.75 18.3064 54.69 18.3064 54.57C18.3064 54.45 18.3264 54.39 18.3664 54.39C19.1264 54.39 19.6864 54.34 20.0464 54.24C20.4264 54.14 20.6764 53.95 20.7964 53.67C20.9364 53.37 21.0064 52.92 21.0064 52.32V38.43ZM46.2001 45.9H54.1501L54.3601 46.5H45.9001L46.2001 45.9ZM61.0501 54.39C61.1301 54.39 61.1701 54.45 61.1701 54.57C61.1701 54.69 61.1301 54.75 61.0501 54.75C60.6701 54.75 60.0801 54.73 59.2801 54.69C58.4801 54.65 57.9001 54.63 57.5401 54.63C57.1001 54.63 56.5401 54.65 55.8601 54.69C55.2201 54.73 54.7301 54.75 54.3901 54.75C54.3101 54.75 54.2701 54.69 54.2701 54.57C54.2701 54.45 54.3101 54.39 54.3901 54.39C55.1501 54.39 55.6901 54.32 56.0101 54.18C56.3501 54.04 56.5201 53.79 56.5201 53.43C56.5201 53.13 56.4001 52.71 56.1601 52.17L49.5001 38.1L50.2501 37.17L44.4301 50.94C44.1501 51.62 44.0101 52.18 44.0101 52.62C44.0101 53.8 44.9901 54.39 46.9501 54.39C47.0501 54.39 47.1001 54.45 47.1001 54.57C47.1001 54.69 47.0501 54.75 46.9501 54.75C46.5901 54.75 46.0701 54.73 45.3901 54.69C44.6301 54.65 43.9701 54.63 43.4101 54.63C42.8901 54.63 42.2901 54.65 41.6101 54.69C41.0101 54.73 40.5101 54.75 40.1101 54.75C40.0101 54.75 39.9601 54.69 39.9601 54.57C39.9601 54.45 40.0101 54.39 40.1101 54.39C40.6701 54.39 41.1401 54.29 41.5201 54.09C41.9201 53.87 42.2901 53.5 42.6301 52.98C42.9901 52.44 43.3801 51.67 43.8001 50.67L50.1301 35.73C50.1701 35.67 50.2401 35.64 50.3401 35.64C50.4401 35.64 50.5001 35.67 50.5201 35.73L57.6001 50.64C58.2801 52.12 58.8601 53.12 59.3401 53.64C59.8201 54.14 60.3901 54.39 61.0501 54.39ZM64.7445 36.69L65.4345 36.75V51.48C65.4345 52.52 65.6145 53.27 65.9745 53.73C66.3545 54.17 66.9545 54.39 67.7745 54.39C67.8345 54.39 67.8645 54.45 67.8645 54.57C67.8645 54.69 67.8345 54.75 67.7745 54.75C67.2745 54.75 66.8945 54.74 66.6345 54.72L65.1345 54.69L63.6045 54.72C63.3245 54.74 62.9145 54.75 62.3745 54.75C62.3345 54.75 62.3145 54.69 62.3145 54.57C62.3145 54.45 62.3345 54.39 62.3745 54.39C63.2345 54.39 63.8445 54.17 64.2045 53.73C64.5645 53.27 64.7445 52.52 64.7445 51.48V36.69ZM79.8645 55.11C79.8645 55.15 79.8145 55.18 79.7145 55.2C79.6145 55.22 79.5445 55.21 79.5045 55.17L65.7045 38.46C65.0645 37.68 64.4745 37.14 63.9345 36.84C63.4145 36.52 62.8945 36.36 62.3745 36.36C62.3145 36.36 62.2845 36.3 62.2845 36.18C62.2845 36.06 62.3145 36 62.3745 36L63.4845 36.03C63.7245 36.05 64.0545 36.06 64.4745 36.06C64.9145 36.06 65.2745 36.05 65.5545 36.03C65.8345 36.01 66.0545 36 66.2145 36C66.3545 36 66.4645 36.04 66.5445 36.12C66.6445 36.18 66.7545 36.32 66.8745 36.54C67.1145 36.9 67.3645 37.24 67.6245 37.56L79.6245 52.29L79.8645 55.11ZM79.8645 55.11L79.1745 54.18V39.3C79.1745 38.26 78.9945 37.51 78.6345 37.05C78.2945 36.59 77.7145 36.36 76.8945 36.36C76.8545 36.36 76.8345 36.3 76.8345 36.18C76.8345 36.06 76.8545 36 76.8945 36L78.0645 36.03C78.6645 36.07 79.1545 36.09 79.5345 36.09C79.8945 36.09 80.3945 36.07 81.0345 36.03L82.2645 36C82.3245 36 82.3545 36.06 82.3545 36.18C82.3545 36.3 82.3245 36.36 82.2645 36.36C81.4245 36.36 80.8145 36.59 80.4345 37.05C80.0545 37.51 79.8645 38.26 79.8645 39.3V55.11ZM13.1734 76.14C13.7134 75.24 13.9834 74.47 13.9834 73.83C13.9834 73.35 13.8334 72.99 13.5334 72.75C13.2534 72.49 12.8434 72.36 12.3034 72.36C12.2434 72.36 12.2134 72.3 12.2134 72.18C12.2134 72.06 12.2434 72 12.3034 72L13.8934 72.03C14.8134 72.07 15.6334 72.09 16.3534 72.09C16.6934 72.09 17.1034 72.07 17.5834 72.03L18.6934 72C18.7334 72 18.7534 72.06 18.7534 72.18C18.7534 72.3 18.7334 72.36 18.6934 72.36C18.0734 72.36 17.3134 72.75 16.4134 73.53C15.5134 74.29 14.7134 75.25 14.0134 76.41L10.1134 82.92L9.48336 82.41L13.1734 76.14ZM3.18336 75.45C2.44336 74.29 1.82336 73.49 1.32336 73.05C0.843359 72.59 0.433359 72.36 0.0933594 72.36C0.0333594 72.36 0.00335938 72.3 0.00335938 72.18C0.00335938 72.06 0.0333594 72 0.0933594 72L1.02336 72.03C1.46336 72.07 1.77336 72.09 1.95336 72.09C2.65336 72.09 3.66336 72.07 4.98336 72.03L6.96336 72C7.00336 72 7.02336 72.06 7.02336 72.18C7.02336 72.3 7.00336 72.36 6.96336 72.36C6.62336 72.36 6.35336 72.44 6.15336 72.6C5.97336 72.76 5.88336 72.97 5.88336 73.23C5.88336 73.55 6.02336 73.93 6.30336 74.37L10.6234 81.18L7.74336 82.53L3.18336 75.45ZM10.8934 81.18V88.32C10.8934 88.94 10.9434 89.39 11.0434 89.67C11.1434 89.95 11.3334 90.14 11.6134 90.24C11.9134 90.34 12.3834 90.39 13.0234 90.39C13.0834 90.39 13.1134 90.45 13.1134 90.57C13.1134 90.69 13.0834 90.75 13.0234 90.75C12.3634 90.75 11.8434 90.74 11.4634 90.72L9.21336 90.69L6.99336 90.72C6.59336 90.74 6.05336 90.75 5.37336 90.75C5.33336 90.75 5.31336 90.69 5.31336 90.57C5.31336 90.45 5.33336 90.39 5.37336 90.39C6.01336 90.39 6.48336 90.34 6.78336 90.24C7.08336 90.14 7.28336 89.95 7.38336 89.67C7.50336 89.37 7.56336 88.92 7.56336 88.32V81.45L10.8934 81.18ZM28.6187 91.11C26.7587 91.11 25.0987 90.68 23.6387 89.82C22.1987 88.94 21.0787 87.76 20.2787 86.28C19.4987 84.78 19.1087 83.15 19.1087 81.39C19.1087 79.33 19.6287 77.57 20.6687 76.11C21.7087 74.63 23.0387 73.52 24.6587 72.78C26.2987 72.04 27.9687 71.67 29.6687 71.67C31.5687 71.67 33.2387 72.12 34.6787 73.02C36.1187 73.9 37.2187 75.07 37.9787 76.53C38.7587 77.99 39.1487 79.54 39.1487 81.18C39.1487 83 38.6687 84.67 37.7087 86.19C36.7487 87.71 35.4587 88.91 33.8387 89.79C32.2387 90.67 30.4987 91.11 28.6187 91.11ZM29.6087 90.36C30.7287 90.36 31.7287 90.04 32.6087 89.4C33.5087 88.74 34.2087 87.79 34.7087 86.55C35.2087 85.29 35.4587 83.79 35.4587 82.05C35.4587 80.21 35.1787 78.57 34.6187 77.13C34.0587 75.67 33.2487 74.53 32.1887 73.71C31.1287 72.89 29.8887 72.48 28.4687 72.48C26.6487 72.48 25.2487 73.17 24.2687 74.55C23.2887 75.91 22.7987 77.82 22.7987 80.28C22.7987 82.22 23.0887 83.96 23.6687 85.5C24.2687 87.02 25.0787 88.21 26.0987 89.07C27.1387 89.93 28.3087 90.36 29.6087 90.36ZM53.2374 91.11C50.9574 91.11 48.9774 90.69 47.2974 89.85C45.6174 88.99 44.3274 87.83 43.4274 86.37C42.5274 84.91 42.0774 83.29 42.0774 81.51C42.0774 79.61 42.5774 77.91 43.5774 76.41C44.5974 74.91 45.9974 73.75 47.7774 72.93C49.5574 72.09 51.5574 71.67 53.7774 71.67C54.7374 71.67 55.6974 71.75 56.6574 71.91C57.6174 72.05 58.3874 72.24 58.9674 72.48C59.1874 72.56 59.3074 72.63 59.3274 72.69C59.3674 72.73 59.3974 72.89 59.4174 73.17L59.8074 77.34C59.8074 77.4 59.7474 77.44 59.6274 77.46C59.5274 77.48 59.4674 77.45 59.4474 77.37C59.1874 76.71 58.7674 75.99 58.1874 75.21C57.6074 74.43 56.8474 73.75 55.9074 73.17C54.9674 72.59 53.8774 72.3 52.6374 72.3C51.3574 72.3 50.1874 72.65 49.1274 73.35C48.0674 74.05 47.2274 75.05 46.6074 76.35C46.0074 77.65 45.7074 79.16 45.7074 80.88C45.7074 82.76 46.0574 84.44 46.7574 85.92C47.4774 87.4 48.4674 88.55 49.7274 89.37C50.9874 90.19 52.4074 90.6 53.9874 90.6C54.8074 90.6 55.4374 90.51 55.8774 90.33C56.3174 90.15 56.6374 89.8 56.8374 89.28C57.0374 88.76 57.1374 87.99 57.1374 86.97C57.1374 85.93 57.0774 85.21 56.9574 84.81C56.8374 84.39 56.5774 84.11 56.1774 83.97C55.7974 83.83 55.1174 83.76 54.1374 83.76C54.0174 83.76 53.9574 83.68 53.9574 83.52C53.9574 83.46 53.9674 83.41 53.9874 83.37C54.0274 83.31 54.0674 83.28 54.1074 83.28C55.8074 83.38 57.1874 83.43 58.2474 83.43C59.2674 83.43 60.3274 83.4 61.4274 83.34C61.5074 83.34 61.5474 83.41 61.5474 83.55C61.5674 83.69 61.5274 83.76 61.4274 83.76C61.0674 83.74 60.8074 83.81 60.6474 83.97C60.5074 84.11 60.4174 84.41 60.3774 84.87C60.3374 85.33 60.3174 86.13 60.3174 87.27C60.3174 88.17 60.3474 88.81 60.4074 89.19C60.4874 89.57 60.5274 89.81 60.5274 89.91C60.5274 90.03 60.5074 90.11 60.4674 90.15C60.4274 90.19 60.3374 90.23 60.1974 90.27C57.6174 90.83 55.2974 91.11 53.2374 91.11ZM68.1308 83.04H76.7708L76.9808 83.88H67.6808L68.1308 83.04ZM84.0608 90.39C84.1608 90.39 84.2108 90.45 84.2108 90.57C84.2108 90.69 84.1608 90.75 84.0608 90.75C83.6608 90.75 83.0408 90.73 82.2008 90.69C81.3208 90.65 80.6908 90.63 80.3108 90.63C79.8108 90.63 79.2008 90.65 78.4808 90.69C77.8008 90.73 77.2608 90.75 76.8608 90.75C76.7808 90.75 76.7408 90.69 76.7408 90.57C76.7408 90.45 76.7808 90.39 76.8608 90.39C77.3808 90.39 77.7508 90.34 77.9708 90.24C78.2108 90.12 78.3308 89.92 78.3308 89.64C78.3308 89.3 78.1308 88.73 77.7308 87.93L71.6408 75.9L73.1108 73.32L67.1408 86.49C66.8808 87.07 66.7508 87.61 66.7508 88.11C66.7508 88.83 67.0008 89.39 67.5008 89.79C68.0208 90.19 68.7108 90.39 69.5708 90.39C69.6708 90.39 69.7208 90.45 69.7208 90.57C69.7208 90.69 69.6708 90.75 69.5708 90.75C69.2108 90.75 68.6908 90.73 68.0108 90.69C67.2508 90.65 66.5908 90.63 66.0308 90.63C65.4908 90.63 64.8408 90.65 64.0808 90.69C63.4008 90.73 62.8508 90.75 62.4308 90.75C62.3508 90.75 62.3108 90.69 62.3108 90.57C62.3108 90.45 62.3508 90.39 62.4308 90.39C62.9908 90.39 63.4608 90.28 63.8408 90.06C64.2208 89.82 64.6008 89.41 64.9808 88.83C65.3608 88.23 65.8108 87.35 66.3308 86.19L72.8408 71.88C72.8808 71.82 72.9708 71.79 73.1108 71.79C73.2708 71.79 73.3608 71.82 73.3808 71.88L80.8808 86.64C81.5808 88.06 82.1608 89.04 82.6208 89.58C83.0808 90.12 83.5608 90.39 84.0608 90.39Z" fill="#111111"/>
</svg>
