<svg width="25" height="25" viewBox="0 0 25 25" fill="none" xmlns="http://www.w3.org/2000/svg">
<path d="M4.16927 20.8332C3.59635 20.8332 3.10156 20.6335 2.6849 20.2342C2.28559 19.8175 2.08594 19.3228 2.08594 18.7498V6.24984C2.08594 5.67692 2.28559 5.19081 2.6849 4.7915C3.10156 4.37484 3.59635 4.1665 4.16927 4.1665H20.8359C21.4089 4.1665 21.895 4.37484 22.2943 4.7915C22.7109 5.19081 22.9193 5.67692 22.9193 6.24984V18.7498C22.9193 19.3228 22.7109 19.8175 22.2943 20.2342C21.895 20.6335 21.4089 20.8332 20.8359 20.8332H4.16927ZM12.5026 13.5415L20.8359 8.33317V6.24984L12.5026 11.4582L4.16927 6.24984V8.33317L12.5026 13.5415Z" fill="#1D1B20"/>
</svg>
