<svg width="144" height="19" viewBox="0 0 144 19" fill="none" xmlns="http://www.w3.org/2000/svg">
<path d="M5.52294 5C5.54427 5 5.55494 5.032 5.55494 5.096C5.55494 5.16 5.54427 5.192 5.52294 5.192C5.22427 5.192 5.00027 5.224 4.85094 5.288C4.71227 5.352 4.61627 5.464 4.56294 5.624C4.52027 5.784 4.49894 6.01867 4.49894 6.328V15.192C4.49894 16.3333 4.2216 17.2347 3.66694 17.896C3.11227 18.5573 2.32294 18.888 1.29894 18.888C0.914937 18.888 0.605604 18.808 0.370937 18.648C0.125604 18.4987 0.00293684 18.2907 0.00293684 18.024C0.00293684 17.8427 0.0616035 17.6773 0.178937 17.528C0.29627 17.3787 0.482937 17.304 0.738937 17.304C0.973604 17.304 1.1496 17.3627 1.26694 17.48C1.39494 17.608 1.49627 17.752 1.57094 17.912C1.6456 18.0827 1.72027 18.232 1.79494 18.36C1.8696 18.488 1.97627 18.552 2.11494 18.552C2.39227 18.552 2.60027 18.36 2.73894 17.976C2.8776 17.592 2.94694 16.9467 2.94694 16.04V6.296C2.94694 5.98667 2.9096 5.75733 2.83494 5.608C2.77094 5.448 2.6376 5.34133 2.43494 5.288C2.23227 5.224 1.92827 5.192 1.52294 5.192C1.5016 5.192 1.49094 5.16 1.49094 5.096C1.49094 5.032 1.5016 5 1.52294 5C1.84294 5 2.18427 5.01067 2.54694 5.032C2.92027 5.04267 3.30427 5.048 3.69894 5.048C4.0616 5.048 4.39227 5.04267 4.69094 5.032C5.00027 5.01067 5.2776 5 5.52294 5ZM15.7951 6.952C15.7951 6.39733 15.6671 5.96533 15.4111 5.656C15.1657 5.34667 14.8084 5.192 14.3391 5.192C14.3177 5.192 14.3071 5.16 14.3071 5.096C14.3071 5.032 14.3177 5 14.3391 5C14.6057 5 14.8724 5.01067 15.1391 5.032C15.4164 5.04267 15.7151 5.048 16.0351 5.048C16.3124 5.048 16.5844 5.04267 16.8511 5.032C17.1284 5.01067 17.3791 5 17.6031 5C17.6244 5 17.6351 5.032 17.6351 5.096C17.6351 5.16 17.6244 5.192 17.6031 5.192C17.1764 5.192 16.8511 5.34667 16.6271 5.656C16.4031 5.96533 16.2911 6.39733 16.2911 6.952V11.432C16.2911 12.2107 16.1257 12.8827 15.7951 13.448C15.4751 14.0133 15.0217 14.4507 14.4351 14.76C13.8484 15.0693 13.1604 15.224 12.3711 15.224C11.5924 15.224 10.8991 15.0747 10.2911 14.776C9.68306 14.4667 9.2084 14.0293 8.86706 13.464C8.5364 12.8987 8.37106 12.2267 8.37106 11.448V6.296C8.37106 5.98667 8.33906 5.75733 8.27506 5.608C8.22173 5.448 8.1044 5.34133 7.92306 5.288C7.7524 5.224 7.4964 5.192 7.15506 5.192C7.12306 5.192 7.10706 5.16 7.10706 5.096C7.10706 5.032 7.12306 5 7.15506 5C7.42173 5 7.7204 5.01067 8.05106 5.032C8.3924 5.04267 8.74973 5.048 9.12306 5.048C9.51773 5.048 9.8804 5.04267 10.2111 5.032C10.5417 5.01067 10.8404 5 11.1071 5C11.1391 5 11.1551 5.032 11.1551 5.096C11.1551 5.16 11.1391 5.192 11.1071 5.192C10.7551 5.192 10.4937 5.224 10.3231 5.288C10.1524 5.352 10.0351 5.464 9.97106 5.624C9.91773 5.784 9.89106 6.01867 9.89106 6.328V10.888C9.89106 12.1893 10.1577 13.144 10.6911 13.752C11.2351 14.36 11.9711 14.664 12.8991 14.664C13.8057 14.664 14.5151 14.3867 15.0271 13.832C15.5391 13.2667 15.7951 12.472 15.7951 11.448V6.952ZM21.6058 6.312V13.64C21.6058 13.9067 21.6325 14.1093 21.6858 14.248C21.7391 14.3867 21.8405 14.4773 21.9898 14.52C22.1391 14.5627 22.3578 14.584 22.6458 14.584H23.6058C24.3631 14.584 25.0031 14.3707 25.5258 13.944C26.0485 13.5173 26.3951 12.952 26.5658 12.248C26.5765 12.216 26.6085 12.2053 26.6618 12.216C26.7151 12.2267 26.7418 12.248 26.7418 12.28C26.7098 12.6107 26.6778 13.0107 26.6458 13.48C26.6138 13.9387 26.5978 14.3653 26.5978 14.76C26.5978 14.92 26.5178 15 26.3578 15H18.8698C18.8485 15 18.8378 14.968 18.8378 14.904C18.8378 14.84 18.8485 14.808 18.8698 14.808C19.2111 14.808 19.4671 14.7813 19.6378 14.728C19.8191 14.6747 19.9365 14.568 19.9898 14.408C20.0538 14.248 20.0858 14.0133 20.0858 13.704V6.296C20.0858 5.98667 20.0538 5.75733 19.9898 5.608C19.9365 5.448 19.8191 5.34133 19.6378 5.288C19.4671 5.224 19.2111 5.192 18.8698 5.192C18.8485 5.192 18.8378 5.16 18.8378 5.096C18.8378 5.032 18.8485 5 18.8698 5C19.1258 5 19.4245 5.01067 19.7658 5.032C20.1071 5.04267 20.4645 5.048 20.8378 5.048C21.2325 5.048 21.5951 5.04267 21.9258 5.032C22.2671 5.01067 22.5658 5 22.8218 5C22.8538 5 22.8698 5.032 22.8698 5.096C22.8698 5.16 22.8538 5.192 22.8218 5.192C22.4805 5.192 22.2191 5.224 22.0378 5.288C21.8671 5.34133 21.7498 5.448 21.6858 5.608C21.6325 5.768 21.6058 6.00267 21.6058 6.312ZM30.9661 13.704C30.9661 14.0133 30.9927 14.248 31.0461 14.408C31.1101 14.568 31.2274 14.6747 31.3981 14.728C31.5687 14.7813 31.8301 14.808 32.1821 14.808C32.2141 14.808 32.2301 14.84 32.2301 14.904C32.2301 14.968 32.2141 15 32.1821 15C31.9154 15 31.6167 14.9947 31.2861 14.984C30.9554 14.9733 30.5874 14.968 30.1821 14.968C29.8087 14.968 29.4514 14.9733 29.1101 14.984C28.7687 14.9947 28.4647 15 28.1981 15C28.1661 15 28.1501 14.968 28.1501 14.904C28.1501 14.84 28.1661 14.808 28.1981 14.808C28.5394 14.808 28.8007 14.7813 28.9821 14.728C29.1634 14.6747 29.2807 14.568 29.3341 14.408C29.3981 14.248 29.4301 14.0133 29.4301 13.704V6.296C29.4301 5.98667 29.3981 5.75733 29.3341 5.608C29.2807 5.448 29.1634 5.34133 28.9821 5.288C28.8007 5.224 28.5394 5.192 28.1981 5.192C28.1661 5.192 28.1501 5.16 28.1501 5.096C28.1501 5.032 28.1661 5 28.1981 5C28.4647 5 28.7687 5.01067 29.1101 5.032C29.4514 5.04267 29.8087 5.048 30.1821 5.048C30.5874 5.048 30.9554 5.04267 31.2861 5.032C31.6274 5.01067 31.9261 5 32.1821 5C32.2141 5 32.2301 5.032 32.2301 5.096C32.2301 5.16 32.2141 5.192 32.1821 5.192C31.8407 5.192 31.5794 5.224 31.3981 5.288C31.2274 5.352 31.1101 5.464 31.0461 5.624C30.9927 5.784 30.9661 6.01867 30.9661 6.328V13.704ZM41.0119 15H34.0679C34.0359 15 34.0199 14.968 34.0199 14.904C34.0199 14.84 34.0359 14.808 34.0679 14.808C34.4199 14.808 34.6813 14.7813 34.8519 14.728C35.0226 14.6747 35.1346 14.568 35.1879 14.408C35.2519 14.248 35.2839 14.0133 35.2839 13.704V6.296C35.2839 5.98667 35.2519 5.75733 35.1879 5.608C35.1346 5.448 35.0226 5.34133 34.8519 5.288C34.6813 5.224 34.4199 5.192 34.0679 5.192C34.0359 5.192 34.0199 5.16 34.0199 5.096C34.0199 5.032 34.0359 5 34.0679 5H40.7239C40.8306 5 40.8839 5.048 40.8839 5.144L40.9159 7.224C40.9159 7.24533 40.8893 7.26133 40.8359 7.272C40.7826 7.272 40.7453 7.256 40.7239 7.224C40.6066 6.616 40.3613 6.16267 39.9879 5.864C39.6146 5.56533 39.1239 5.416 38.5159 5.416H37.8599C37.5933 5.416 37.3799 5.448 37.2199 5.512C37.0706 5.56533 36.9639 5.66133 36.8999 5.8C36.8359 5.928 36.8039 6.104 36.8039 6.328V13.64C36.8039 13.864 36.8306 14.0507 36.8839 14.2C36.9479 14.3387 37.0439 14.44 37.1719 14.504C37.2999 14.5573 37.4813 14.584 37.7159 14.584H38.4999C39.2253 14.584 39.8119 14.4133 40.2599 14.072C40.7079 13.72 41.0279 13.2027 41.2199 12.52C41.2306 12.488 41.2626 12.4773 41.3159 12.488C41.3799 12.4987 41.4119 12.5147 41.4119 12.536C41.3693 12.8347 41.3319 13.192 41.2999 13.608C41.2679 14.024 41.2519 14.408 41.2519 14.76C41.2519 14.92 41.1719 15 41.0119 15ZM40.1159 11.384C40.1159 10.936 39.9666 10.5947 39.6679 10.36C39.3693 10.1253 38.9213 10.008 38.3239 10.008H36.0839V9.592H38.3399C38.9373 9.592 39.3799 9.49067 39.6679 9.288C39.9559 9.08533 40.0999 8.792 40.0999 8.408C40.0999 8.376 40.1266 8.36 40.1799 8.36C40.2439 8.36 40.2759 8.376 40.2759 8.408C40.2759 8.74933 40.2706 9.016 40.2599 9.208C40.2599 9.4 40.2599 9.59733 40.2599 9.8C40.2599 10.056 40.2653 10.312 40.2759 10.568C40.2973 10.8133 40.3079 11.0853 40.3079 11.384C40.3079 11.4053 40.2759 11.416 40.2119 11.416C40.1479 11.416 40.1159 11.4053 40.1159 11.384ZM50.1839 13.64C50.1839 13.96 50.2213 14.2053 50.2959 14.376C50.3706 14.536 50.5253 14.648 50.7599 14.712C51.0053 14.776 51.3679 14.808 51.8479 14.808C51.8799 14.808 51.8959 14.84 51.8959 14.904C51.8959 14.968 51.8799 15 51.8479 15C51.5066 15 51.1333 14.9947 50.7279 14.984C50.3333 14.9733 49.9013 14.968 49.4319 14.968C49.0586 14.968 48.7013 14.9733 48.3599 14.984C48.0186 14.9947 47.7146 15 47.4479 15C47.4159 15 47.3999 14.968 47.3999 14.904C47.3999 14.84 47.4159 14.808 47.4479 14.808C47.7999 14.808 48.0613 14.7813 48.2319 14.728C48.4026 14.6747 48.5146 14.568 48.5679 14.408C48.6319 14.248 48.6639 14.0133 48.6639 13.704V6.296C48.6639 5.98667 48.6319 5.75733 48.5679 5.608C48.5146 5.448 48.4026 5.34133 48.2319 5.288C48.0613 5.224 47.7999 5.192 47.4479 5.192C47.4159 5.192 47.3999 5.16 47.3999 5.096C47.3999 5.032 47.4159 5 47.4479 5C47.7146 5 48.0133 5.01067 48.3439 5.032C48.6853 5.04267 49.0426 5.048 49.4159 5.048C49.6719 5.048 50.0026 5.032 50.4079 5C50.8239 4.968 51.2239 4.952 51.6079 4.952C52.2586 4.952 52.8346 5.04267 53.3359 5.224C53.8479 5.39467 54.2533 5.672 54.5519 6.056C54.8506 6.44 55.0106 6.94667 55.0319 7.576C55.0426 8.13067 54.9466 8.61067 54.7439 9.016C54.5413 9.42133 54.2639 9.75733 53.9119 10.024C53.5706 10.28 53.1919 10.4773 52.7759 10.616C52.3599 10.744 51.9439 10.808 51.5279 10.808C51.4106 10.808 51.2826 10.8027 51.1439 10.792C51.0159 10.7813 50.8879 10.76 50.7599 10.728C50.7279 10.7173 50.7173 10.68 50.7279 10.616C50.7386 10.5413 50.7653 10.5093 50.8079 10.52C50.8933 10.5413 50.9893 10.5573 51.0959 10.568C51.2026 10.5787 51.2933 10.584 51.3679 10.584C51.7199 10.584 52.0453 10.488 52.3439 10.296C52.6426 10.104 52.8826 9.81067 53.0639 9.416C53.2559 9.02133 53.3519 8.52533 53.3519 7.928C53.3519 7.36267 53.2613 6.88267 53.0799 6.488C52.8986 6.09333 52.6426 5.79467 52.3119 5.592C51.9919 5.37867 51.5973 5.272 51.1279 5.272C50.8826 5.272 50.6906 5.29867 50.5519 5.352C50.4133 5.39467 50.3173 5.49067 50.2639 5.64C50.2106 5.78933 50.1839 6.01867 50.1839 6.328V13.64ZM64.9652 6.328C64.9652 6.01867 64.9332 5.784 64.8692 5.624C64.8052 5.464 64.6772 5.352 64.4852 5.288C64.2932 5.224 63.9999 5.192 63.6052 5.192C63.5732 5.192 63.5572 5.16 63.5572 5.096C63.5572 5.032 63.5732 5 63.6052 5C63.8719 5 64.1759 5.01067 64.5172 5.032C64.8692 5.04267 65.2745 5.048 65.7332 5.048C66.1065 5.048 66.4745 5.04267 66.8372 5.032C67.1999 5.01067 67.5145 5 67.7812 5C67.8132 5 67.8292 5.032 67.8292 5.096C67.8292 5.16 67.8132 5.192 67.7812 5.192C67.4079 5.192 67.1252 5.224 66.9332 5.288C66.7519 5.34133 66.6292 5.448 66.5652 5.608C66.5012 5.75733 66.4692 5.98667 66.4692 6.296V13.704C66.4692 14.0133 66.5012 14.248 66.5652 14.408C66.6292 14.568 66.7519 14.6747 66.9332 14.728C67.1252 14.7813 67.4079 14.808 67.7812 14.808C67.8132 14.808 67.8292 14.84 67.8292 14.904C67.8292 14.968 67.8132 15 67.7812 15C67.5145 15 67.1999 14.9947 66.8372 14.984C66.4745 14.9733 66.1065 14.968 65.7332 14.968C65.2745 14.968 64.8692 14.9733 64.5172 14.984C64.1759 14.9947 63.8719 15 63.6052 15C63.5732 15 63.5572 14.968 63.5572 14.904C63.5572 14.84 63.5732 14.808 63.6052 14.808C63.9999 14.808 64.2932 14.7813 64.4852 14.728C64.6772 14.6747 64.8052 14.568 64.8692 14.408C64.9332 14.248 64.9652 14.0133 64.9652 13.704V6.328ZM58.6452 10.008V9.592H65.6532V10.008H58.6452ZM57.9412 13.704V6.296C57.9412 5.98667 57.9092 5.75733 57.8452 5.608C57.7812 5.448 57.6585 5.34133 57.4772 5.288C57.2959 5.224 57.0185 5.192 56.6452 5.192C56.6239 5.192 56.6132 5.16 56.6132 5.096C56.6132 5.032 56.6239 5 56.6452 5C56.9225 5 57.2319 5.01067 57.5732 5.032C57.9145 5.04267 58.2719 5.048 58.6452 5.048C59.1039 5.048 59.5092 5.04267 59.8612 5.032C60.2132 5.01067 60.5279 5 60.8052 5C60.8265 5 60.8372 5.032 60.8372 5.096C60.8372 5.16 60.8265 5.192 60.8052 5.192C60.4212 5.192 60.1332 5.224 59.9412 5.288C59.7492 5.352 59.6212 5.464 59.5572 5.624C59.4932 5.784 59.4612 6.01867 59.4612 6.328V13.704C59.4612 14.0133 59.4932 14.248 59.5572 14.408C59.6212 14.568 59.7492 14.6747 59.9412 14.728C60.1439 14.7813 60.4319 14.808 60.8052 14.808C60.8265 14.808 60.8372 14.84 60.8372 14.904C60.8372 14.968 60.8265 15 60.8052 15C60.5172 15 60.1972 14.9947 59.8452 14.984C59.5039 14.9733 59.1039 14.968 58.6452 14.968C58.2719 14.968 57.9092 14.9733 57.5572 14.984C57.2052 14.9947 56.8959 15 56.6292 15C56.6079 15 56.5972 14.968 56.5972 14.904C56.5972 14.84 56.6079 14.808 56.6292 14.808C57.0025 14.808 57.2799 14.7813 57.4612 14.728C57.6425 14.6747 57.7652 14.568 57.8292 14.408C57.9039 14.248 57.9412 14.0133 57.9412 13.704ZM71.6487 11.08L71.8567 10.68H76.3367L76.4487 11.08H71.6487ZM80.1607 14.808C80.2034 14.808 80.2247 14.84 80.2247 14.904C80.2247 14.968 80.2034 15 80.1607 15C79.8407 15 79.51 14.9893 79.1687 14.968C78.838 14.9467 78.518 14.936 78.2087 14.936C77.8567 14.936 77.5474 14.9467 77.2807 14.968C77.0247 14.9893 76.7367 15 76.4167 15C76.374 15 76.3527 14.968 76.3527 14.904C76.3527 14.84 76.374 14.808 76.4167 14.808C76.8967 14.808 77.1847 14.7227 77.2807 14.552C77.3767 14.3813 77.2967 14.0453 77.0407 13.544L73.6967 6.744L74.3527 5.672L71.1847 12.808C70.9073 13.4587 70.8967 13.9547 71.1527 14.296C71.4193 14.6373 71.8674 14.808 72.4967 14.808C72.55 14.808 72.5767 14.84 72.5767 14.904C72.5767 14.968 72.55 15 72.4967 15C72.1767 15 71.8833 14.9893 71.6167 14.968C71.35 14.9467 71.014 14.936 70.6087 14.936C70.2033 14.936 69.878 14.9467 69.6327 14.968C69.398 14.9893 69.1047 15 68.7527 15C68.71 15 68.6887 14.968 68.6887 14.904C68.6887 14.84 68.71 14.808 68.7527 14.808C69.0407 14.808 69.286 14.7493 69.4887 14.632C69.702 14.5147 69.91 14.3013 70.1127 13.992C70.3153 13.672 70.5393 13.2293 70.7847 12.664L74.2247 4.904C74.246 4.872 74.294 4.856 74.3687 4.856C74.4433 4.856 74.486 4.872 74.4967 4.904L78.4167 12.808C78.662 13.32 78.8807 13.7253 79.0727 14.024C79.2647 14.312 79.446 14.5147 79.6167 14.632C79.7874 14.7493 79.9687 14.808 80.1607 14.808ZM82.6397 13.064V5.368L83.0717 5.4V13.064C83.0717 13.6293 83.1837 14.0613 83.4077 14.36C83.6317 14.6587 83.9517 14.808 84.3677 14.808C84.3997 14.808 84.4157 14.84 84.4157 14.904C84.4157 14.968 84.3997 15 84.3677 15C84.1437 15 83.909 14.9947 83.6637 14.984C83.429 14.9733 83.1677 14.968 82.8797 14.968C82.5704 14.968 82.2717 14.9733 81.9837 14.984C81.7064 14.9947 81.445 15 81.1997 15C81.1677 15 81.1517 14.968 81.1517 14.904C81.1517 14.84 81.1677 14.808 81.1997 14.808C81.669 14.808 82.0264 14.6587 82.2717 14.36C82.517 14.0613 82.6397 13.6293 82.6397 13.064ZM90.7677 15.224C90.7677 15.256 90.741 15.272 90.6877 15.272C90.6344 15.2827 90.597 15.2827 90.5757 15.272L82.8797 6.312C82.4957 5.87467 82.165 5.58133 81.8877 5.432C81.621 5.272 81.3597 5.192 81.1037 5.192C81.0717 5.192 81.0557 5.16 81.0557 5.096C81.0557 5.032 81.0717 5 81.1037 5C81.3064 5 81.5144 5.00533 81.7277 5.016C81.941 5.02667 82.1384 5.032 82.3197 5.032C82.6397 5.032 82.9277 5.02667 83.1837 5.016C83.4504 5.00533 83.653 5 83.7917 5C83.9304 5 84.0317 5.064 84.0957 5.192C84.1597 5.30933 84.3197 5.52267 84.5757 5.832L90.6397 12.968L90.7677 15.224ZM90.7677 6.952V15.224L90.3357 14.744V6.952C90.3357 6.38667 90.2237 5.95467 89.9997 5.656C89.7864 5.34667 89.4664 5.192 89.0397 5.192C89.0184 5.192 89.0077 5.16 89.0077 5.096C89.0077 5.032 89.0184 5 89.0397 5C89.2637 5 89.4984 5.01067 89.7437 5.032C89.989 5.04267 90.2557 5.048 90.5437 5.048C90.821 5.048 91.093 5.04267 91.3597 5.032C91.6264 5.01067 91.8717 5 92.0957 5C92.1277 5 92.1437 5.032 92.1437 5.096C92.1437 5.16 92.1277 5.192 92.0957 5.192C91.669 5.192 91.3384 5.34667 91.1037 5.656C90.8797 5.95467 90.7677 6.38667 90.7677 6.952ZM102.06 10.504L104.172 7.032C104.514 6.47733 104.642 6.03467 104.556 5.704C104.482 5.36267 104.194 5.192 103.692 5.192C103.671 5.192 103.66 5.16 103.66 5.096C103.66 5.032 103.671 5 103.692 5C104.023 5 104.332 5.01067 104.62 5.032C104.908 5.04267 105.287 5.048 105.756 5.048C106.023 5.048 106.236 5.04267 106.396 5.032C106.567 5.01067 106.77 5 107.004 5C107.026 5 107.036 5.032 107.036 5.096C107.036 5.16 107.026 5.192 107.004 5.192C106.78 5.192 106.524 5.27733 106.236 5.448C105.948 5.608 105.666 5.83733 105.388 6.136C105.111 6.424 104.85 6.76533 104.604 7.16L102.38 10.76L102.06 10.504ZM101.388 10.632L98.8124 6.696C98.4284 6.10933 98.1084 5.71467 97.8524 5.512C97.5964 5.29867 97.3511 5.192 97.1164 5.192C97.0844 5.192 97.0684 5.16 97.0684 5.096C97.0684 5.032 97.0844 5 97.1164 5C97.2871 5 97.4631 5.01067 97.6444 5.032C97.8258 5.04267 97.9964 5.048 98.1564 5.048C98.4551 5.048 98.7591 5.048 99.0684 5.048C99.3884 5.03733 99.6871 5.02667 99.9644 5.016C100.252 5.00533 100.492 5 100.684 5C100.706 5 100.716 5.032 100.716 5.096C100.716 5.16 100.706 5.192 100.684 5.192C100.332 5.192 100.119 5.28267 100.044 5.464C99.9698 5.64533 100.028 5.87467 100.22 6.152L102.668 9.912L101.388 10.632ZM101.26 10.04L102.78 9.896V13.704C102.78 14.0133 102.807 14.248 102.86 14.408C102.914 14.568 103.026 14.6747 103.196 14.728C103.367 14.7813 103.628 14.808 103.98 14.808C104.012 14.808 104.028 14.84 104.028 14.904C104.028 14.968 104.012 15 103.98 15C103.714 15 103.415 14.9947 103.084 14.984C102.764 14.9733 102.407 14.968 102.012 14.968C101.639 14.968 101.276 14.9733 100.924 14.984C100.583 14.9947 100.279 15 100.012 15C99.9911 15 99.9804 14.968 99.9804 14.904C99.9804 14.84 99.9911 14.808 100.012 14.808C100.364 14.808 100.626 14.7813 100.796 14.728C100.978 14.6747 101.1 14.568 101.164 14.408C101.228 14.248 101.26 14.0133 101.26 13.704V10.04ZM112.795 15.192C112.027 15.192 111.328 15.0587 110.699 14.792C110.08 14.5147 109.547 14.136 109.099 13.656C108.662 13.176 108.32 12.6267 108.075 12.008C107.84 11.3787 107.723 10.712 107.723 10.008C107.723 9.144 107.888 8.38667 108.219 7.736C108.56 7.08533 109.008 6.54667 109.563 6.12C110.118 5.68267 110.726 5.35733 111.387 5.144C112.048 4.93067 112.704 4.824 113.355 4.824C114.144 4.824 114.848 4.968 115.467 5.256C116.096 5.53333 116.63 5.912 117.067 6.392C117.504 6.872 117.835 7.416 118.059 8.024C118.294 8.632 118.411 9.256 118.411 9.896C118.411 10.6427 118.262 11.336 117.963 11.976C117.664 12.616 117.254 13.176 116.731 13.656C116.219 14.136 115.622 14.5147 114.939 14.792C114.267 15.0587 113.552 15.192 112.795 15.192ZM113.339 14.808C113.979 14.808 114.55 14.6373 115.051 14.296C115.563 13.9547 115.963 13.4533 116.251 12.792C116.55 12.12 116.699 11.3093 116.699 10.36C116.699 9.368 116.539 8.488 116.219 7.72C115.899 6.952 115.44 6.34933 114.843 5.912C114.246 5.464 113.531 5.24 112.699 5.24C111.664 5.24 110.859 5.61333 110.283 6.36C109.718 7.096 109.435 8.12 109.435 9.432C109.435 10.2 109.531 10.9147 109.723 11.576C109.915 12.2267 110.182 12.7973 110.523 13.288C110.875 13.7787 111.286 14.1573 111.755 14.424C112.235 14.68 112.763 14.808 113.339 14.808ZM126.341 15.192C125.413 15.192 124.581 15.0587 123.845 14.792C123.12 14.5147 122.501 14.1413 121.989 13.672C121.488 13.192 121.104 12.6427 120.837 12.024C120.581 11.4053 120.453 10.7387 120.453 10.024C120.453 9.24533 120.608 8.54133 120.917 7.912C121.226 7.272 121.658 6.72267 122.213 6.264C122.768 5.80533 123.418 5.45333 124.165 5.208C124.912 4.952 125.728 4.824 126.613 4.824C127.136 4.824 127.648 4.86667 128.149 4.952C128.661 5.03733 129.077 5.16 129.397 5.32C129.504 5.36267 129.562 5.4 129.573 5.432C129.594 5.45333 129.61 5.53867 129.621 5.688L129.829 7.784C129.829 7.816 129.802 7.83733 129.749 7.848C129.696 7.85867 129.658 7.848 129.637 7.816C129.552 7.54933 129.413 7.26133 129.221 6.952C129.04 6.64267 128.805 6.35467 128.517 6.088C128.229 5.81067 127.882 5.58133 127.477 5.4C127.082 5.21867 126.624 5.128 126.101 5.128C125.365 5.128 124.698 5.31467 124.101 5.688C123.504 6.06133 123.029 6.58933 122.677 7.272C122.325 7.95467 122.149 8.77067 122.149 9.72C122.149 10.456 122.256 11.1387 122.469 11.768C122.682 12.3867 122.986 12.936 123.381 13.416C123.786 13.896 124.272 14.2693 124.837 14.536C125.402 14.8027 126.037 14.936 126.741 14.936C127.178 14.936 127.53 14.8827 127.797 14.776C128.064 14.6693 128.256 14.4773 128.373 14.2C128.49 13.912 128.549 13.5067 128.549 12.984C128.549 12.472 128.517 12.0987 128.453 11.864C128.4 11.6187 128.256 11.4587 128.021 11.384C127.786 11.3093 127.408 11.272 126.885 11.272C126.821 11.272 126.789 11.2293 126.789 11.144C126.789 11.0587 126.816 11.016 126.869 11.016C127.594 11.0587 128.245 11.0853 128.821 11.096C129.408 11.096 130.021 11.08 130.661 11.048C130.704 11.048 130.725 11.0853 130.725 11.16C130.736 11.2347 130.714 11.272 130.661 11.272C130.458 11.2613 130.309 11.2987 130.213 11.384C130.117 11.4587 130.053 11.6293 130.021 11.896C130 12.1627 129.989 12.5787 129.989 13.144C129.989 13.496 130 13.7573 130.021 13.928C130.042 14.0987 130.058 14.2267 130.069 14.312C130.09 14.3867 130.101 14.4667 130.101 14.552C130.101 14.616 130.09 14.6587 130.069 14.68C130.048 14.7013 130 14.7227 129.925 14.744C129.36 14.872 128.762 14.9787 128.133 15.064C127.504 15.1493 126.906 15.192 126.341 15.192ZM134.607 11.08L134.815 10.68H139.295L139.407 11.08H134.607ZM143.119 14.808C143.161 14.808 143.183 14.84 143.183 14.904C143.183 14.968 143.161 15 143.119 15C142.799 15 142.468 14.9893 142.127 14.968C141.796 14.9467 141.476 14.936 141.167 14.936C140.815 14.936 140.505 14.9467 140.239 14.968C139.983 14.9893 139.695 15 139.375 15C139.332 15 139.311 14.968 139.311 14.904C139.311 14.84 139.332 14.808 139.375 14.808C139.855 14.808 140.143 14.7227 140.239 14.552C140.335 14.3813 140.255 14.0453 139.999 13.544L136.655 6.744L137.311 5.672L134.143 12.808C133.865 13.4587 133.855 13.9547 134.111 14.296C134.377 14.6373 134.825 14.808 135.455 14.808C135.508 14.808 135.535 14.84 135.535 14.904C135.535 14.968 135.508 15 135.455 15C135.135 15 134.841 14.9893 134.575 14.968C134.308 14.9467 133.972 14.936 133.567 14.936C133.161 14.936 132.836 14.9467 132.591 14.968C132.356 14.9893 132.063 15 131.711 15C131.668 15 131.647 14.968 131.647 14.904C131.647 14.84 131.668 14.808 131.711 14.808C131.999 14.808 132.244 14.7493 132.447 14.632C132.66 14.5147 132.868 14.3013 133.071 13.992C133.273 13.672 133.497 13.2293 133.743 12.664L137.183 4.904C137.204 4.872 137.252 4.856 137.327 4.856C137.401 4.856 137.444 4.872 137.455 4.904L141.375 12.808C141.62 13.32 141.839 13.7253 142.031 14.024C142.223 14.312 142.404 14.5147 142.575 14.632C142.745 14.7493 142.927 14.808 143.119 14.808Z" fill="#111111"/>
</svg>
